<?xml version="1.0" encoding="utf-8"?>
<!-- Generator: Adobe Illustrator 20.1.0, SVG Export Plug-In . SVG Version: 6.00 Build 0)  -->
<svg version="1.1" xmlns="http://www.w3.org/2000/svg" xmlns:xlink="http://www.w3.org/1999/xlink" x="0px" y="0px" width="865.3px"
	 height="529.5px" viewBox="0 0 865.3 529.5" enable-background="new 0 0 865.3 529.5" xml:space="preserve">
<g id="Layer_1">
	<path d="M577,213.1c1.7-0.1,3.3-0.4,4.9-1l12.8-4.4l12.8-4.4c8.1-2.8,7.8-9.5-0.6-12.2l-13.3-4.1l-13.3-4.1
		c-2.8-0.9-5.8-1.1-8.5-0.7c-4.6-6.1-11.5-11.8-20.6-16.7c-8.4-4.5-17.8-7.9-27.9-10.3c0.1-1.3-0.5-2.7-1.8-4l-7.9-7.3l-7.9-7.3
		c-5-4.6-17-4.5-21.5,0.2l-7.2,7.5l-7.2,7.5c-0.3,0.3-0.6,0.7-0.8,1c-16,2.1-31,6.8-43.1,14c-33.6,20-32,51.7,3.6,70.9
		s91.7,18.6,125.3-1.3C566.3,229.6,573.6,221.6,577,213.1z M548.7,193c6,3.2,8.3,7.8,6.9,12.1c-0.5-2-2.1-3.9-4.9-5.3
		c-6.5-3.5-16.7-3.4-22.8,0.2c-6.1,3.6-5.8,9.4,0.7,12.9c2.8,1.5,6.2,2.3,9.7,2.5c-7.5,1-15.7-0.1-21.7-3.3
		c-9.4-5.1-9.8-13.5-1-18.7C524.5,188.1,539.3,187.9,548.7,193z M508,179.4c-0.5-2-2.1-3.9-4.9-5.3c-6.5-3.5-16.7-3.4-22.8,0.2
		c-6.1,3.6-5.8,9.4,0.7,12.9c2.8,1.5,6.2,2.3,9.7,2.5c-7.5,1-15.7-0.1-21.7-3.3c-9.4-5.1-9.8-13.5-1-18.7c8.9-5.3,23.7-5.4,33.1-0.4
		C507.1,170.5,509.4,175.1,508,179.4z M423.3,186.4c-1.1-0.6-1.1-1.6-0.1-2.2c1-0.6,2.8-0.6,3.9,0l31.5,17c1.1,0.6,1.1,1.6,0.1,2.2
		c-1,0.6-2.8,0.6-3.9,0L423.3,186.4z M456.3,212.6l-40.7-8.5c-1.4-0.3-2.2-1.2-1.6-2c0.5-0.8,2.1-1.2,3.5-0.9l40.7,8.5
		c1.4,0.3,2.2,1.2,1.6,2C459.3,212.5,457.7,212.9,456.3,212.6z M478.8,208.5l-5.6-3c-3.6-1.9-2.2-5.3,2.5-6.1l7.4-1.2l7.4-1.2
		c4.7-0.8,9.2,1.6,8,4.3l-1.8,4.3l-1.8,4.3c-1.1,2.7-7,3.7-10.6,1.7L478.8,208.5z M493.2,244.9c-1.4,0.3-3,0-3.6-0.8l-17-22.6
		c-0.6-0.8,0.1-1.7,1.4-2c1.4-0.3,3,0,3.6,0.8l17,22.6C495.2,243.6,494.6,244.5,493.2,244.9z M520.4,238.8l-31.5-17
		c-1.1-0.6-1.1-1.6-0.1-2.2c1-0.6,2.8-0.6,3.9,0l31.5,17c1.1,0.6,1.1,1.6,0.1,2.2C523.2,239.4,521.5,239.4,520.4,238.8z"/>
	<g>
		<path d="M328.9,265.2c6.9,3.7,16.4,5,25,3.9c-4-0.2-8-1.2-11.2-2.9c-7.5-4-7.8-10.7-0.8-14.9s18.9-4.3,26.4-0.3
			c3.2,1.7,5.1,3.9,5.6,6.2c1.6-4.9-1.1-10.2-8-14c-10.9-5.9-28-5.7-38.2,0.4C317.5,249.7,318,259.3,328.9,265.2z"/>
		<path d="M383.9,294.9c6.9,3.7,16.4,5,25,3.9c-4-0.2-8-1.2-11.2-2.9c-7.5-4-7.8-10.7-0.8-14.9s18.9-4.3,26.4-0.3
			c3.2,1.7,5.1,3.9,5.6,6.2c1.6-4.9-1.1-10.2-8-14c-10.9-5.9-28-5.7-38.2,0.4C372.5,279.3,373,289,383.9,294.9z"/>
		<path d="M359,292.3l2.1-4.9l2.1-4.9c1.3-3.1-3.9-5.9-9.3-5l-8.6,1.4l-8.6,1.4c-5.4,0.9-7.1,4.8-2.9,7l6.5,3.5l6.5,3.5
			C350.9,296.5,357.7,295.4,359,292.3z"/>
		<path d="M317,284.9c1.2-0.7,1.1-1.8-0.1-2.5l-36.4-19.6c-1.3-0.7-3.3-0.7-4.5,0c-1.2,0.7-1.1,1.8,0.1,2.5l36.4,19.6
			C313.8,285.6,315.8,285.6,317,284.9z"/>
		<path d="M316.4,292.2l-47-9.9c-1.6-0.3-3.4,0.1-4,1c-0.6,0.9,0.3,2,1.9,2.3l47,9.9c1.6,0.3,3.4-0.1,4-1
			C318.9,293.6,318,292.6,316.4,292.2z"/>
		<path d="M392.6,323.2l-36.4-19.6c-1.3-0.7-3.3-0.7-4.5,0c-1.2,0.7-1.1,1.8,0.1,2.5l36.4,19.6c1.3,0.7,3.3,0.7,4.5,0
			S393.8,323.9,392.6,323.2z"/>
		<path d="M358.5,330.4l-19.7-26.1c-0.7-0.9-2.5-1.3-4.1-1c-1.6,0.4-2.3,1.4-1.7,2.3l19.7,26.1c0.7,0.9,2.5,1.3,4.1,1
			C358.4,332.4,359.2,331.4,358.5,330.4z"/>
	</g>
</g>
<g id="Layer_3" display="none">
</g>
<g id="svg_demo">
</g>
</svg>
