<?xml version="1.0" encoding="utf-8"?>
<!-- Generator: Adobe Illustrator 20.1.0, SVG Export Plug-In . SVG Version: 6.00 Build 0)  -->
<svg version="1.1" xmlns="http://www.w3.org/2000/svg" xmlns:xlink="http://www.w3.org/1999/xlink" x="0px" y="0px" width="243.9px"
	 height="370.4px" viewBox="0 0 243.9 370.4" enable-background="new 0 0 243.9 370.4" xml:space="preserve">
<g id="Layer_1">
	<g>
		<path fill="#40D2FF" d="M47.4,346.1c0-23.4,24.5-23.4,24.5-46.8c0-23.4-24.5-23.4-24.5-46.8c0-23.4,24.5-23.4,24.5-46.8
			c0-23.4-24.5-23.4-24.5-46.8c0-23.4,24.5-23.4,24.5-46.8c0-23.4-24.5-23.4-24.5-46.8c0-23.4,24.5-23.4,24.5-46.8
			c0-4.3-1.1-8-2.7-11.2l31.9,0l38.5,0H37.3c1.7,3.3,2.7,6.9,2.7,11.2c0,23.4-24.5,23.4-24.5,46.8c0,23.4,24.5,23.4,24.5,46.8
			c0,23.4-24.5,23.4-24.5,46.8c0,23.4,24.5,23.4,24.5,46.8c0,23.4-24.5,23.4-24.5,46.8c0,23.4,24.5,23.4,24.5,46.8
			c0,23.4-24.5,23.4-24.5,46.8c0,7.2,1.6,11.9,3.9,15.7l141.9,0l0,0l-110,0C49,358,47.4,353.2,47.4,346.1z"/>
		<polygon fill="#00AEEF" points="161.3,361.7 161.3,361.7 178.8,361.7 178.8,361.7 		"/>
		<polygon fill="#00AEEF" points="193.2,361.7 193.2,361.7 186,361.7 		"/>
		<path fill="#00AEEF" d="M83.2,361.7c-2.4-3.7-3.9-8.5-3.9-15.7c0-23.4,24.5-23.4,24.5-46.8c0-23.4-24.5-23.4-24.5-46.8
			c0-23.4,24.5-23.4,24.5-46.8c0-23.4-24.5-23.4-24.5-46.8c0-23.4,24.5-23.4,24.5-46.8c0-23.4-24.5-23.4-24.5-46.8
			c0-23.4,24.5-23.4,24.5-46.8c0-4.3-1.1-8-2.7-11.2l-31.9,0c1.7,3.3,2.7,6.9,2.7,11.2c0,23.4-24.5,23.4-24.5,46.8
			c0,23.4,24.5,23.4,24.5,46.8c0,23.4-24.5,23.4-24.5,46.8c0,23.4,24.5,23.4,24.5,46.8c0,23.4-24.5,23.4-24.5,46.8
			c0,23.4,24.5,23.4,24.5,46.8c0,23.4-24.5,23.4-24.5,46.8c0,7.2,1.6,11.9,3.9,15.7l110,0l0,0L83.2,361.7z"/>
		<polygon fill="#00AEEF" points="202,361.7 210.7,361.7 210.7,361.7 		"/>
		<polygon fill="#00AEEF" points="228.6,7.2 228.6,7.2 139.6,7.2 155.6,7.2 		"/>
		<polygon fill="#00AEEF" points="133,7.2 155.6,7.2 139.6,7.2 101.1,7.2 		"/>
		<polygon fill="#00AEEF" points="161.3,361.7 161.3,361.7 178.8,361.7 178.8,361.7 		"/>
		<path fill="#40D2FF" d="M115.1,361.7c-2.4-3.7-3.9-8.5-3.9-15.7c0-23.4,24.5-23.4,24.5-46.8c0-23.4-24.5-23.4-24.5-46.8
			c0-23.4,24.5-23.4,24.5-46.8c0-23.4-24.5-23.4-24.5-46.8s24.5-23.4,24.5-46.8c0-23.4-24.5-23.4-24.5-46.8
			c0-23.4,24.5-23.4,24.5-46.8c0-4.3-1.1-8-2.7-11.2h-31.9c1.7,3.3,2.7,6.9,2.7,11.2c0,23.4-24.5,23.4-24.5,46.8
			c0,23.4,24.5,23.4,24.5,46.8c0,23.4-24.5,23.4-24.5,46.8c0,23.4,24.5,23.4,24.5,46.8c0,23.4-24.5,23.4-24.5,46.8
			c0,23.4,24.5,23.4,24.5,46.8c0,23.4-24.5,23.4-24.5,46.8c0,7.2,1.6,11.9,3.9,15.7l78.1,0l0,0H115.1z"/>
		<polygon fill="#00AEEF" points="228.6,7.2 228.6,7.2 155.6,7.2 171.5,7.2 		"/>
		<polygon fill="#00AEEF" points="171.5,7.2 155.6,7.2 133,7.2 164.9,7.2 		"/>
		<polygon fill="#00AEEF" points="161.3,361.7 178.8,361.7 178.8,361.7 161.3,361.7 		"/>
		<path fill="#00AEEF" d="M111.2,65.2c0,23.4,24.5,23.4,24.5,46.8c0,23.4-24.5,23.4-24.5,46.8s24.5,23.4,24.5,46.8
			c0,23.4-24.5,23.4-24.5,46.8c0,23.4,24.5,23.4,24.5,46.8c0,23.4-24.5,23.4-24.5,46.8c0,7.2,1.6,11.9,3.9,15.7h46.2l0,0H147
			c-2.4-3.7-3.9-8.5-3.9-15.7c0-23.4,24.5-23.4,24.5-46.8c0-23.4-24.5-23.4-24.5-46.8c0-23.4,24.5-23.4,24.5-46.8
			c0-23.4-24.5-23.4-24.5-46.8c0-23.4,24.5-23.4,24.5-46.8c0-23.4-24.5-23.4-24.5-46.8c0-23.4,24.5-23.4,24.5-46.8
			c0-4.3-1.1-8-2.7-11.2l-31.9,0c1.7,3.3,2.7,6.9,2.7,11.2C135.7,41.8,111.2,41.8,111.2,65.2z"/>
		<polygon fill="#00AEEF" points="196.7,7.2 228.6,7.2 228.6,7.2 171.5,7.2 178.2,7.2 		"/>
		<polygon fill="#00AEEF" points="171.5,7.2 164.9,7.2 178.2,7.2 		"/>
		<path fill="#40D2FF" d="M199.5,299.2c0-23.4-24.5-23.4-24.5-46.8c0-23.4,24.5-23.4,24.5-46.8c0-23.4-24.5-23.4-24.5-46.8
			c0-23.4,24.5-23.4,24.5-46.8c0-23.4-24.5-23.4-24.5-46.8c0-23.4,24.5-23.4,24.5-46.8c0-4.3-1.1-8-2.7-11.2l-18.6,0
			c1.1,3,1.7,6.6,1.7,11.2c0,23.4-24.5,23.4-24.5,46.8c0,23.4,24.5,23.4,24.5,46.8c0,23.4-24.5,23.4-24.5,46.8
			c0,23.4,24.5,23.4,24.5,46.8c0,23.4-24.5,23.4-24.5,46.8c0,23.4,24.5,23.4,24.5,46.8c0,23.4-29.9,27.1-24.2,49.8
			c1.3,5.1,3.3,9.2,5.6,12.6h17.5c-2.4-3.7-3.9-8.5-3.9-15.7C174.9,322.6,199.5,322.6,199.5,299.2z"/>
		<path fill="#40D2FF" d="M179.9,299.2c0-23.4-24.5-23.4-24.5-46.8c0-23.4,24.5-23.4,24.5-46.8c0-23.4-24.5-23.4-24.5-46.8
			c0-23.4,24.5-23.4,24.5-46.8c0-23.4-24.5-23.4-24.5-46.8c0-23.4,24.5-23.4,24.5-46.8c0-4.6-0.7-8.2-1.7-11.2l-13.3,0
			c1.7,3.3,2.7,6.9,2.7,11.2c0,23.4-24.5,23.4-24.5,46.8c0,23.4,24.5,23.4,24.5,46.8c0,23.4-24.5,23.4-24.5,46.8
			c0,23.4,24.5,23.4,24.5,46.8c0,23.4-24.5,23.4-24.5,46.8c0,23.4,24.5,23.4,24.5,46.8c0,23.4-24.5,23.4-24.5,46.8
			c0,7.2,1.6,11.9,3.9,15.7h14.4c-2.3-3.4-4.3-7.5-5.6-12.6C150,326.4,179.9,322.6,179.9,299.2z"/>
		<polygon fill="#00AEEF" points="193.2,361.7 202,361.7 193.2,361.7 		"/>
		<polygon fill="#00AEEF" points="178.8,361.7 186,361.7 178.8,361.7 		"/>
		<polygon fill="#00AEEF" points="178.8,361.7 178.8,361.7 186,361.7 193.2,361.7 193.2,361.7 		"/>
		<polygon fill="#00AEEF" points="210.7,361.7 193.2,361.7 193.2,361.7 202,361.7 210.7,361.7 		"/>
		<polygon fill="#00AEEF" points="178.8,361.7 193.2,361.7 193.2,361.7 178.8,361.7 		"/>
		<polygon fill="#00AEEF" points="178.8,361.7 178.8,361.7 193.2,361.7 193.2,361.7 		"/>
		<path fill="#00AEEF" d="M231.3,299.2c0-23.4-24.5-23.4-24.5-46.8c0-23.4,24.5-23.4,24.5-46.8c0-23.4-24.5-23.4-24.5-46.8
			c0-23.4,24.5-23.4,24.5-46.8c0-23.4-24.5-23.4-24.5-46.8c0-23.4,24.5-23.4,24.5-46.8c0-4.3-1.1-8-2.7-11.2l-31.9,0l13.3,0
			c1.1,3,1.7,6.6,1.7,11.2c0,23.4-24.5,23.4-24.5,46.8c0,23.4,24.5,23.4,24.5,46.8c0,23.4-24.5,23.4-24.5,46.8
			c0,23.4,24.5,23.4,24.5,46.8c0,23.4-24.5,23.4-24.5,46.8c0,23.4,24.5,23.4,24.5,46.8c0,23.4-29.9,27.1-24.2,49.8
			c1.3,5.1,3.3,9.2,5.6,12.6h17.5c-2.4-3.7-3.9-8.5-3.9-15.7C206.8,322.6,231.3,322.6,231.3,299.2z"/>
		<path fill="#00AEEF" d="M211.8,299.2c0-23.4-24.5-23.4-24.5-46.8c0-23.4,24.5-23.4,24.5-46.8c0-23.4-24.5-23.4-24.5-46.8
			c0-23.4,24.5-23.4,24.5-46.8c0-23.4-24.5-23.4-24.5-46.8c0-23.4,24.5-23.4,24.5-46.8c0-4.6-0.7-8.2-1.7-11.2l-13.3,0
			c1.7,3.3,2.7,6.9,2.7,11.2c0,23.4-24.5,23.4-24.5,46.8c0,23.4,24.5,23.4,24.5,46.8c0,23.4-24.5,23.4-24.5,46.8
			c0,23.4,24.5,23.4,24.5,46.8c0,23.4-24.5,23.4-24.5,46.8c0,23.4,24.5,23.4,24.5,46.8c0,23.4-24.5,23.4-24.5,46.8
			c0,7.2,1.6,11.9,3.9,15.7l14.4,0c-2.3-3.4-4.3-7.5-5.6-12.6C181.9,326.4,211.8,322.6,211.8,299.2z"/>
	</g>
</g>
<g id="Layer_3" display="none">
</g>
<g id="svg_demo">
</g>
</svg>
