<?xml version="1.0" encoding="utf-8"?>
<!-- Generator: Adobe Illustrator 20.1.0, SVG Export Plug-In . SVG Version: 6.00 Build 0)  -->
<svg version="1.1" xmlns="http://www.w3.org/2000/svg" xmlns:xlink="http://www.w3.org/1999/xlink" x="0px" y="0px" width="865.3px"
	 height="529.5px" viewBox="0 0 865.3 529.5" enable-background="new 0 0 865.3 529.5" xml:space="preserve">
<pattern  x="-7030.1" y="-4179.7" width="28.8" height="28.8" patternUnits="userSpaceOnUse" id="_x31_0_dpi_70_x25_" viewBox="5 -33.8 28.8 28.8" overflow="visible">
	<g>
		<rect x="5" y="-33.8" fill="none" width="28.8" height="28.8"/>
		<g>
			<circle fill="#F7941D" cx="33.8" cy="-5" r="5"/>
			<circle fill="#F7941D" cx="19.4" cy="-5" r="5"/>
			<circle fill="#F7941D" cx="33.8" cy="-19.4" r="5"/>
			<circle fill="#F7941D" cx="19.4" cy="-19.4" r="5"/>
			<circle fill="#F7941D" cx="12.2" cy="-12.2" r="5"/>
			<circle fill="#F7941D" cx="26.6" cy="-12.2" r="5"/>
			<circle fill="#F7941D" cx="12.2" cy="-26.6" r="5"/>
			<circle fill="#F7941D" cx="26.6" cy="-26.6" r="5"/>
		</g>
		<g>
			<circle fill="#F7941D" cx="5" cy="-5" r="5"/>
			<circle fill="#F7941D" cx="5" cy="-19.4" r="5"/>
		</g>
		<g>
			<circle fill="#F7941D" cx="33.8" cy="-33.8" r="5"/>
			<circle fill="#F7941D" cx="19.4" cy="-33.8" r="5"/>
		</g>
		<g>
			<circle fill="#F7941D" cx="5" cy="-33.8" r="5"/>
		</g>
	</g>
</pattern>
<g id="Layer_1">
	
		<polygon fill="#FFB900" stroke="#231F20" stroke-width="4" stroke-linecap="round" stroke-linejoin="round" stroke-miterlimit="10" points="
		481.4,22.7 780,195.1 362.7,436 64.1,263.7 	"/>
	<pattern  id="SVGID_1_" xlink:href="#_x31_0_dpi_70_x25_" patternTransform="matrix(2.6559 0 0 2.6559 -1389.7407 4876.6333)">
	</pattern>
	<polygon fill="url(#SVGID_1_)" points="481,83.1 692.4,205.1 362.7,395.4 153.6,272.1 	"/>
	
		<polygon fill="#00AEEF" stroke="#231F20" stroke-width="4" stroke-linecap="round" stroke-linejoin="round" stroke-miterlimit="10" points="
		64.1,334.4 64.1,263.7 362.7,436 362.7,506.8 	"/>
	
		<polygon fill="#00AEEF" stroke="#231F20" stroke-width="4" stroke-linecap="round" stroke-linejoin="round" stroke-miterlimit="10" points="
		782.3,264.6 780,195.1 362.7,436 362.7,506.8 	"/>
</g>
<g id="Layer_3" display="none">
</g>
<g id="svg_demo">
</g>
</svg>
