<svg xmlns="http://www.w3.org/2000/svg" viewBox="0 0 64.69 73.93"><defs><style>.cls-1{fill:#fff;}</style></defs><title>hand</title><g id="Layer_2" data-name="Layer 2"><g id="Layer_1-2" data-name="Layer 1"><g id="Gfe427"><path d="M30.89,0l.83.22a6.89,6.89,0,0,1,5.22,6.64c0,3.59,0,7.17,0,10.76,0,.26,0,.52,0,.87.77,0,1.48,0,2.2,0a6.79,6.79,0,0,1,6.42,4.1.8.8,0,0,0,.86.53,21.78,21.78,0,0,1,3.17.11,6.57,6.57,0,0,1,5.18,3.91.9.9,0,0,0,1,.6,21,21,0,0,1,3.24.13,6.75,6.75,0,0,1,5.67,6.53q.08,9.56,0,19.13A11.87,11.87,0,0,1,62.56,60c-2.17,3.29-4.34,6.59-6.57,9.84a9,9,0,0,1-7.71,4.09c-7.56,0-15.11,0-22.67,0a7,7,0,0,1-7.17-6.8,4.89,4.89,0,0,0-.81-2.26Q9.92,53.18,2.14,41.55A12.94,12.94,0,0,1,0,35.41a7,7,0,0,1,8.75-7.47,11.1,11.1,0,0,1,5.73,3.15c1.25,1.3,2.53,2.57,4,3.81q0-.48,0-1,0-13.1,0-26.21c0-4.26,1.82-6.61,5.94-7.65A.45.45,0,0,0,24.54,0Zm6.05,23.1c0,.4,0,.71,0,1,0,1.95,0,3.9,0,5.85a2.3,2.3,0,1,1-4.6,0c0-.22,0-.43,0-.65q0-11,0-22c0-1.81-.89-2.68-2.72-2.68H25.87c-1.94,0-2.79.84-2.79,2.75q0,11.12,0,22.23,0,7.11,0,14.22a2.3,2.3,0,1,1-4.6,0c0-.55,0-1.11,0-1.66a1.8,1.8,0,0,0-.41-1c-2.29-2.34-4.62-4.63-6.92-7a6.47,6.47,0,0,0-3.31-1.78,2.45,2.45,0,0,0-3.17,3,9.79,9.79,0,0,0,1.54,3.92q7.74,11.57,15.45,23.16a8.65,8.65,0,0,1,1.42,4.18c.14,1.81.94,2.6,2.74,2.6h22.3a4.74,4.74,0,0,0,4.19-2.23c2.11-3.16,4.23-6.31,6.31-9.49a6.77,6.77,0,0,0,.91-1.87,11.72,11.72,0,0,0,.51-3c0-6,0-11.93,0-17.9a2.29,2.29,0,0,0-1.93-2.49,25.3,25.3,0,0,0-2.71,0c0,.32,0,.58,0,.84,0,2,0,3.95,0,5.92A2.31,2.31,0,0,1,54.59,41a2.16,2.16,0,0,1-2.43.32,2.22,2.22,0,0,1-1.34-2.13c0-3,0-6,0-9a2.19,2.19,0,0,0-1.7-2.36,18.91,18.91,0,0,0-2.93,0c0,2.25,0,4.46,0,6.67a2.3,2.3,0,1,1-4.6.08c0-3,0-6,0-9a2.31,2.31,0,0,0-2.1-2.42C38.67,23.06,37.86,23.1,36.94,23.1Z"/><path class="cls-1" d="M36.94,23.1c.91,0,1.73,0,2.54,0a2.31,2.31,0,0,1,2.1,2.42c0,3,0,6,0,9a2.3,2.3,0,1,0,4.6-.08c0-2.21,0-4.43,0-6.67a18.91,18.91,0,0,1,2.93,0,2.19,2.19,0,0,1,1.7,2.36c0,3,0,6,0,9a2.22,2.22,0,0,0,1.34,2.13A2.16,2.16,0,0,0,54.59,41a2.31,2.31,0,0,0,.84-1.91c0-2,0-3.95,0-5.92,0-.26,0-.52,0-.84a25.3,25.3,0,0,1,2.71,0,2.29,2.29,0,0,1,1.93,2.49c0,6,0,11.93,0,17.9a11.72,11.72,0,0,1-.51,3,6.77,6.77,0,0,1-.91,1.87c-2.09,3.17-4.21,6.33-6.31,9.49a4.74,4.74,0,0,1-4.19,2.23H25.81c-1.8,0-2.6-.79-2.74-2.6a8.65,8.65,0,0,0-1.42-4.18Q13.92,50.95,6.19,39.37a9.79,9.79,0,0,1-1.54-3.92,2.45,2.45,0,0,1,3.17-3,6.47,6.47,0,0,1,3.31,1.78c2.3,2.32,4.63,4.62,6.92,7a1.8,1.8,0,0,1,.41,1c.07.55,0,1.1,0,1.66a2.3,2.3,0,1,0,4.6,0q0-7.11,0-14.22,0-11.12,0-22.23c0-1.92.85-2.75,2.79-2.75h3.75c1.83,0,2.72.88,2.72,2.68q0,11,0,22c0,.22,0,.43,0,.65a2.3,2.3,0,1,0,4.6,0c0-1.95,0-3.9,0-5.85C36.94,23.81,36.94,23.5,36.94,23.1Z"/></g></g></g></svg>