<svg xmlns="http://www.w3.org/2000/svg" xmlns:xlink="http://www.w3.org/1999/xlink" width="907.04" height="384.04" viewBox="0 0 907.04 384.04"><defs><pattern id="BLUE" data-name="BLUE" width="28.8" height="28.8" patternTransform="translate(34.62 -113.55)" patternUnits="userSpaceOnUse" viewBox="0 0 28.8 28.8"><rect width="28.8" height="28.8" fill="none"/><circle cx="28.8" cy="28.8" r="2.88" fill="#00aeef"/><circle cx="14.4" cy="28.8" r="2.88" fill="#00aeef"/><circle cx="28.8" cy="14.4" r="2.88" fill="#00aeef"/><circle cx="14.4" cy="14.4" r="2.88" fill="#00aeef"/><circle cx="7.2" cy="21.6" r="2.88" fill="#00aeef"/><circle cx="21.6" cy="21.6" r="2.88" fill="#00aeef"/><circle cx="7.2" cy="7.2" r="2.88" fill="#00aeef"/><circle cx="21.6" cy="7.2" r="2.88" fill="#00aeef"/><circle cy="28.8" r="2.88" fill="#00aeef"/><circle cy="14.4" r="2.88" fill="#00aeef"/><circle cx="28.8" r="2.88" fill="#00aeef"/><circle cx="14.4" r="2.88" fill="#00aeef"/><circle r="2.88" fill="#00aeef"/></pattern><pattern id="_10_dpi_50_" data-name="10 dpi 50%" width="28.8" height="28.8" patternTransform="translate(28.35 -118.7)" patternUnits="userSpaceOnUse" viewBox="0 0 28.8 28.8"><rect width="28.8" height="28.8" fill="none"/><circle cx="28.8" cy="28.8" r="3.6" fill="#231f20"/><circle cx="14.4" cy="28.8" r="3.6" fill="#231f20"/><circle cx="28.8" cy="14.4" r="3.6" fill="#231f20"/><circle cx="14.4" cy="14.4" r="3.6" fill="#231f20"/><circle cx="7.2" cy="21.6" r="3.6" fill="#231f20"/><circle cx="21.6" cy="21.6" r="3.6" fill="#231f20"/><circle cx="7.2" cy="7.2" r="3.6" fill="#231f20"/><circle cx="21.6" cy="7.2" r="3.6" fill="#231f20"/><circle cy="28.8" r="3.6" fill="#231f20"/><circle cy="14.4" r="3.6" fill="#231f20"/><circle cx="28.8" r="3.6" fill="#231f20"/><circle cx="14.4" r="3.6" fill="#231f20"/><circle r="3.6" fill="#231f20"/></pattern><pattern id="BLUE-3" data-name="BLUE" width="28.8" height="28.8" patternTransform="translate(92.25 -361.24)" patternUnits="userSpaceOnUse" viewBox="0 0 28.8 28.8"><rect width="28.8" height="28.8" fill="none"/><circle cx="28.8" cy="28.8" r="2.88" fill="#00aeef"/><circle cx="14.4" cy="28.8" r="2.88" fill="#00aeef"/><circle cx="28.8" cy="14.4" r="2.88" fill="#00aeef"/><circle cx="14.4" cy="14.4" r="2.88" fill="#00aeef"/><circle cx="7.2" cy="21.6" r="2.88" fill="#00aeef"/><circle cx="21.6" cy="21.6" r="2.88" fill="#00aeef"/><circle cx="7.2" cy="7.2" r="2.88" fill="#00aeef"/><circle cx="21.6" cy="7.2" r="2.88" fill="#00aeef"/><circle cy="28.8" r="2.88" fill="#00aeef"/><circle cy="14.4" r="2.88" fill="#00aeef"/><circle cx="28.8" r="2.88" fill="#00aeef"/><circle cx="14.4" r="2.88" fill="#00aeef"/><circle r="2.88" fill="#00aeef"/></pattern></defs><title>Ink</title><g id="Layer_2" data-name="Layer 2"><g id="Layer_1-2" data-name="Layer 1"><rect x="10.7" y="5.41" width="896.33" height="320.29" rx="12" ry="12" fill="url(#BLUE)"/><rect width="896.33" height="320.29" rx="12" ry="12" fill="url(#_10_dpi_50_)"/><path d="M868.84,15.17H40a12,12,0,0,0-12,12V163.83a12,12,0,0,0,12,12h419v82.5a12,12,0,0,0,12,12H504L773.76,382.05,814,270.33h54.82a12,12,0,0,0,12-12V27.17A12,12,0,0,0,868.84,15.17Z" fill="#fff" stroke="#000" stroke-miterlimit="10" stroke-width="3"/><rect x="36.22" y="22.65" width="411.94" height="60.63" rx="12" ry="12" fill="url(#BLUE-3)"/><rect x="691.29" y="70.11" width="123.43" height="156.02" fill="#00aeef" stroke="#231f20" stroke-miterlimit="10"/><rect x="529.99" y="70.11" width="123.43" height="156.02" fill="#ffb900" stroke="#231f20" stroke-miterlimit="10"/><text transform="translate(711.73 164.75)" font-size="58.39" fill="#ffb900" font-family="MissionGothic-Bold, Mission Gothic" font-weight="700">INK</text><text transform="translate(550.42 164.75)" font-size="58.39" fill="#00aeef" font-family="MissionGothic-Bold, Mission Gothic" font-weight="700">INK</text><rect x="691.29" y="70.11" width="123.43" height="156.02" fill="#00aeef" stroke="#231f20" stroke-miterlimit="10" stroke-width="5"/><rect x="529.99" y="70.11" width="123.43" height="156.02" fill="#ffb900" stroke="#231f20" stroke-miterlimit="10" stroke-width="5"/><rect x="46.68" y="33.97" width="327.81" height="38" rx="12" ry="12" fill="#f9f9f9"/></g></g></svg>