<svg xmlns="http://www.w3.org/2000/svg" xmlns:xlink="http://www.w3.org/1999/xlink" width="907.04" height="384.04" viewBox="0 0 907.04 384.04"><defs><style>.cls-1{fill:none;}.cls-2{fill:#231f20;}.cls-10,.cls-3,.cls-8{fill:#00aeef;}.cls-4{fill:url(#BLUE);}.cls-5{fill:url(#_10_dpi_50_);}.cls-6{fill:#fff;stroke:#000;stroke-width:3px;}.cls-10,.cls-11,.cls-6,.cls-8,.cls-9{stroke-miterlimit:10;}.cls-7{fill:url(#BLUE-3);}.cls-10,.cls-11,.cls-8,.cls-9{stroke:#231f20;}.cls-11,.cls-12,.cls-9{fill:#ffb900;}.cls-10,.cls-11{stroke-width:5px;}.cls-13{fill:#f9f9f9;}</style><pattern id="BLUE" data-name="BLUE" width="28.8" height="28.8" patternTransform="translate(34.62 -113.55)" patternUnits="userSpaceOnUse" viewBox="0 0 28.8 28.8"><rect class="cls-1" width="28.8" height="28.8"/><circle class="cls-3" cx="28.8" cy="28.8" r="2.88"/><circle class="cls-3" cx="14.4" cy="28.8" r="2.88"/><circle class="cls-3" cx="28.8" cy="14.4" r="2.88"/><circle class="cls-3" cx="14.4" cy="14.4" r="2.88"/><circle class="cls-3" cx="7.2" cy="21.6" r="2.88"/><circle class="cls-3" cx="21.6" cy="21.6" r="2.88"/><circle class="cls-3" cx="7.2" cy="7.2" r="2.88"/><circle class="cls-3" cx="21.6" cy="7.2" r="2.88"/><circle class="cls-3" cy="28.8" r="2.88"/><circle class="cls-3" cy="14.4" r="2.88"/><circle class="cls-3" cx="28.8" r="2.88"/><circle class="cls-3" cx="14.4" r="2.88"/><circle class="cls-3" r="2.88"/></pattern><pattern id="_10_dpi_50_" data-name="10 dpi 50%" width="28.8" height="28.8" patternTransform="translate(28.35 -118.7)" patternUnits="userSpaceOnUse" viewBox="0 0 28.8 28.8"><rect class="cls-1" width="28.8" height="28.8"/><circle class="cls-2" cx="28.8" cy="28.8" r="3.6"/><circle class="cls-2" cx="14.4" cy="28.8" r="3.6"/><circle class="cls-2" cx="28.8" cy="14.4" r="3.6"/><circle class="cls-2" cx="14.4" cy="14.4" r="3.6"/><circle class="cls-2" cx="7.2" cy="21.6" r="3.6"/><circle class="cls-2" cx="21.6" cy="21.6" r="3.6"/><circle class="cls-2" cx="7.2" cy="7.2" r="3.6"/><circle class="cls-2" cx="21.6" cy="7.2" r="3.6"/><circle class="cls-2" cy="28.8" r="3.6"/><circle class="cls-2" cy="14.4" r="3.6"/><circle class="cls-2" cx="28.8" r="3.6"/><circle class="cls-2" cx="14.4" r="3.6"/><circle class="cls-2" r="3.6"/></pattern><pattern id="BLUE-3" data-name="BLUE" width="28.8" height="28.8" patternTransform="translate(92.25 -361.24)" patternUnits="userSpaceOnUse" viewBox="0 0 28.8 28.8"><rect class="cls-1" width="28.8" height="28.8"/><circle class="cls-3" cx="28.8" cy="28.8" r="2.88"/><circle class="cls-3" cx="14.4" cy="28.8" r="2.88"/><circle class="cls-3" cx="28.8" cy="14.4" r="2.88"/><circle class="cls-3" cx="14.4" cy="14.4" r="2.88"/><circle class="cls-3" cx="7.2" cy="21.6" r="2.88"/><circle class="cls-3" cx="21.6" cy="21.6" r="2.88"/><circle class="cls-3" cx="7.2" cy="7.2" r="2.88"/><circle class="cls-3" cx="21.6" cy="7.2" r="2.88"/><circle class="cls-3" cy="28.8" r="2.88"/><circle class="cls-3" cy="14.4" r="2.88"/><circle class="cls-3" cx="28.8" r="2.88"/><circle class="cls-3" cx="14.4" r="2.88"/><circle class="cls-3" r="2.88"/></pattern></defs><title>Ink2</title><g id="Layer_2" data-name="Layer 2"><g id="Layer_1-2" data-name="Layer 1"><rect class="cls-4" x="10.7" y="5.41" width="896.33" height="320.29" rx="12" ry="12"/><rect class="cls-5" width="896.33" height="320.29" rx="12" ry="12"/><path class="cls-6" d="M868.84,15.17H40a12,12,0,0,0-12,12V163.83a12,12,0,0,0,12,12h419v82.5a12,12,0,0,0,12,12H504L773.76,382.05,814,270.33h54.82a12,12,0,0,0,12-12V27.17A12,12,0,0,0,868.84,15.17Z"/><rect class="cls-7" x="36.22" y="22.65" width="411.94" height="60.63" rx="12" ry="12"/><rect class="cls-8" x="691.29" y="70.11" width="123.43" height="156.02"/><rect class="cls-9" x="529.99" y="70.11" width="123.43" height="156.02"/><rect class="cls-10" x="691.29" y="70.11" width="123.43" height="156.02"/><rect class="cls-11" x="529.99" y="70.11" width="123.43" height="156.02"/><path class="cls-12" d="M716.4,164.75V123.88H724v40.88Z"/><path class="cls-12" d="M751.61,164.75,741.15,141.8c-.47-1.11-1-2.75-1-2.75H740s.06,1.75.06,3v22.66h-6.77V123.88h7.24l10.28,22.37a25.91,25.91,0,0,1,1,2.75H752c0-.29-.06-2-.06-3V123.88h6.77v40.88Z"/><path class="cls-12" d="M784.95,164.75l-6.66-17h-.23s-1.05,2-2.45,4.15v12.85H768V123.88h7.59v15.42h.12s.76-1.69,1.34-2.69l7.47-12.73h8.76L782.9,140.28l10.22,24.47Z"/><path class="cls-3" d="M555.1,164.75V123.87h7.59v40.88Z"/><path class="cls-3" d="M590.31,164.75,579.85,141.8c-.47-1.11-1-2.75-1-2.75h-.12s.06,1.75.06,3v22.66H572V123.87h7.24l10.28,22.37a25.82,25.82,0,0,1,1,2.75h.12c0-.29-.06-2-.06-3V123.87h6.77v40.88Z"/><path class="cls-3" d="M623.65,164.75l-6.66-17h-.23s-1.05,2-2.45,4.15v12.85h-7.59V123.87h7.59v15.42h.12s.76-1.69,1.34-2.69l7.47-12.73H632L621.6,140.28l10.22,24.47Z"/><rect class="cls-13" x="46.68" y="33.97" width="327.81" height="38" rx="12" ry="12"/></g></g></svg>