<?xml version="1.0" encoding="utf-8"?>
<!-- Generator: Adobe Illustrator 20.1.0, SVG Export Plug-In . SVG Version: 6.00 Build 0)  -->
<svg version="1.1" xmlns="http://www.w3.org/2000/svg" xmlns:xlink="http://www.w3.org/1999/xlink" x="0px" y="0px" width="843.6px"
	 height="587.7px" viewBox="0 0 843.6 587.7" enable-background="new 0 0 843.6 587.7" xml:space="preserve">
<pattern  x="654" y="-6073.1" width="28.8" height="28.8" patternUnits="userSpaceOnUse" id="BLUE" viewBox="2.9 -31.7 28.8 28.8" overflow="visible">
	<g>
		<rect x="2.9" y="-31.7" fill="none" width="28.8" height="28.8"/>
		<g>
			<circle fill="#00AEEF" cx="31.7" cy="-2.9" r="2.9"/>
			<circle fill="#00AEEF" cx="17.3" cy="-2.9" r="2.9"/>
			<circle fill="#00AEEF" cx="31.7" cy="-17.3" r="2.9"/>
			<circle fill="#00AEEF" cx="17.3" cy="-17.3" r="2.9"/>
			<circle fill="#00AEEF" cx="10.1" cy="-10.1" r="2.9"/>
			<circle fill="#00AEEF" cx="24.5" cy="-10.1" r="2.9"/>
			<circle fill="#00AEEF" cx="10.1" cy="-24.5" r="2.9"/>
			<circle fill="#00AEEF" cx="24.5" cy="-24.5" r="2.9"/>
		</g>
		<g>
			<circle fill="#00AEEF" cx="2.9" cy="-2.9" r="2.9"/>
			<circle fill="#00AEEF" cx="2.9" cy="-17.3" r="2.9"/>
		</g>
		<g>
			<circle fill="#00AEEF" cx="31.7" cy="-31.7" r="2.9"/>
			<circle fill="#00AEEF" cx="17.3" cy="-31.7" r="2.9"/>
		</g>
		<g>
			<circle fill="#00AEEF" cx="2.9" cy="-31.7" r="2.9"/>
		</g>
	</g>
</pattern>
<g id="Layer_1">
	<pattern  id="SVGID_1_" xlink:href="#BLUE" patternTransform="matrix(1 0 0 1 -82.9858 47.6982)">
	</pattern>
	<path fill="url(#SVGID_1_)" d="M831.6,587.7H9.7c-6.6,0-12-5.4-12-12V12c0-6.6,5.4-12,12-12h822c6.6,0,12,5.4,12,12v563.7
		C843.6,582.3,838.2,587.7,831.6,587.7z"/>
	<path fill="#FFFFFF" d="M443.5,565.7H183.6c-6.6,0-12-5.4-12-12V309.6c0-6.6,5.4-12,12-12h503.9c6.6,0,12,5.4,12,12v0
		C699.5,450.4,584.3,565.7,443.5,565.7z"/>
	<path fill="#FFFFFF" d="M651.9,361.2H156.5c-96.3,0-175.2-78.8-175.2-175.2v0c0-96.3,78.8-175.2,175.2-175.2h495.4
		c96.3,0,175.2,78.8,175.2,175.2v0C827,282.4,748.2,361.2,651.9,361.2z"/>
	<g>
		<path fill="#00AEEF" d="M72.1,137.7c-1.9,3.4-4.5,6.9-9.9,6.9c-6.3,0-9.2-5.2-9.2-12.1c0-13.4,6.8-24.6,16.3-24.6
			c6.3,0,10.2,4.4,10.2,10.1c0,0.7-0.1,1.5-0.2,2.3l-2.9,13.9c-0.3,1.1-0.4,2-0.4,2.9c0,2.3,1.3,3.2,3.8,3.2c0.4,0,0.8,0,1.3-0.1
			c-0.3,1.4-0.5,2.7-0.9,4c-6.1,0-8.2-2.2-8-6.6H72.1z M75.2,120.6c0.1-0.9,0.2-1.7,0.2-2.4c0-3.6-2.3-6.5-6.3-6.5
			c-8.5,0-12,13.2-12,20.2c0,4.8,1.3,8.9,6,8.9c6.4,0,9.7-8.9,11.4-17.3L75.2,120.6z"/>
		<path fill="#00AEEF" d="M113.7,95.1h4.1l-2.7,12.9c-0.5,2.5-1.4,5.7-1.4,5.7h0.1c1.9-3.1,4.8-5.7,9.3-5.7c5.7,0,9.1,3.8,9.1,12.1
			c0,12.6-6.5,24.5-16.3,24.5c-6,0-9.8-3.9-9.8-11.2c0-1.8,0.3-3.8,0.7-6L113.7,95.1z M110.7,128.4c-0.4,1.7-0.5,3.2-0.5,4.6
			c0,5,2.3,7.8,6.2,7.8c7.2,0,11.8-11.4,11.8-20.4c0-5.4-1.7-8.7-6.1-8.7c-5.8,0-9.1,6-10.2,11.4L110.7,128.4z"/>
		<path fill="#00AEEF" d="M135.6,143.9l5.8-27.3c0.8-3.7,1-6,1-7.4v-0.7h3.8c0,0,0,0.3,0,0.8c0,1.1-0.2,2.6-0.5,4.4h0.1
			c1.9-3.2,5-5.8,9.5-5.8c0.9,0,1.7,0.1,2.5,0.3c-0.4,1.3-0.7,2.6-1.1,4c-0.6-0.2-1.4-0.3-2.3-0.3c-6.3,0-9.3,5.8-10.6,11.9
			l-4.2,20.1H135.6z"/>
		<path fill="#00AEEF" d="M166.7,144c0,0-0.5,0.1-1.6,0.1c-4.5,0-6.8-2.5-6.8-6.6c0-1.1,0.2-2.3,0.5-3.6l3.8-18
			c0.4-1.9,0.9-3.5,0.9-5.8v-1.5h4c0,0,0,0.1,0,0.5c0.1,1.1-0.2,3.9-1.1,8.6l-3.4,16.5c-0.2,1.1-0.4,1.9-0.4,2.7
			c0,2.4,1.1,3.4,3.5,3.4c0.5,0,0.9-0.1,1.5-0.1L166.7,144z M167.5,102.4c-1.5,0-2.5-1.1-2.5-2.5s1.1-2.6,2.5-2.6
			c1.4,0,2.6,1.1,2.6,2.6S168.9,102.4,167.5,102.4z"/>
		<path fill="#00AEEF" d="M199.2,138.6c-3.3,3.6-7.3,6-12.1,6c-7.9,0-12.1-6.1-12.1-14.5c0-10.1,6-22.1,16.3-22.1
			c7.6,0,11.1,6.1,11.1,13.7c0,1.1-0.1,2.3-0.3,3.6l-0.3,2.4h-22.6c-0.1,0.9-0.1,1.7-0.1,2.4c0,7.1,3.3,10.8,8.3,10.8
			c3.6,0,6.8-2.3,9-5.1L199.2,138.6z M198.3,124.4c0.1-0.8,0.2-1.7,0.2-2.5c0-6.3-2.7-10.3-7.4-10.3c-5.7,0-9.8,6-11.3,12.9H198.3z"
			/>
		<path fill="#00AEEF" d="M207.5,143.9l6.7-31.7h-5.4l0.8-3.6h5.4l0.6-2.9c1.5-7.4,4-11.7,10.2-11.7c2.5,0,4.4,0.7,6,1.7l-2,3.4
			c-1-0.9-2.5-1.5-3.8-1.5c-3,0-5.2,2.1-5.9,5.9l-1,5h7.2l-0.8,3.6h-7.2l-6.7,31.7H207.5z"/>
		<path fill="#00AEEF" d="M263.7,137.2h-0.1c-1.9,3.3-4.9,6-9.3,6c-6.3,0-9.2-5.2-9.2-12.1c0-9.6,5.1-23.1,15.7-23.1
			c4.4,0,7.1,2.4,8,6h0.1c0.5-2.9,1.8-5.4,1.8-5.4h3.9c-0.3,0.4-1.3,2.5-2,5.8c-2.1,9.6-4.2,19.3-6.2,28.9
			c-2.1,10-6.6,14.8-14.3,14.8c-5,0-8.6-2.1-10.7-5.1l3.1-2.8c1.8,2.5,4.6,4.2,8,4.2c5.2,0,8-4.3,9.7-11.1L263.7,137.2z
			 M267.1,120.7c0.1-0.7,0.3-1.4,0.3-2.2c0-3.8-2.3-6.8-6.5-6.8c-8.5,0-11.7,12.4-11.7,19.2c0,4.6,1.6,8.5,6.3,8.5
			c4.8,0,8.8-4.7,11.1-16.3L267.1,120.7z"/>
		<path fill="#00AEEF" d="M305,144.2c-6.6,0-7.8-2.4-8-6.2h-0.1c-1.9,3.5-4.6,6.6-9.4,6.6c-6.4,0-9.3-4.2-9.3-9.8
			c0-1.3,0.2-2.8,0.5-4.2l4.6-22h4.2l-4.8,22.3c-0.3,1.1-0.3,2.3-0.3,3.4c0,3.5,1.7,6.6,6.2,6.6c5.5,0,8.6-6,9.7-11.4l4.4-20.9h4.1
			l-5.4,25.6c-0.2,1.1-0.4,2-0.4,2.8c0,2.3,1.2,3.3,3.8,3.3c0.4,0,0.8-0.1,1.3-0.1L305,144.2z"/>
		<path fill="#00AEEF" d="M321.1,144c0,0-0.5,0.1-1.6,0.1c-4.5,0-6.8-2.5-6.8-6.6c0-1.1,0.2-2.3,0.5-3.6l3.8-18
			c0.4-1.9,0.9-3.5,0.9-5.8v-1.5h4c0,0,0,0.1,0,0.5c0.1,1.1-0.2,3.9-1.1,8.6l-3.4,16.5c-0.2,1.1-0.4,1.9-0.4,2.7
			c0,2.4,1.1,3.4,3.5,3.4c0.5,0,0.9-0.1,1.5-0.1L321.1,144z M321.9,102.4c-1.5,0-2.5-1.1-2.5-2.5s1.1-2.6,2.5-2.6
			c1.4,0,2.6,1.1,2.6,2.6S323.3,102.4,321.9,102.4z"/>
		<path fill="#00AEEF" d="M356.7,144.3c-5.6,0-8-1.8-8-6.6c-1.9,3.7-5,6.9-10,6.9c-6.4,0-9.2-5.5-9.2-12.3c0-9.7,5.3-24.3,15.9-24.3
			c4.5,0,6.8,2.4,7.8,5.7h0.1c0,0,0.5-3.3,0.9-5.4l2.8-13.3h4.2l-8.3,39.2c-0.2,1.1-0.4,1.9-0.4,2.7c0,2.4,1.1,3.4,3.5,3.4
			c0.5,0,0.9-0.1,1.5-0.1L356.7,144.3z M349.8,129.7c0.9-3.1,1.9-7.3,1.9-10.8c0-3.9-1.9-7.2-6.2-7.2c-5.4,0-9.4,5.2-11.4,14.6
			c-0.4,1.9-0.7,4-0.7,5.9c0,4.6,1.5,8.6,6,8.6C343.8,140.9,347.9,136.7,349.8,129.7z"/>
		<path fill="#00AEEF" d="M388.7,138.6c-3.3,3.6-7.3,6-12.1,6c-7.9,0-12.1-6.1-12.1-14.5c0-10.1,6-22.1,16.3-22.1
			c7.6,0,11.1,6.1,11.1,13.7c0,1.1-0.1,2.3-0.3,3.6l-0.3,2.4h-22.6c-0.1,0.9-0.1,1.7-0.1,2.4c0,7.1,3.3,10.8,8.3,10.8
			c3.6,0,6.8-2.3,9-5.1L388.7,138.6z M387.7,124.4c0.1-0.8,0.2-1.7,0.2-2.5c0-6.3-2.7-10.3-7.4-10.3c-5.7,0-9.8,6-11.3,12.9H387.7z"
			/>
		<path fill="#00AEEF" d="M428.4,143.9c-1.3,0.5-2.8,0.7-4.4,0.7c-5.5,0-8.4-3.4-8.4-8.3c0-1.3,0.2-2.5,0.5-3.8l4.3-20.3h-4.7
			l0.8-3.6h4.6l1.9-8.4h4l-1.7,8.4h7.6l-0.7,3.6h-7.7l-4.4,20.8c-0.2,0.9-0.3,1.8-0.3,2.7c0,3.2,1.5,5.2,4.8,5.2
			c1.3,0,2.3-0.3,3.4-0.8L428.4,143.9z"/>
		<path fill="#00AEEF" d="M435.4,130.6c0-11,5.7-22.6,16.3-22.6c7.6,0,11.1,6.2,11.1,13.9c0,11-5.6,22.7-16.3,22.7
			C438.9,144.6,435.4,138.3,435.4,130.6z M458.8,122.1c0-6.5-2.7-10.4-7.4-10.4c-7.2,0-12,9.6-12,18.7c0,6.5,2.8,10.4,7.4,10.4
			C453.9,140.9,458.8,131.3,458.8,122.1z"/>
	</g>
	<g>
		<path fill="#00AEEF" d="M62.8,226.2c1.7,5.4,6.3,9,11.4,9c5.3,0,9.4-2.5,9.4-8c0-11.7-29.6-11.6-29.6-33.4
			c0-11.1,8.1-19.6,19.8-19.6s18.3,6.5,21.8,15.5L84,196.9c-1.7-5.9-4.8-9.8-10.2-9.8c-3.8,0-6.5,2.4-6.5,6.4
			c0,12.7,29.6,10.1,29.6,33.8c0,12.7-9.4,20.8-22.8,20.8c-11.1,0-19.2-5.7-22.8-14.1L62.8,226.2z"/>
		<path fill="#00AEEF" d="M151.3,233.9c-3.6,8.4-10.2,14.1-21.3,14.1c-19.8,0-25.2-18.2-25.2-36.9s5.4-36.9,25.2-36.9
			c11.7,0,18.3,6.5,21.8,15.5l-11.6,7.2c-1.7-5.9-4.8-9.8-10.2-9.8c-9.1,0-11.9,11.2-11.9,24.1c0,12.9,2.8,24.1,11.9,24.1
			c5.1,0,8.2-3.6,9.9-9L151.3,233.9z"/>
		<path fill="#00AEEF" d="M192,247l-8.9-22.1c-1,0.1-2,0.1-3.1,0.1h-4.6v22h-13.3v-71.7H182c16.3,0,23.1,12.1,23.1,24.6
			c0,7.9-3.1,15.8-9.6,20.6l10.8,26.5H192z M180.5,212.1c7.6,0,11.4-5.1,11.4-12.1c0-7.3-3.9-12.1-11.5-12.1h-4.9v24.2H180.5z"/>
		<path fill="#00AEEF" d="M219.5,247v-71.7h38.1V188h-24.8v18.3h20.9v12.8h-20.9v15h24.8V247H219.5z"/>
		<path fill="#00AEEF" d="M273.1,247v-71.7h38.1V188h-24.8v18.3h20.9v12.8h-20.9v15h24.8V247H273.1z"/>
		<path fill="#00AEEF" d="M358.8,247l-18.3-40.3c-0.8-1.9-1.7-4.8-1.7-4.8h-0.2c0,0,0.1,3.1,0.1,5.3V247h-11.9v-71.7h12.7l18,39.2
			c0.8,1.7,1.7,4.8,1.7,4.8h0.2c0-0.5-0.1-3.5-0.1-5.2v-38.8h11.9V247H358.8z"/>
		<path fill="#00AEEF" d="M414.2,247v-71.7h19.9c16.3,0,23.1,13.1,23.1,25.6s-7.6,26.1-25,26.1h-4.6v20H414.2z M432.5,214.2
			c7.6,0,11.4-6.1,11.4-13.1c0-7.3-3.9-13.1-11.5-13.1h-4.9v26.2H432.5z"/>
		<path fill="#00AEEF" d="M498,247l-8.9-22.1c-1,0.1-2,0.1-3.1,0.1h-4.6v22h-13.3v-71.7H488c16.3,0,23.1,12.1,23.1,24.6
			c0,7.9-3.1,15.8-9.6,20.6l10.8,26.5H498z M486.4,212.1c7.6,0,11.4-5.1,11.4-12.1c0-7.3-3.9-12.1-11.5-12.1h-4.9v24.2H486.4z"/>
		<path fill="#00AEEF" d="M525.5,247v-71.7h13.3V247H525.5z"/>
		<path fill="#00AEEF" d="M587.3,247l-18.3-40.3c-0.8-1.9-1.7-4.8-1.7-4.8H567c0,0,0.1,3.1,0.1,5.3V247h-11.9v-71.7h12.7l18,39.2
			c0.8,1.7,1.7,4.8,1.7,4.8h0.2c0-0.5-0.1-3.5-0.1-5.2v-38.8h11.9V247H587.3z"/>
		<path fill="#00AEEF" d="M623.6,247V188h-12.6v-12.8h38.6V188H637V247H623.6z"/>
		<path fill="#00AEEF" d="M660.9,247v-71.7h13.3V247H660.9z"/>
		<path fill="#00AEEF" d="M722.6,247l-18.3-40.3c-0.8-1.9-1.7-4.8-1.7-4.8h-0.2c0,0,0.1,3.1,0.1,5.3V247h-11.9v-71.7h12.7l18,39.2
			c0.8,1.7,1.7,4.8,1.7,4.8h0.2c0-0.5-0.1-3.5-0.1-5.2v-38.8H735V247H722.6z"/>
		<path fill="#00AEEF" d="M796.4,212c0,20.7-6.7,36-23.9,36c-19.8,0-25.2-18.2-25.2-36.9s5.4-36.9,25.2-36.9
			c11.7,0,18.3,6.5,21.8,15.5l-11.6,7.2c-1.7-5.9-4.8-9.8-10.2-9.8c-9.1,0-11.9,11.2-11.9,24.1c0,12.9,2.8,24.1,11.9,24.1
			c7.9,0,9.6-8.2,9.6-14.8h-8.4v-12.8h22.6V212z"/>
	</g>
	<polygon fill="#00AEEF" points="454,506.4 425.5,522.9 396.9,539.4 396.9,506.4 396.9,473.4 425.5,489.9 	"/>
	<g>
		<path fill="#00AEEF" d="M211,361.2c-0.8-1.2-2.3-2-4-2c-1.7,0-3.2,0.9-3.2,2.5c0,3.1,7.1,2.8,7.1,7.2c0,2.6-2,4.4-5,4.4
			c-2.4,0-4.7-1-5.8-2.9l1.3-1c0.8,1.5,2.8,2.3,4.6,2.3c1.9,0,3.2-1.1,3.2-2.7c0-3.3-7.1-2.8-7.1-7.3c0-2.4,2-4.1,4.9-4.1
			c2.2,0,4.1,0.9,5.3,2.4L211,361.2z"/>
		<path fill="#00AEEF" d="M217.2,373c0,0-0.2,0.1-0.7,0.1c-1.9,0-2.9-1.1-2.9-2.8c0-0.5,0.1-1,0.2-1.5l1.6-7.7
			c0.2-0.8,0.4-1.5,0.4-2.5v-0.6h1.7c0,0,0,0.1,0,0.2c0,0.5-0.1,1.7-0.5,3.7l-1.5,7.1c-0.1,0.5-0.2,0.8-0.2,1.1c0,1,0.5,1.5,1.5,1.5
			c0.2,0,0.4,0,0.6-0.1L217.2,373z M217.5,355.3c-0.6,0-1.1-0.5-1.1-1.1c0-0.6,0.5-1.1,1.1-1.1c0.6,0,1.1,0.5,1.1,1.1
			C218.7,354.8,218.1,355.3,217.5,355.3z"/>
		<path fill="#00AEEF" d="M224.7,373.1c-2.6,0-3.5-0.9-3.5-2.8c0-0.5,0.1-1,0.2-1.6l3.5-16.7h1.7l-3.6,16.8
			c-0.1,0.5-0.1,0.9-0.1,1.2c0,1,0.5,1.4,1.6,1.4c0.2,0,0.3,0,0.5-0.1L224.7,373.1z"/>
		<path fill="#00AEEF" d="M238.3,373c-0.1,0-0.5,0.1-1.1,0.1c-4.4,0-3.8-5.9-6.3-6.1c0,0-0.7,3.4-1.3,6h-1.7l4.4-20.9h1.7l-1.1,5.4
			c-0.3,1.2-0.6,2.5-0.6,2.5h0.1c0.8-1.4,2.1-2.4,3.9-2.4c2.3,0,3.3,1.6,3.3,3.3c0,2.6-2.4,5.7-6.4,6c0,0,0,0,0,0.1
			c1.7,0.9,1.6,4.5,4.2,4.5c0.6,0,0.9-0.1,1.3-0.2L238.3,373z M231.2,365.7c0.2,0,0.4,0,0.6,0c4.1,0,6.1-2.5,6.1-4.6
			c0-1.2-0.8-2-2.2-2c-2.2,0-3.5,2.1-4.1,4.7L231.2,365.7z"/>
		<path fill="#00AEEF" d="M258.9,361.2c-0.8-1.2-2.3-2-4-2c-1.7,0-3.2,0.9-3.2,2.5c0,3.1,7.1,2.8,7.1,7.2c0,2.6-2,4.4-5,4.4
			c-2.4,0-4.7-1-5.8-2.9l1.3-1c0.8,1.5,2.8,2.3,4.6,2.3c1.9,0,3.2-1.1,3.2-2.7c0-3.3-7.1-2.8-7.1-7.3c0-2.4,2-4.1,4.9-4.1
			c2.2,0,4.1,0.9,5.3,2.4L258.9,361.2z"/>
		<path fill="#00AEEF" d="M270.8,370.4c-1.2,1.8-2.6,2.9-4.8,2.9c-3.1,0-4.6-2.5-4.6-5.9c0-4.3,2.3-9.8,6.8-9.8
			c2.3,0,3.7,1.5,4.2,3.5l-1.6,0.8c-0.3-1.7-1.3-2.7-2.8-2.7c-3.1,0-4.9,4.4-4.9,8c0,2.7,1,4.4,2.9,4.4c1.4,0,2.6-0.9,3.5-2.3
			L270.8,370.4z"/>
		<path fill="#00AEEF" d="M273.3,373l2.5-11.6c0.3-1.6,0.4-2.6,0.4-3.1v-0.3h1.6c0,0,0,0.1,0,0.3c0,0.5-0.1,1.1-0.2,1.9h0.1
			c0.8-1.4,2.1-2.5,4.1-2.5c0.4,0,0.7,0.1,1.1,0.1c-0.2,0.5-0.3,1.1-0.5,1.7c-0.3-0.1-0.6-0.1-1-0.1c-2.7,0-4,2.5-4.5,5.1l-1.8,8.6
			H273.3z"/>
		<path fill="#00AEEF" d="M292.7,370.7c-1.4,1.5-3.1,2.6-5.2,2.6c-3.4,0-5.2-2.6-5.2-6.2c0-4.3,2.6-9.4,7-9.4c3.3,0,4.7,2.6,4.7,5.9
			c0,0.5,0,1-0.1,1.5l-0.1,1h-9.6c-0.1,0.4-0.1,0.7-0.1,1c0,3,1.4,4.6,3.5,4.6c1.5,0,2.9-1,3.9-2.2L292.7,370.7z M292.3,364.6
			c0.1-0.3,0.1-0.7,0.1-1.1c0-2.7-1.2-4.4-3.1-4.4c-2.4,0-4.2,2.6-4.8,5.5H292.3z"/>
		<path fill="#00AEEF" d="M306.6,370.7c-1.4,1.5-3.1,2.6-5.2,2.6c-3.4,0-5.2-2.6-5.2-6.2c0-4.3,2.6-9.4,7-9.4c3.3,0,4.7,2.6,4.7,5.9
			c0,0.5,0,1-0.1,1.5l-0.1,1h-9.6c-0.1,0.4-0.1,0.7-0.1,1c0,3,1.4,4.6,3.5,4.6c1.5,0,2.9-1,3.9-2.2L306.6,370.7z M306.2,364.6
			c0.1-0.3,0.1-0.7,0.1-1.1c0-2.7-1.2-4.4-3.1-4.4c-2.4,0-4.2,2.6-4.8,5.5H306.2z"/>
		<path fill="#00AEEF" d="M321.2,373.1c-2-0.1-2.8-1.1-2.8-2.8c0-0.5,0.1-1,0.2-1.5l1-4.8c0.2-0.8,0.3-1.5,0.3-2.1
			c0-1.6-0.6-2.7-2.3-2.7c-2.7,0-3.9,2.5-4.5,5.3l-1.8,8.5h-1.7l2.5-11.7c0.3-1.6,0.4-2.5,0.4-3.1v-0.3h1.6v0.2
			c0,0.3-0.1,1.2-0.2,2.1h0.1c0.8-1.4,2.1-2.5,4.1-2.5c2.6,0,3.7,1.7,3.7,4.1c0,0.7-0.1,1.6-0.3,2.5l-1,4.7
			c-0.1,0.5-0.2,0.8-0.2,1.2c0,1,0.5,1.4,1.4,1.4c0.2,0,0.5,0,0.7-0.1c-0.1,0.6-0.2,1.1-0.4,1.7H321.2z"/>
		<path fill="#00AEEF" d="M334.6,370.7c-1.4,1.5-3.1,2.6-5.2,2.6c-3.4,0-5.2-2.6-5.2-6.2c0-4.3,2.6-9.4,7-9.4c3.3,0,4.7,2.6,4.7,5.9
			c0,0.5,0,1-0.1,1.5l-0.1,1h-9.6c-0.1,0.4-0.1,0.7-0.1,1c0,3,1.4,4.6,3.5,4.6c1.5,0,2.9-1,3.9-2.2L334.6,370.7z M334.2,364.6
			c0.1-0.3,0.1-0.7,0.1-1.1c0-2.7-1.2-4.4-3.1-4.4c-2.4,0-4.2,2.6-4.8,5.5H334.2z"/>
		<path fill="#00AEEF" d="M349.8,373.1c-2.4,0-3.4-0.8-3.4-2.8c-0.8,1.6-2.1,2.9-4.3,2.9c-2.7,0-3.9-2.3-3.9-5.3
			c0-4.1,2.3-10.4,6.8-10.4c1.9,0,2.9,1,3.3,2.4h0.1c0,0,0.2-1.4,0.4-2.3l1.2-5.7h1.8l-3.5,16.7c-0.1,0.5-0.2,0.8-0.2,1.1
			c0,1,0.5,1.5,1.5,1.5c0.2,0,0.4,0,0.6-0.1L349.8,373.1z M346.9,366.9c0.4-1.3,0.8-3.1,0.8-4.6c0-1.7-0.8-3.1-2.7-3.1
			c-2.3,0-4,2.2-4.9,6.2c-0.2,0.8-0.3,1.7-0.3,2.5c0,1.9,0.6,3.7,2.6,3.7C344.3,371.7,346,369.9,346.9,366.9z"/>
		<path fill="#00AEEF" d="M358.8,378.7l3.7-17.7c0.3-1.3,0.4-2.2,0.4-2.7c0-0.2,0-0.4,0-0.4h1.7c0,0,0,0.1,0,0.2
			c0,0.3-0.1,1.1-0.3,2h0.1c0.9-1.3,2.2-2.5,4.1-2.5c2.4,0,3.9,1.7,3.9,5.2c0,4.8-2.5,10.4-6.8,10.4c-1.7,0-2.9-1-3.3-2.7h-0.1
			c-0.1,0.7-0.3,1.8-0.6,3.2l-1,4.9H358.8z M370.6,363c0-2.3-0.7-3.7-2.6-3.7c-2.7,0-3.9,2.9-4.4,5.2c-0.3,1.3-0.7,2.9-0.7,3.9
			c0,1.8,0.9,3.3,2.7,3.3C368.6,371.7,370.6,367,370.6,363z"/>
		<path fill="#00AEEF" d="M373.8,373l2.5-11.6c0.3-1.6,0.4-2.6,0.4-3.1v-0.3h1.6c0,0,0,0.1,0,0.3c0,0.5-0.1,1.1-0.2,1.9h0.1
			c0.8-1.4,2.1-2.5,4.1-2.5c0.4,0,0.7,0.1,1.1,0.1c-0.2,0.5-0.3,1.1-0.5,1.7c-0.3-0.1-0.6-0.1-1-0.1c-2.7,0-4,2.5-4.5,5.1l-1.8,8.6
			H373.8z"/>
		<path fill="#00AEEF" d="M387.1,373c0,0-0.2,0.1-0.7,0.1c-1.9,0-2.9-1.1-2.9-2.8c0-0.5,0.1-1,0.2-1.5l1.6-7.7
			c0.2-0.8,0.4-1.5,0.4-2.5v-0.6h1.7c0,0,0,0.1,0,0.2c0,0.5-0.1,1.7-0.5,3.7l-1.5,7.1c-0.1,0.5-0.2,0.8-0.2,1.1c0,1,0.5,1.5,1.5,1.5
			c0.2,0,0.4,0,0.6-0.1L387.1,373z M387.4,355.3c-0.6,0-1.1-0.5-1.1-1.1c0-0.6,0.5-1.1,1.1-1.1c0.6,0,1.1,0.5,1.1,1.1
			C388.5,354.8,388,355.3,387.4,355.3z"/>
		<path fill="#00AEEF" d="M401.7,373.1c-2-0.1-2.8-1.1-2.8-2.8c0-0.5,0.1-1,0.2-1.5l1-4.8c0.2-0.8,0.3-1.5,0.3-2.1
			c0-1.6-0.6-2.7-2.3-2.7c-2.7,0-3.9,2.5-4.5,5.3l-1.8,8.5H390l2.5-11.7c0.3-1.6,0.4-2.5,0.4-3.1v-0.3h1.6v0.2
			c0,0.3-0.1,1.2-0.2,2.1h0.1c0.8-1.4,2.1-2.5,4.1-2.5c2.6,0,3.7,1.7,3.7,4.1c0,0.7-0.1,1.6-0.3,2.5l-1,4.7
			c-0.1,0.5-0.2,0.8-0.2,1.2c0,1,0.5,1.4,1.4,1.4c0.2,0,0.5,0,0.7-0.1c-0.1,0.6-0.2,1.1-0.4,1.7H401.7z"/>
		<path fill="#00AEEF" d="M411.6,373c-0.5,0.2-1.2,0.3-1.9,0.3c-2.3,0-3.6-1.5-3.6-3.5c0-0.5,0.1-1.1,0.2-1.6l1.8-8.7h-2l0.3-1.5h2
			l0.8-3.6h1.7l-0.7,3.6h3.3l-0.3,1.5h-3.3l-1.9,8.9c-0.1,0.4-0.1,0.8-0.1,1.1c0,1.4,0.7,2.2,2,2.2c0.5,0,1-0.1,1.5-0.3L411.6,373z"
			/>
		<path fill="#00AEEF" d="M424.5,361.2c-0.8-1.2-2.3-2-4-2c-1.7,0-3.2,0.9-3.2,2.5c0,3.1,7.1,2.8,7.1,7.2c0,2.6-2,4.4-5,4.4
			c-2.4,0-4.7-1-5.8-2.9l1.3-1c0.8,1.5,2.8,2.3,4.6,2.3c1.9,0,3.2-1.1,3.2-2.7c0-3.3-7.1-2.8-7.1-7.3c0-2.4,2-4.1,4.9-4.1
			c2.2,0,4.1,0.9,5.3,2.4L424.5,361.2z"/>
		<path fill="#00AEEF" d="M446,373.1c-2.4,0-3.4-0.8-3.4-2.8c-0.8,1.6-2.1,2.9-4.3,2.9c-2.7,0-3.9-2.3-3.9-5.3
			c0-4.1,2.3-10.4,6.8-10.4c1.9,0,2.9,1,3.3,2.4h0.1c0,0,0.2-1.4,0.4-2.3l1.2-5.7h1.8l-3.5,16.7c-0.1,0.5-0.2,0.8-0.2,1.1
			c0,1,0.5,1.5,1.5,1.5c0.2,0,0.4,0,0.6-0.1L446,373.1z M443.1,366.9c0.4-1.3,0.8-3.1,0.8-4.6c0-1.7-0.8-3.1-2.7-3.1
			c-2.3,0-4,2.2-4.9,6.2c-0.2,0.8-0.3,1.7-0.3,2.5c0,1.9,0.6,3.7,2.6,3.7C440.5,371.7,442.3,369.9,443.1,366.9z"/>
		<path fill="#00AEEF" d="M449.3,367.3c0-4.7,2.4-9.7,6.9-9.7c3.2,0,4.7,2.7,4.7,5.9c0,4.7-2.4,9.7-7,9.7
			C450.8,373.3,449.3,370.6,449.3,367.3z M459.3,363.7c0-2.8-1.2-4.5-3.2-4.5c-3.1,0-5.1,4.1-5.1,8c0,2.8,1.2,4.5,3.2,4.5
			C457.3,371.7,459.3,367.6,459.3,363.7z"/>
		<path fill="#00AEEF" d="M474.2,373.1c-2-0.1-2.8-1.1-2.8-2.8c0-0.5,0.1-1,0.2-1.5l1-4.8c0.2-0.8,0.3-1.5,0.3-2.1
			c0-1.6-0.6-2.7-2.3-2.7c-2.7,0-3.9,2.5-4.5,5.3l-1.8,8.5h-1.7l2.5-11.7c0.3-1.6,0.4-2.5,0.4-3.1v-0.3h1.6v0.2
			c0,0.3-0.1,1.2-0.2,2.1h0.1c0.8-1.4,2.1-2.5,4.1-2.5c2.6,0,3.7,1.7,3.7,4.1c0,0.7-0.1,1.6-0.3,2.5l-1,4.7
			c-0.1,0.5-0.2,0.8-0.2,1.2c0,1,0.5,1.4,1.4,1.4c0.2,0,0.5,0,0.7-0.1c-0.1,0.6-0.2,1.1-0.4,1.7H474.2z"/>
		<path fill="#00AEEF" d="M487.7,370.7c-1.4,1.5-3.1,2.6-5.2,2.6c-3.4,0-5.2-2.6-5.2-6.2c0-4.3,2.6-9.4,7-9.4c3.3,0,4.7,2.6,4.7,5.9
			c0,0.5,0,1-0.1,1.5l-0.1,1h-9.6c-0.1,0.4-0.1,0.7-0.1,1c0,3,1.4,4.6,3.5,4.6c1.5,0,2.9-1,3.9-2.2L487.7,370.7z M487.3,364.6
			c0.1-0.3,0.1-0.7,0.1-1.1c0-2.7-1.2-4.4-3.1-4.4c-2.4,0-4.2,2.6-4.8,5.5H487.3z"/>
		<path fill="#00AEEF" d="M504.6,373c-0.5,0.2-1.2,0.3-1.9,0.3c-2.3,0-3.6-1.5-3.6-3.5c0-0.5,0.1-1.1,0.2-1.6l1.8-8.7h-2l0.3-1.5h2
			l0.8-3.6h1.7l-0.7,3.6h3.3l-0.3,1.5h-3.3l-1.9,8.9c-0.1,0.4-0.1,0.8-0.1,1.1c0,1.4,0.7,2.2,2,2.2c0.5,0,1-0.1,1.5-0.3L504.6,373z"
			/>
		<path fill="#00AEEF" d="M507,373l4.4-20.9h1.7l-1.1,5c-0.3,1.5-0.6,2.6-0.7,2.8h0.1c0.9-1.4,2.1-2.3,3.9-2.3
			c2.7,0,3.7,1.7,3.7,4.1c0,0.8-0.1,1.7-0.3,2.5c-0.3,1.5-0.7,3.1-1,4.6c-0.1,0.5-0.1,0.9-0.1,1.2c0,1,0.5,1.4,1.6,1.4
			c0.2,0,0.3,0,0.5-0.1c-0.1,0.6-0.2,1.2-0.4,1.7c-2.5,0-3.5-0.9-3.5-2.8c0-2.3,1.5-6,1.5-8.4c0-1.5-0.5-2.7-2.2-2.7
			c-2.8,0-4,2.2-4.5,4.9l-1.9,8.9H507z"/>
		<path fill="#00AEEF" d="M532.1,370.7c-1.4,1.5-3.1,2.6-5.2,2.6c-3.4,0-5.2-2.6-5.2-6.2c0-4.3,2.6-9.4,7-9.4c3.3,0,4.7,2.6,4.7,5.9
			c0,0.5,0,1-0.1,1.5l-0.1,1h-9.6c-0.1,0.4-0.1,0.7-0.1,1c0,3,1.4,4.6,3.5,4.6c1.5,0,2.9-1,3.9-2.2L532.1,370.7z M531.7,364.6
			c0.1-0.3,0.1-0.7,0.1-1.1c0-2.7-1.2-4.4-3.1-4.4c-2.4,0-4.2,2.6-4.8,5.5H531.7z"/>
		<path fill="#00AEEF" d="M553.5,370.7c-1.4,1.5-3.1,2.6-5.2,2.6c-3.4,0-5.2-2.6-5.2-6.2c0-4.3,2.6-9.4,7-9.4c3.3,0,4.7,2.6,4.7,5.9
			c0,0.5,0,1-0.1,1.5l-0.1,1h-9.6c-0.1,0.4-0.1,0.7-0.1,1c0,3,1.4,4.6,3.5,4.6c1.5,0,2.9-1,3.9-2.2L553.5,370.7z M553.1,364.6
			c0.1-0.3,0.1-0.7,0.1-1.1c0-2.7-1.2-4.4-3.1-4.4c-2.4,0-4.2,2.6-4.8,5.5H553.1z"/>
		<path fill="#00AEEF" d="M565.2,370.3c-0.8,1.5-1.9,2.9-4.2,2.9c-2.7,0-3.9-2.2-3.9-5.1c0-5.7,2.9-10.5,7-10.5
			c2.7,0,4.3,1.9,4.3,4.3c0,0.3,0,0.7-0.1,1l-1.3,5.9c-0.1,0.5-0.2,0.9-0.2,1.2c0,1,0.5,1.4,1.6,1.4c0.2,0,0.3,0,0.5-0.1
			c-0.1,0.6-0.2,1.2-0.4,1.7C566,373.1,565.2,372.2,565.2,370.3L565.2,370.3z M566.5,363c0.1-0.4,0.1-0.7,0.1-1c0-1.5-1-2.8-2.7-2.8
			c-3.6,0-5.1,5.6-5.1,8.6c0,2,0.5,3.8,2.6,3.8c2.7,0,4.1-3.8,4.9-7.4L566.5,363z"/>
		<path fill="#00AEEF" d="M582.1,361.2c-0.8-1.2-2.3-2-4-2c-1.7,0-3.2,0.9-3.2,2.5c0,3.1,7.1,2.8,7.1,7.2c0,2.6-2,4.4-5,4.4
			c-2.4,0-4.7-1-5.8-2.9l1.3-1c0.8,1.5,2.8,2.3,4.6,2.3c1.9,0,3.2-1.1,3.2-2.7c0-3.3-7.1-2.8-7.1-7.3c0-2.4,2-4.1,4.9-4.1
			c2.2,0,4.1,0.9,5.3,2.4L582.1,361.2z"/>
		<path fill="#00AEEF" d="M584.8,357.9h1.9l0.9,8.9c0.2,1.9,0.3,3.7,0.3,3.7h0.1c0,0,0.9-2.1,1.5-3.3c2.2-4.6,3.3-7,4.5-9.3h1.9
			l-7.8,15.6c-1.6,3.4-3.2,5.4-5.7,5.4c-1.1,0-2-0.2-2.8-0.7l0.9-1.5c0.5,0.3,1.2,0.6,1.9,0.6c2.1,0,3-1.9,4.2-4.3L584.8,357.9z"/>
		<path fill="#00AEEF" d="M614.1,373l-0.8-9.1c-0.1-1.8-0.1-3.3-0.1-3.3h-0.1c0,0-0.6,1.5-1.4,3.2l-4.4,9.3h-1.7l-1.4-15.1h1.8
			l0.7,9.1c0.1,1.6,0.1,3.6,0.1,3.6h0.1c0,0,0.8-1.9,1.5-3.5l4.4-9.2h1.6l0.7,9.1c0.1,1.6,0.2,3.6,0.2,3.6h0.1c0,0,0.8-1.9,1.5-3.5
			l4.3-9.2h1.9l-7.3,15.1H614.1z"/>
		<path fill="#00AEEF" d="M631.2,370.3c-0.8,1.5-1.9,2.9-4.2,2.9c-2.7,0-3.9-2.2-3.9-5.1c0-5.7,2.9-10.5,7-10.5
			c2.7,0,4.3,1.9,4.3,4.3c0,0.3,0,0.7-0.1,1l-1.3,5.9c-0.1,0.5-0.2,0.9-0.2,1.2c0,1,0.5,1.4,1.6,1.4c0.2,0,0.3,0,0.5-0.1
			c-0.1,0.6-0.2,1.2-0.4,1.7C632.1,373.1,631.2,372.2,631.2,370.3L631.2,370.3z M632.5,363c0.1-0.4,0.1-0.7,0.1-1
			c0-1.5-1-2.8-2.7-2.8c-3.6,0-5.1,5.6-5.1,8.6c0,2,0.5,3.8,2.6,3.8c2.7,0,4.1-3.8,4.9-7.4L632.5,363z"/>
		<path fill="#00AEEF" d="M638,357.9h1.9l0.9,8.9c0.2,1.9,0.3,3.7,0.3,3.7h0.1c0,0,0.9-2.1,1.5-3.3c2.2-4.6,3.3-7,4.5-9.3h1.9
			l-7.8,15.6c-1.6,3.4-3.2,5.4-5.7,5.4c-1.1,0-2-0.2-2.8-0.7l0.9-1.5c0.5,0.3,1.2,0.6,1.9,0.6c2.1,0,3-1.9,4.2-4.3L638,357.9z"/>
		<path fill="#00AEEF" d="M649.9,373.3c-0.6,0-1.1-0.5-1.1-1.1s0.5-1.1,1.1-1.1c0.6,0,1.1,0.5,1.1,1.1S650.5,373.3,649.9,373.3z
			 M651.9,363.9c-0.6,0-1.1-0.5-1.1-1.1c0-0.6,0.5-1.1,1.1-1.1c0.6,0,1.1,0.5,1.1,1.1C653,363.5,652.5,363.9,651.9,363.9z"/>
		<path fill="#00AEEF" d="M224.3,404.6c-0.8,1.5-1.9,2.9-4.2,2.9c-2.7,0-3.9-2.2-3.9-5.1c0-5.7,2.9-10.5,7-10.5
			c2.7,0,4.3,1.9,4.3,4.3c0,0.3,0,0.7-0.1,1l-1.3,5.9c-0.1,0.5-0.2,0.9-0.2,1.2c0,1,0.5,1.4,1.6,1.4c0.2,0,0.3,0,0.5-0.1
			c-0.1,0.6-0.2,1.2-0.4,1.7C225.1,407.4,224.2,406.5,224.3,404.6L224.3,404.6z M225.6,397.3c0.1-0.4,0.1-0.7,0.1-1
			c0-1.5-1-2.8-2.7-2.8c-3.6,0-5.1,5.6-5.1,8.6c0,2,0.5,3.8,2.6,3.8c2.7,0,4.1-3.8,4.9-7.4L225.6,397.3z"/>
		<path fill="#00AEEF" d="M237.2,407.3c-0.5,0.2-1.2,0.3-1.9,0.3c-2.3,0-3.6-1.5-3.6-3.5c0-0.5,0.1-1.1,0.2-1.6l1.8-8.7h-2l0.3-1.5
			h2l0.8-3.6h1.7l-0.7,3.6h3.3l-0.3,1.5h-3.3l-1.9,8.9c-0.1,0.4-0.1,0.8-0.1,1.1c0,1.4,0.7,2.2,2,2.2c0.5,0,1-0.1,1.5-0.3
			L237.2,407.3z"/>
		<path fill="#00AEEF" d="M247,407.3l4.4-20.9h1.7l-1.1,5c-0.3,1.5-0.6,2.6-0.7,2.8h0.1c0.9-1.4,2.1-2.3,3.9-2.3
			c2.7,0,3.7,1.7,3.7,4.1c0,0.8-0.1,1.7-0.3,2.5c-0.3,1.5-0.7,3.1-1,4.6c-0.1,0.5-0.1,0.9-0.1,1.2c0,1,0.5,1.4,1.6,1.4
			c0.2,0,0.3,0,0.5-0.1c-0.1,0.6-0.2,1.2-0.4,1.7c-2.5,0-3.5-0.9-3.5-2.8c0-2.3,1.5-6,1.5-8.4c0-1.5-0.5-2.7-2.2-2.7
			c-2.8,0-4,2.2-4.5,4.9l-1.9,8.9H247z"/>
		<path fill="#00AEEF" d="M261.8,401.6c0-4.7,2.4-9.7,6.9-9.7c3.2,0,4.7,2.7,4.7,5.9c0,4.7-2.4,9.7-7,9.7
			C263.3,407.6,261.8,404.9,261.8,401.6z M271.8,398c0-2.8-1.2-4.5-3.2-4.5c-3.1,0-5.1,4.1-5.1,8c0,2.8,1.2,4.5,3.2,4.5
			C269.8,406,271.8,401.9,271.8,398z"/>
		<path fill="#00AEEF" d="M292.2,397.5c0.1-0.5,0.2-1.1,0.2-1.5c0-1.5-0.6-2.4-2.1-2.4c-2.2,0-3.5,2-4.1,4.7l-1.9,9h-1.7l2.1-9.9
			c0.1-0.5,0.2-1.1,0.2-1.5c0-1.5-0.7-2.4-2-2.4c-2.7,0-3.8,3.1-4.3,5.5l-1.7,8.3H275l2.5-11.7c0.3-1.6,0.4-2.5,0.4-3.1v-0.3h1.6
			c0,0.2-0.1,1.1-0.2,2.3h0.1c0.8-1.5,2-2.5,3.8-2.5c2,0,3.1,1.3,3.3,3.3h0.1c0.8-1.9,2.2-3.3,4.2-3.3c2.3,0,3.4,1.5,3.4,3.7
			c0,0.6-0.1,1.3-0.2,2.1l-1.2,5.4c-0.1,0.5-0.2,0.9-0.2,1.2c0,1.1,0.6,1.4,1.7,1.4c0.1,0,0.3,0,0.5-0.1c-0.1,0.6-0.2,1.2-0.4,1.7
			c-2.5,0-3.5-0.9-3.5-2.8c0-0.5,0.1-1,0.2-1.6L292.2,397.5z"/>
		<path fill="#00AEEF" d="M307,405c-1.4,1.5-3.1,2.6-5.2,2.6c-3.4,0-5.2-2.6-5.2-6.2c0-4.3,2.6-9.4,7-9.4c3.3,0,4.7,2.6,4.7,5.9
			c0,0.5,0,1-0.1,1.5l-0.1,1h-9.6c-0.1,0.4-0.1,0.7-0.1,1c0,3,1.4,4.6,3.5,4.6c1.5,0,2.9-1,3.9-2.2L307,405z M306.6,398.9
			c0.1-0.3,0.1-0.7,0.1-1.1c0-2.7-1.2-4.4-3.1-4.4c-2.4,0-4.2,2.6-4.8,5.5H306.6z"/>
		<path fill="#00AEEF" d="M328.3,407.3l-0.8-9.1c-0.1-1.8-0.1-3.3-0.1-3.3h-0.1c0,0-0.6,1.5-1.4,3.2l-4.4,9.3h-1.7l-1.4-15.1h1.8
			l0.7,9.1c0.1,1.6,0.1,3.6,0.1,3.6h0.1c0,0,0.8-1.9,1.5-3.5l4.4-9.2h1.6l0.7,9.1c0.1,1.6,0.2,3.6,0.2,3.6h0.1c0,0,0.8-1.9,1.5-3.5
			l4.3-9.2h1.9l-7.3,15.1H328.3z"/>
		<path fill="#00AEEF" d="M341.5,407.3c0,0-0.2,0.1-0.7,0.1c-1.9,0-2.9-1.1-2.9-2.8c0-0.5,0.1-1,0.2-1.5l1.6-7.7
			c0.2-0.8,0.4-1.5,0.4-2.5v-0.6h1.7c0,0,0,0.1,0,0.2c0,0.5-0.1,1.7-0.5,3.7l-1.5,7.1c-0.1,0.5-0.2,0.8-0.2,1.1c0,1,0.5,1.5,1.5,1.5
			c0.2,0,0.4,0,0.6-0.1L341.5,407.3z M341.8,389.6c-0.6,0-1.1-0.5-1.1-1.1c0-0.6,0.5-1.1,1.1-1.1c0.6,0,1.1,0.5,1.1,1.1
			C342.9,389.1,342.4,389.6,341.8,389.6z"/>
		<path fill="#00AEEF" d="M351,407.3c-0.5,0.2-1.2,0.3-1.9,0.3c-2.3,0-3.6-1.5-3.6-3.5c0-0.5,0.1-1.1,0.2-1.6l1.8-8.7h-2l0.3-1.5h2
			l0.8-3.6h1.7l-0.7,3.6h3.3l-0.3,1.5h-3.3l-1.9,8.9c-0.1,0.4-0.1,0.8-0.1,1.1c0,1.4,0.7,2.2,2,2.2c0.5,0,1-0.1,1.5-0.3L351,407.3z"
			/>
		<path fill="#00AEEF" d="M353.3,407.3l4.4-20.9h1.7l-1.1,5c-0.3,1.5-0.6,2.6-0.7,2.8h0.1c0.9-1.4,2.1-2.3,3.9-2.3
			c2.7,0,3.7,1.7,3.7,4.1c0,0.8-0.1,1.7-0.3,2.5c-0.3,1.5-0.7,3.1-1,4.6c-0.1,0.5-0.1,0.9-0.1,1.2c0,1,0.5,1.4,1.6,1.4
			c0.2,0,0.3,0,0.5-0.1c-0.1,0.6-0.2,1.2-0.4,1.7c-2.5,0-3.5-0.9-3.5-2.8c0-2.3,1.5-6,1.5-8.4c0-1.5-0.5-2.7-2.2-2.7
			c-2.8,0-4,2.2-4.5,4.9l-1.9,8.9H353.3z"/>
		<path fill="#00AEEF" d="M368.2,401.6c0-4.7,2.4-9.7,6.9-9.7c3.2,0,4.7,2.7,4.7,5.9c0,4.7-2.4,9.7-7,9.7
			C369.7,407.6,368.2,404.9,368.2,401.6z M378.1,398c0-2.8-1.2-4.5-3.2-4.5c-3.1,0-5.1,4.1-5.1,8c0,2.8,1.2,4.5,3.2,4.5
			C376.1,406,378.1,401.9,378.1,398z"/>
		<path fill="#00AEEF" d="M394.1,407.4c-2.8,0-3.3-1-3.4-2.6h-0.1c-0.8,1.5-2,2.8-4,2.8c-2.7,0-4-1.8-4-4.2c0-0.6,0.1-1.2,0.2-1.8
			l2-9.4h1.8l-2.1,9.5c-0.1,0.5-0.1,1-0.1,1.5c0,1.5,0.7,2.8,2.6,2.8c2.3,0,3.7-2.5,4.1-4.9l1.9-8.9h1.7l-2.3,10.9
			c-0.1,0.5-0.2,0.9-0.2,1.2c0,1,0.5,1.4,1.6,1.4c0.2,0,0.3,0,0.5-0.1L394.1,407.4z"/>
		<path fill="#00AEEF" d="M403.2,407.3c-0.5,0.2-1.2,0.3-1.9,0.3c-2.3,0-3.6-1.5-3.6-3.5c0-0.5,0.1-1.1,0.2-1.6l1.8-8.7h-2l0.3-1.5
			h2l0.8-3.6h1.7l-0.7,3.6h3.3l-0.3,1.5h-3.3l-1.9,8.9c-0.1,0.4-0.1,0.8-0.1,1.1c0,1.4,0.7,2.2,2,2.2c0.5,0,1-0.1,1.5-0.3
			L403.2,407.3z"/>
		<path fill="#00AEEF" d="M413,407.3l4.4-20.9h1.7l-1.1,5c-0.3,1.5-0.6,2.6-0.7,2.8h0.1c0.9-1.4,2.1-2.3,3.9-2.3
			c2.7,0,3.7,1.7,3.7,4.1c0,0.8-0.1,1.7-0.3,2.5c-0.3,1.5-0.7,3.1-1,4.6c-0.1,0.5-0.1,0.9-0.1,1.2c0,1,0.5,1.4,1.6,1.4
			c0.2,0,0.3,0,0.5-0.1c-0.1,0.6-0.2,1.2-0.4,1.7c-2.5,0-3.5-0.9-3.5-2.8c0-2.3,1.5-6,1.5-8.4c0-1.5-0.5-2.7-2.2-2.7
			c-2.8,0-4,2.2-4.5,4.9l-1.9,8.9H413z"/>
		<path fill="#00AEEF" d="M440.7,407.4c-2.8,0-3.3-1-3.4-2.6h-0.1c-0.8,1.5-2,2.8-4,2.8c-2.7,0-4-1.8-4-4.2c0-0.6,0.1-1.2,0.2-1.8
			l2-9.4h1.8l-2.1,9.5c-0.1,0.5-0.1,1-0.1,1.5c0,1.5,0.7,2.8,2.6,2.8c2.3,0,3.7-2.5,4.1-4.9l1.9-8.9h1.7l-2.3,10.9
			c-0.1,0.5-0.2,0.9-0.2,1.2c0,1,0.5,1.4,1.6,1.4c0.2,0,0.3,0,0.5-0.1L440.7,407.4z"/>
		<path fill="#00AEEF" d="M443.2,407.3l2.5-11.6c0.3-1.6,0.4-2.6,0.4-3.1v-0.3h1.6c0,0,0,0.1,0,0.3c0,0.5-0.1,1.1-0.2,1.9h0.1
			c0.8-1.4,2.1-2.5,4.1-2.5c0.4,0,0.7,0.1,1.1,0.1c-0.2,0.5-0.3,1.1-0.5,1.7c-0.3-0.1-0.6-0.1-1-0.1c-2.7,0-4,2.5-4.5,5.1l-1.8,8.6
			H443.2z"/>
		<path fill="#00AEEF" d="M458.8,407.3c-0.5,0.2-1.2,0.3-1.9,0.3c-2.3,0-3.6-1.5-3.6-3.5c0-0.5,0.1-1.1,0.2-1.6l1.8-8.7h-2l0.3-1.5
			h2l0.8-3.6h1.7l-0.7,3.6h3.3l-0.3,1.5h-3.3l-1.9,8.9c-0.1,0.4-0.1,0.8-0.1,1.1c0,1.4,0.7,2.2,2,2.2c0.5,0,1-0.1,1.5-0.3
			L458.8,407.3z"/>
		<path fill="#00AEEF" d="M465.5,407.3c0,0-0.2,0.1-0.7,0.1c-1.9,0-2.9-1.1-2.9-2.8c0-0.5,0.1-1,0.2-1.5l1.6-7.7
			c0.2-0.8,0.4-1.5,0.4-2.5v-0.6h1.7c0,0,0,0.1,0,0.2c0,0.5-0.1,1.7-0.5,3.7l-1.5,7.1c-0.1,0.5-0.2,0.8-0.2,1.1c0,1,0.5,1.5,1.5,1.5
			c0.2,0,0.4,0,0.6-0.1L465.5,407.3z M465.8,389.6c-0.6,0-1.1-0.5-1.1-1.1c0-0.6,0.5-1.1,1.1-1.1c0.6,0,1.1,0.5,1.1,1.1
			C466.9,389.1,466.4,389.6,465.8,389.6z"/>
		<path fill="#00AEEF" d="M480.1,407.4c-2-0.1-2.8-1.1-2.8-2.8c0-0.5,0.1-1,0.2-1.5l1-4.8c0.2-0.8,0.3-1.5,0.3-2.1
			c0-1.6-0.6-2.7-2.3-2.7c-2.7,0-3.9,2.5-4.5,5.3l-1.8,8.5h-1.7l2.5-11.7c0.3-1.6,0.4-2.5,0.4-3.1v-0.3h1.6v0.2
			c0,0.3-0.1,1.2-0.2,2.1h0.1c0.8-1.4,2.1-2.5,4.1-2.5c2.6,0,3.7,1.7,3.7,4.1c0,0.7-0.1,1.6-0.3,2.5l-1,4.7
			c-0.1,0.5-0.2,0.8-0.2,1.2c0,1,0.5,1.4,1.4,1.4c0.2,0,0.5,0,0.7-0.1c-0.1,0.6-0.2,1.1-0.4,1.7H480.1z"/>
		<path fill="#00AEEF" d="M492,404.4L492,404.4c-0.9,1.4-2.1,2.5-4,2.5c-2.7,0-3.9-2.2-3.9-5.1c0-4.1,2.2-9.9,6.7-9.9
			c1.9,0,3,1,3.4,2.6h0.1c0.2-1.3,0.8-2.3,0.8-2.3h1.7c-0.1,0.2-0.6,1.1-0.9,2.5c-0.9,4.1-1.8,8.2-2.6,12.3
			c-0.9,4.3-2.8,6.3-6.1,6.3c-2.1,0-3.7-0.9-4.6-2.2l1.3-1.2c0.8,1.1,2,1.8,3.4,1.8c2.2,0,3.4-1.8,4.1-4.7L492,404.4z M493.5,397.4
			c0.1-0.3,0.1-0.6,0.1-0.9c0-1.6-1-2.9-2.8-2.9c-3.6,0-5,5.3-5,8.2c0,1.9,0.7,3.6,2.7,3.6c2,0,3.7-2,4.7-7L493.5,397.4z"/>
		<path fill="#00AEEF" d="M505.3,392.2h1.9l0.9,8.9c0.2,1.9,0.3,3.7,0.3,3.7h0.1c0,0,0.9-2.1,1.5-3.3c2.2-4.6,3.3-7,4.5-9.3h1.9
			l-7.8,15.6c-1.6,3.4-3.2,5.4-5.7,5.4c-1.1,0-2-0.2-2.8-0.7l0.9-1.5c0.5,0.3,1.2,0.6,1.9,0.6c2.1,0,3-1.9,4.2-4.3L505.3,392.2z"/>
		<path fill="#00AEEF" d="M516.4,401.6c0-4.7,2.4-9.7,6.9-9.7c3.2,0,4.7,2.7,4.7,5.9c0,4.7-2.4,9.7-7,9.7
			C517.9,407.6,516.4,404.9,516.4,401.6z M526.4,398c0-2.8-1.2-4.5-3.2-4.5c-3.1,0-5.1,4.1-5.1,8c0,2.8,1.2,4.5,3.2,4.5
			C524.3,406,526.4,401.9,526.4,398z"/>
		<path fill="#00AEEF" d="M542.3,407.4c-2.8,0-3.3-1-3.4-2.6h-0.1c-0.8,1.5-2,2.8-4,2.8c-2.7,0-4-1.8-4-4.2c0-0.6,0.1-1.2,0.2-1.8
			l2-9.4h1.8l-2.1,9.5c-0.1,0.5-0.1,1-0.1,1.5c0,1.5,0.7,2.8,2.6,2.8c2.3,0,3.7-2.5,4.1-4.9l1.9-8.9h1.7l-2.3,10.9
			c-0.1,0.5-0.2,0.9-0.2,1.2c0,1,0.5,1.4,1.6,1.4c0.2,0,0.3,0,0.5-0.1L542.3,407.4z"/>
		<path fill="#00AEEF" d="M544.8,407.3l2.5-11.6c0.3-1.6,0.4-2.6,0.4-3.1v-0.3h1.6c0,0,0,0.1,0,0.3c0,0.5-0.1,1.1-0.2,1.9h0.1
			c0.8-1.4,2.1-2.5,4.1-2.5c0.4,0,0.7,0.1,1.1,0.1c-0.2,0.5-0.3,1.1-0.5,1.7c-0.3-0.1-0.6-0.1-1-0.1c-2.7,0-4,2.5-4.5,5.1l-1.8,8.6
			H544.8z"/>
		<path fill="#00AEEF" d="M572.1,407.3l-0.8-9.1c-0.1-1.8-0.1-3.3-0.1-3.3h-0.1c0,0-0.6,1.5-1.4,3.2l-4.4,9.3h-1.7l-1.4-15.1h1.8
			l0.7,9.1c0.1,1.6,0.1,3.6,0.1,3.6h0.1c0,0,0.8-1.9,1.5-3.5l4.4-9.2h1.6l0.7,9.1c0.1,1.6,0.2,3.6,0.2,3.6h0.1c0,0,0.8-1.9,1.5-3.5
			l4.3-9.2h1.9l-7.3,15.1H572.1z"/>
		<path fill="#00AEEF" d="M589.2,404.6c-0.8,1.5-1.9,2.9-4.2,2.9c-2.7,0-3.9-2.2-3.9-5.1c0-5.7,2.9-10.5,7-10.5
			c2.7,0,4.3,1.9,4.3,4.3c0,0.3,0,0.7-0.1,1l-1.3,5.9c-0.1,0.5-0.2,0.9-0.2,1.2c0,1,0.5,1.4,1.6,1.4c0.2,0,0.3,0,0.5-0.1
			c-0.1,0.6-0.2,1.2-0.4,1.7C590,407.4,589.1,406.5,589.2,404.6L589.2,404.6z M590.5,397.3c0.1-0.4,0.1-0.7,0.1-1
			c0-1.5-1-2.8-2.7-2.8c-3.6,0-5.1,5.6-5.1,8.6c0,2,0.5,3.8,2.6,3.8c2.7,0,4.1-3.8,4.9-7.4L590.5,397.3z"/>
		<path fill="#00AEEF" d="M600.1,407.4c-2.6,0-3.5-0.9-3.5-2.8c0-0.5,0.1-1,0.2-1.6l3.5-16.7h1.7l-3.6,16.8
			c-0.1,0.5-0.1,0.9-0.1,1.2c0,1,0.5,1.4,1.6,1.4c0.2,0,0.3,0,0.5-0.1L600.1,407.4z"/>
		<path fill="#00AEEF" d="M607.9,407.4c-2.6,0-3.5-0.9-3.5-2.8c0-0.5,0.1-1,0.2-1.6l3.5-16.7h1.7l-3.6,16.8
			c-0.1,0.5-0.1,0.9-0.1,1.2c0,1,0.5,1.4,1.6,1.4c0.2,0,0.3,0,0.5-0.1L607.9,407.4z"/>
		<path fill="#00AEEF" d="M622.1,405c-1.4,1.5-3.1,2.6-5.2,2.6c-3.4,0-5.2-2.6-5.2-6.2c0-4.3,2.6-9.4,7-9.4c3.3,0,4.7,2.6,4.7,5.9
			c0,0.5,0,1-0.1,1.5l-0.1,1h-9.6c-0.1,0.4-0.1,0.7-0.1,1c0,3,1.4,4.6,3.5,4.6c1.5,0,2.9-1,3.9-2.2L622.1,405z M621.7,398.9
			c0.1-0.3,0.1-0.7,0.1-1.1c0-2.7-1.2-4.4-3.1-4.4c-2.4,0-4.2,2.6-4.8,5.5H621.7z"/>
		<path fill="#00AEEF" d="M631.6,407.3c-0.5,0.2-1.2,0.3-1.9,0.3c-2.3,0-3.6-1.5-3.6-3.5c0-0.5,0.1-1.1,0.2-1.6l1.8-8.7h-2l0.3-1.5
			h2l0.8-3.6h1.7l-0.7,3.6h3.3l-0.3,1.5h-3.3l-1.9,8.9c-0.1,0.4-0.1,0.8-0.1,1.1c0,1.4,0.7,2.2,2,2.2c0.5,0,1-0.1,1.5-0.3
			L631.6,407.3z"/>
		<path fill="#00AEEF" d="M634.9,407.6c-0.6,0-1.1-0.5-1.1-1.1s0.5-1.1,1.1-1.1c0.6,0,1.1,0.5,1.1,1.1S635.5,407.6,634.9,407.6z"/>
	</g>
</g>
<g id="Layer_3" display="none">
</g>
<g id="svg_demo">
</g>
</svg>
