<?xml version="1.0" encoding="utf-8"?>
<!-- Generator: Adobe Illustrator 20.1.0, SVG Export Plug-In . SVG Version: 6.00 Build 0)  -->
<svg version="1.1" xmlns="http://www.w3.org/2000/svg" xmlns:xlink="http://www.w3.org/1999/xlink" x="0px" y="0px" width="843.6px"
	 height="587.7px" viewBox="0 0 843.6 587.7" enable-background="new 0 0 843.6 587.7" xml:space="preserve">
<pattern  x="1526" y="-6073.1" width="28.8" height="28.8" patternUnits="userSpaceOnUse" id="_x31_0_dpi_40_x25_" viewBox="2.9 -31.7 28.8 28.8" overflow="visible">
	<g>
		<rect x="2.9" y="-31.7" fill="none" width="28.8" height="28.8"/>
		<g>
			<circle fill="#F7941D" cx="31.7" cy="-2.9" r="2.9"/>
			<circle fill="#F7941D" cx="17.3" cy="-2.9" r="2.9"/>
			<circle fill="#F7941D" cx="31.7" cy="-17.3" r="2.9"/>
			<circle fill="#F7941D" cx="17.3" cy="-17.3" r="2.9"/>
			<circle fill="#F7941D" cx="10.1" cy="-10.1" r="2.9"/>
			<circle fill="#F7941D" cx="24.5" cy="-10.1" r="2.9"/>
			<circle fill="#F7941D" cx="10.1" cy="-24.5" r="2.9"/>
			<circle fill="#F7941D" cx="24.5" cy="-24.5" r="2.9"/>
		</g>
		<g>
			<circle fill="#F7941D" cx="2.9" cy="-2.9" r="2.9"/>
			<circle fill="#F7941D" cx="2.9" cy="-17.3" r="2.9"/>
		</g>
		<g>
			<circle fill="#F7941D" cx="31.7" cy="-31.7" r="2.9"/>
			<circle fill="#F7941D" cx="17.3" cy="-31.7" r="2.9"/>
		</g>
		<g>
			<circle fill="#F7941D" cx="2.9" cy="-31.7" r="2.9"/>
		</g>
	</g>
</pattern>
<g id="Layer_1">
	<pattern  id="SVGID_1_" xlink:href="#_x31_0_dpi_40_x25_" patternTransform="matrix(1 0 0 1 -96.6804 39.6409)">
	</pattern>
	<path fill="url(#SVGID_1_)" d="M826,0H12C5.4,0,0,5.4,0,12v93.6c29.4-55.8,88-94.1,155.1-94.1h495.4c96.3,0,175.2,78.8,175.2,175.2
		v0c0,81.4-56.2,150.2-131.7,169.7c-21.9,119-126.8,209.9-251.9,209.9H182.3c-6.6,0-12-5.4-12-12V361.8h-15.1
		C88,361.8,29.4,323.5,0,267.7v308c0,6.6,5.4,12,12,12h814c6.6,0,12-5.4,12-12V12C838,5.4,832.6,0,826,0z"/>
	<g>
		<path fill="#F7941D" d="M74.7,138.3c-1.9,3.4-4.5,6.9-9.9,6.9c-6.3,0-9.2-5.2-9.2-12.1c0-13.4,6.8-24.6,16.3-24.6
			c6.3,0,10.2,4.4,10.2,10.1c0,0.7-0.1,1.5-0.2,2.3L79,134.9c-0.3,1.1-0.4,2-0.4,2.9c0,2.3,1.3,3.2,3.8,3.2c0.4,0,0.8,0,1.3-0.1
			c-0.3,1.4-0.5,2.7-0.9,4c-6.1,0-8.2-2.2-8-6.6H74.7z M77.8,121.2c0.1-0.9,0.2-1.7,0.2-2.4c0-3.6-2.3-6.5-6.3-6.5
			c-8.5,0-12,13.2-12,20.2c0,4.8,1.3,8.9,6,8.9c6.4,0,9.7-8.9,11.5-17.3L77.8,121.2z"/>
		<path fill="#F7941D" d="M116.4,95.6h4.1l-2.7,12.9c-0.5,2.5-1.4,5.7-1.4,5.7h0.1c1.9-3.1,4.8-5.7,9.3-5.7c5.7,0,9.1,3.8,9.1,12.1
			c0,12.6-6.5,24.5-16.3,24.5c-6,0-9.8-3.9-9.8-11.2c0-1.8,0.3-3.8,0.7-6L116.4,95.6z M113.3,129c-0.4,1.7-0.5,3.2-0.5,4.6
			c0,5,2.3,7.8,6.2,7.8c7.2,0,11.8-11.4,11.8-20.4c0-5.4-1.7-8.7-6.1-8.7c-5.8,0-9.1,6-10.2,11.4L113.3,129z"/>
		<path fill="#F7941D" d="M138.3,144.5l5.8-27.3c0.8-3.7,1-6,1-7.4v-0.7h3.8c0,0,0,0.3,0,0.8c0,1.1-0.2,2.6-0.5,4.4h0.1
			c1.9-3.2,5-5.8,9.5-5.8c0.9,0,1.7,0.1,2.5,0.3c-0.4,1.3-0.7,2.6-1.1,4c-0.6-0.2-1.4-0.3-2.3-0.3c-6.3,0-9.3,5.8-10.6,11.9
			l-4.2,20.1H138.3z"/>
		<path fill="#F7941D" d="M169.4,144.6c0,0-0.5,0.1-1.6,0.1c-4.5,0-6.8-2.5-6.8-6.6c0-1.1,0.2-2.3,0.5-3.6l3.8-18
			c0.4-1.9,0.9-3.5,0.9-5.8v-1.5h4c0,0,0,0.1,0,0.5c0.1,1.1-0.2,3.9-1.1,8.6l-3.4,16.5c-0.2,1.1-0.4,1.9-0.4,2.7
			c0,2.4,1.1,3.4,3.5,3.4c0.5,0,0.9-0.1,1.5-0.1L169.4,144.6z M170.2,103c-1.5,0-2.5-1.1-2.5-2.5c0-1.5,1.1-2.6,2.5-2.6
			c1.4,0,2.6,1.1,2.6,2.6C172.8,101.9,171.6,103,170.2,103z"/>
		<path fill="#F7941D" d="M201.9,139.2c-3.3,3.6-7.3,6-12.1,6c-7.9,0-12.1-6.1-12.1-14.5c0-10.1,6-22.1,16.3-22.1
			c7.6,0,11.1,6.1,11.1,13.7c0,1.1-0.1,2.3-0.3,3.6l-0.3,2.4h-22.6c-0.1,0.9-0.1,1.7-0.1,2.4c0,7.1,3.3,10.8,8.3,10.8
			c3.6,0,6.8-2.3,9-5.1L201.9,139.2z M201,125c0.1-0.8,0.2-1.7,0.2-2.5c0-6.3-2.7-10.3-7.4-10.3c-5.7,0-9.8,6-11.3,12.9H201z"/>
		<path fill="#F7941D" d="M210.2,144.5l6.7-31.7h-5.4l0.8-3.6h5.4l0.6-2.9c1.5-7.4,4-11.7,10.2-11.7c2.5,0,4.4,0.7,6,1.7l-2,3.4
			c-1-0.9-2.5-1.5-3.8-1.5c-3,0-5.2,2.1-5.9,5.9l-1,5h7.2l-0.8,3.6H221l-6.7,31.7H210.2z"/>
		<path fill="#F7941D" d="M266.4,137.8h-0.1c-1.9,3.3-4.9,6-9.3,6c-6.3,0-9.2-5.2-9.2-12.1c0-9.6,5.1-23.1,15.7-23.1
			c4.4,0,7.1,2.4,8,6h0.1c0.5-2.9,1.8-5.4,1.8-5.4h3.9c-0.3,0.4-1.3,2.5-2,5.8c-2.1,9.6-4.2,19.3-6.2,28.9
			c-2.1,10-6.6,14.8-14.3,14.8c-5,0-8.6-2.1-10.7-5.1l3.1-2.8c1.8,2.5,4.6,4.2,8,4.2c5.2,0,8-4.3,9.7-11.1L266.4,137.8z
			 M269.7,121.3c0.1-0.7,0.3-1.4,0.3-2.2c0-3.8-2.3-6.8-6.5-6.8c-8.5,0-11.7,12.4-11.7,19.1c0,4.6,1.6,8.5,6.3,8.5
			c4.8,0,8.8-4.7,11.1-16.3L269.7,121.3z"/>
		<path fill="#F7941D" d="M307.7,144.8c-6.6,0-7.8-2.4-8-6.2h-0.1c-1.9,3.5-4.6,6.6-9.4,6.6c-6.4,0-9.3-4.2-9.3-9.8
			c0-1.3,0.2-2.8,0.5-4.2l4.6-22h4.2l-4.8,22.3c-0.3,1.1-0.3,2.3-0.3,3.4c0,3.5,1.7,6.6,6.2,6.6c5.5,0,8.6-6,9.7-11.4l4.4-20.9h4.1
			l-5.4,25.6c-0.2,1.1-0.4,2-0.4,2.8c0,2.3,1.2,3.3,3.8,3.3c0.4,0,0.8-0.1,1.3-0.1L307.7,144.8z"/>
		<path fill="#F7941D" d="M323.7,144.6c0,0-0.5,0.1-1.6,0.1c-4.5,0-6.8-2.5-6.8-6.6c0-1.1,0.2-2.3,0.5-3.6l3.8-18
			c0.4-1.9,0.9-3.5,0.9-5.8v-1.5h4c0,0,0,0.1,0,0.5c0.1,1.1-0.2,3.9-1.1,8.6l-3.4,16.5c-0.2,1.1-0.4,1.9-0.4,2.7
			c0,2.4,1.1,3.4,3.5,3.4c0.5,0,0.9-0.1,1.5-0.1L323.7,144.6z M324.6,103c-1.5,0-2.5-1.1-2.5-2.5c0-1.5,1.1-2.6,2.5-2.6
			c1.4,0,2.6,1.1,2.6,2.6C327.2,101.9,326,103,324.6,103z"/>
		<path fill="#F7941D" d="M359.3,144.9c-5.6,0-8-1.8-8-6.6c-1.9,3.7-5,6.9-10,6.9c-6.4,0-9.2-5.5-9.2-12.3c0-9.7,5.3-24.3,15.9-24.3
			c4.5,0,6.8,2.4,7.8,5.7h0.1c0,0,0.5-3.3,0.9-5.4l2.8-13.3h4.2l-8.3,39.2c-0.2,1.1-0.4,1.9-0.4,2.7c0,2.4,1.1,3.4,3.5,3.4
			c0.5,0,0.9-0.1,1.5-0.1L359.3,144.9z M352.5,130.3c0.9-3.1,1.9-7.3,1.9-10.8c0-4-1.9-7.2-6.2-7.2c-5.4,0-9.4,5.2-11.4,14.6
			c-0.4,1.9-0.7,4-0.7,5.9c0,4.6,1.5,8.6,6,8.6C346.4,141.4,350.5,137.3,352.5,130.3z"/>
		<path fill="#F7941D" d="M391.3,139.2c-3.3,3.6-7.3,6-12.1,6c-7.9,0-12.1-6.1-12.1-14.5c0-10.1,6-22.1,16.3-22.1
			c7.6,0,11.1,6.1,11.1,13.7c0,1.1-0.1,2.3-0.3,3.6l-0.3,2.4h-22.6c-0.1,0.9-0.1,1.7-0.1,2.4c0,7.1,3.3,10.8,8.3,10.8
			c3.6,0,6.8-2.3,9-5.1L391.3,139.2z M390.4,125c0.1-0.8,0.2-1.7,0.2-2.5c0-6.3-2.7-10.3-7.4-10.3c-5.7,0-9.8,6-11.3,12.9H390.4z"/>
		<path fill="#F7941D" d="M431,144.5c-1.3,0.5-2.8,0.7-4.4,0.7c-5.5,0-8.4-3.4-8.4-8.3c0-1.3,0.2-2.5,0.5-3.8l4.3-20.3h-4.7l0.8-3.6
			h4.6l1.9-8.4h4l-1.7,8.4h7.6l-0.7,3.6h-7.7l-4.4,20.8c-0.2,0.9-0.3,1.8-0.3,2.7c0,3.2,1.5,5.2,4.8,5.2c1.3,0,2.3-0.3,3.4-0.8
			L431,144.5z"/>
		<path fill="#F7941D" d="M438,131.2c0-11,5.7-22.6,16.3-22.6c7.6,0,11.1,6.2,11.1,13.9c0,11-5.6,22.7-16.3,22.7
			C441.5,145.2,438,138.9,438,131.2z M461.4,122.7c0-6.5-2.7-10.4-7.4-10.4c-7.2,0-12,9.6-12,18.7c0,6.5,2.8,10.4,7.4,10.4
			C456.6,141.4,461.4,131.9,461.4,122.7z"/>
	</g>
	<g>
		<path fill="#F7941D" d="M65.5,226.7c1.7,5.4,6.3,9,11.4,9c5.3,0,9.4-2.5,9.4-8c0-11.7-29.6-11.6-29.6-33.4
			c0-11.1,8.1-19.6,19.8-19.6s18.3,6.5,21.8,15.5l-11.6,7.2c-1.7-5.9-4.8-9.8-10.2-9.8c-3.8,0-6.5,2.4-6.5,6.4
			c0,12.7,29.6,10.1,29.6,33.8c0,12.7-9.4,20.8-22.8,20.8c-11.1,0-19.2-5.7-22.8-14.1L65.5,226.7z"/>
		<path fill="#F7941D" d="M153.9,234.4c-3.6,8.4-10.2,14.1-21.3,14.1c-19.8,0-25.2-18.2-25.2-36.9c0-18.7,5.4-36.9,25.2-36.9
			c11.7,0,18.3,6.5,21.8,15.5l-11.6,7.2c-1.7-5.9-4.8-9.8-10.2-9.8c-9.1,0-11.9,11.2-11.9,24.1s2.8,24.1,11.9,24.1
			c5.1,0,8.2-3.6,9.9-9L153.9,234.4z"/>
		<path fill="#F7941D" d="M194.7,247.6l-8.9-22.1c-1,0.1-2,0.1-3.1,0.1h-4.6v22h-13.3v-71.7h19.9c16.3,0,23.1,12.1,23.1,24.6
			c0,7.9-3.1,15.8-9.6,20.6l10.8,26.5H194.7z M183.1,212.7c7.6,0,11.4-5.1,11.4-12.1c0-7.3-3.9-12.1-11.5-12.1h-4.9v24.2H183.1z"/>
		<path fill="#F7941D" d="M222.1,247.6v-71.7h38.1v12.8h-24.8V207h20.9v12.8h-20.9v15h24.8v12.8H222.1z"/>
		<path fill="#F7941D" d="M275.7,247.6v-71.7h38.1v12.8h-24.8V207H310v12.8h-20.9v15h24.8v12.8H275.7z"/>
		<path fill="#F7941D" d="M361.4,247.6l-18.3-40.3c-0.8-1.9-1.7-4.8-1.7-4.8h-0.2c0,0,0.1,3.1,0.1,5.3v39.8h-11.9v-71.7H342l18,39.2
			c0.8,1.7,1.7,4.8,1.7,4.8h0.2c0-0.5-0.1-3.5-0.1-5.2v-38.8h11.9v71.7H361.4z"/>
		<path fill="#F7941D" d="M416.8,247.6v-71.7h19.9c16.3,0,23.1,13.1,23.1,25.6s-7.6,26.1-25,26.1h-4.6v20H416.8z M435.2,214.8
			c7.6,0,11.4-6.1,11.4-13.1c0-7.3-3.9-13.1-11.5-13.1h-4.9v26.2H435.2z"/>
		<path fill="#F7941D" d="M500.7,247.6l-8.9-22.1c-1,0.1-2,0.1-3.1,0.1h-4.6v22h-13.3v-71.7h19.9c16.3,0,23.1,12.1,23.1,24.6
			c0,7.9-3.1,15.8-9.6,20.6l10.8,26.5H500.7z M489.1,212.7c7.6,0,11.4-5.1,11.4-12.1c0-7.3-3.9-12.1-11.5-12.1h-4.9v24.2H489.1z"/>
		<path fill="#F7941D" d="M528.1,247.6v-71.7h13.3v71.7H528.1z"/>
		<path fill="#F7941D" d="M589.9,247.6l-18.3-40.3c-0.8-1.9-1.7-4.8-1.7-4.8h-0.2c0,0,0.1,3.1,0.1,5.3v39.8h-11.9v-71.7h12.7
			l18,39.2c0.8,1.7,1.7,4.8,1.7,4.8h0.2c0-0.5-0.1-3.5-0.1-5.2v-38.8h11.9v71.7H589.9z"/>
		<path fill="#F7941D" d="M626.2,247.6v-58.9h-12.6v-12.8h38.6v12.8h-12.6v58.9H626.2z"/>
		<path fill="#F7941D" d="M663.5,247.6v-71.7h13.3v71.7H663.5z"/>
		<path fill="#F7941D" d="M725.3,247.6l-18.3-40.3c-0.8-1.9-1.7-4.8-1.7-4.8H705c0,0,0.1,3.1,0.1,5.3v39.8h-11.9v-71.7h12.7l18,39.2
			c0.8,1.7,1.7,4.8,1.7,4.8h0.2c0-0.5-0.1-3.5-0.1-5.2v-38.8h11.9v71.7H725.3z"/>
		<path fill="#F7941D" d="M799.1,212.6c0,20.7-6.7,36-23.9,36c-19.8,0-25.2-18.2-25.2-36.9c0-18.7,5.4-36.9,25.2-36.9
			c11.7,0,18.3,6.5,21.8,15.5l-11.6,7.2c-1.7-5.9-4.8-9.8-10.2-9.8c-9.1,0-11.9,11.2-11.9,24.1s2.8,24.1,11.9,24.1
			c7.9,0,9.6-8.2,9.6-14.8h-8.4v-12.8h22.6V212.6z"/>
	</g>
	<polygon fill="#F7941D" points="457,502.7 428.5,519.2 399.9,535.7 399.9,502.7 399.9,469.7 428.5,486.2 	"/>
</g>
<g id="Layer_3" display="none">
</g>
<g id="svg_demo">
</g>
</svg>
