<?xml version="1.0" encoding="utf-8"?>
<!-- Generator: Adobe Illustrator 20.1.0, SVG Export Plug-In . SVG Version: 6.00 Build 0)  -->
<svg version="1.1" xmlns="http://www.w3.org/2000/svg" xmlns:xlink="http://www.w3.org/1999/xlink" x="0px" y="0px" width="81.3px"
	 height="228.7px" viewBox="0 0 81.3 228.7" enable-background="new 0 0 81.3 228.7" xml:space="preserve">
<g id="Layer_1">
	<g>
		<path fill="#FFB900" stroke="#231F20" stroke-width="5" stroke-miterlimit="10" d="M74.2,32.7v164.6c0,4.3-3.5,7.9-7.9,7.9h-5.2
			c-4.3,0-7.9-3.5-7.9-7.9V32.7c0-4.3,3.5-7.9,7.9-7.9h5.2C70.7,24.8,74.2,28.3,74.2,32.7z"/>
		<path fill="#00AEEF" stroke="#231F20" stroke-width="5" stroke-miterlimit="10" d="M61.1,26.3v177.3c0,10.4-8.4,18.8-18.8,18.8
			H25.5c-10.4,0-18.8-8.4-18.8-18.8V26.3c0-10.4,8.4-18.8,18.8-18.8h16.7C52.6,7.5,61.1,15.9,61.1,26.3z"/>
		<path fill="#FFB900" stroke="#231F20" stroke-width="5" stroke-miterlimit="10" d="M74.2,32.7v164.6c0,4.3-3.5,7.9-7.9,7.9h-5.2
			c-4.3,0-7.9-3.5-7.9-7.9V32.7c0-4.3,3.5-7.9,7.9-7.9h5.2C70.7,24.8,74.2,28.3,74.2,32.7z"/>
		<path fill="#00AEEF" stroke="#231F20" stroke-width="5" stroke-miterlimit="10" d="M61.1,26.3v177.3c0,10.4-8.4,18.8-18.8,18.8
			H25.5c-10.4,0-18.8-8.4-18.8-18.8V26.3c0-10.4,8.4-18.8,18.8-18.8h16.7C52.6,7.5,61.1,15.9,61.1,26.3z"/>
	</g>
</g>
<g id="svg_demo">
</g>
</svg>
