<?xml version="1.0" encoding="utf-8"?>
<!-- Generator: Adobe Illustrator 20.1.0, SVG Export Plug-In . SVG Version: 6.00 Build 0)  -->
<svg version="1.1" xmlns="http://www.w3.org/2000/svg" xmlns:xlink="http://www.w3.org/1999/xlink" x="0px" y="0px" width="86.7px"
	 height="228.7px" viewBox="0 0 86.7 228.7" enable-background="new 0 0 86.7 228.7" xml:space="preserve">
<g id="Layer_1">
	<g>
		<rect x="6.1" y="127.8" fill="#00AEEF" stroke="#231F20" stroke-miterlimit="10" width="74.1" height="93.6"/>
		<rect x="6.1" y="8.6" fill="#FFB900" stroke="#231F20" stroke-miterlimit="10" width="74.1" height="93.6"/>
		<g>
			<path fill="#FFB900" d="M21.2,184.6v-24.5h4.6v24.5H21.2z"/>
			<path fill="#FFB900" d="M42.3,184.6L36,170.8c-0.3-0.7-0.6-1.6-0.6-1.6h-0.1c0,0,0,1.1,0,1.8v13.6h-4.1v-24.5h4.3l6.2,13.4
				c0.3,0.6,0.6,1.6,0.6,1.6h0.1c0-0.2,0-1.2,0-1.8v-13.3h4.1v24.5H42.3z"/>
			<path fill="#FFB900" d="M62.3,184.6l-4-10.2h-0.1c0,0-0.6,1.2-1.5,2.5v7.7h-4.6v-24.5h4.6v9.3h0.1c0,0,0.5-1,0.8-1.6l4.5-7.6h5.3
				l-6.2,9.8l6.1,14.7H62.3z"/>
		</g>
		<g>
			<path fill="#00AEEF" d="M21.2,65.4V40.8h4.6v24.5H21.2z"/>
			<path fill="#00AEEF" d="M42.3,65.4L36,51.6c-0.3-0.7-0.6-1.6-0.6-1.6h-0.1c0,0,0,1.1,0,1.8v13.6h-4.1V40.8h4.3l6.2,13.4
				c0.3,0.6,0.6,1.6,0.6,1.6h0.1c0-0.2,0-1.2,0-1.8V40.8h4.1v24.5H42.3z"/>
			<path fill="#00AEEF" d="M62.3,65.4l-4-10.2h-0.1c0,0-0.6,1.2-1.5,2.5v7.7h-4.6V40.8h4.6v9.3h0.1c0,0,0.5-1,0.8-1.6l4.5-7.6h5.3
				l-6.2,9.8l6.1,14.7H62.3z"/>
		</g>
		<rect x="6.1" y="127.8" fill="#00AEEF" stroke="#231F20" stroke-width="5" stroke-miterlimit="10" width="74.1" height="93.6"/>
		<rect x="6.1" y="8.6" fill="#FFB900" stroke="#231F20" stroke-width="5" stroke-miterlimit="10" width="74.1" height="93.6"/>
		<g>
			<path fill="#FFB900" d="M21.2,184.6v-24.5h4.6v24.5H21.2z"/>
			<path fill="#FFB900" d="M42.3,184.6L36,170.8c-0.3-0.7-0.6-1.6-0.6-1.6h-0.1c0,0,0,1.1,0,1.8v13.6h-4.1v-24.5h4.3l6.2,13.4
				c0.3,0.6,0.6,1.6,0.6,1.6h0.1c0-0.2,0-1.2,0-1.8v-13.3h4.1v24.5H42.3z"/>
			<path fill="#FFB900" d="M62.3,184.6l-4-10.2h-0.1c0,0-0.6,1.2-1.5,2.5v7.7h-4.6v-24.5h4.6v9.3h0.1c0,0,0.5-1,0.8-1.6l4.5-7.6h5.3
				l-6.2,9.8l6.1,14.7H62.3z"/>
		</g>
		<g>
			<path fill="#00AEEF" d="M21.2,65.4V40.8h4.6v24.5H21.2z"/>
			<path fill="#00AEEF" d="M42.3,65.4L36,51.6c-0.3-0.7-0.6-1.6-0.6-1.6h-0.1c0,0,0,1.1,0,1.8v13.6h-4.1V40.8h4.3l6.2,13.4
				c0.3,0.6,0.6,1.6,0.6,1.6h0.1c0-0.2,0-1.2,0-1.8V40.8h4.1v24.5H42.3z"/>
			<path fill="#00AEEF" d="M62.3,65.4l-4-10.2h-0.1c0,0-0.6,1.2-1.5,2.5v7.7h-4.6V40.8h4.6v9.3h0.1c0,0,0.5-1,0.8-1.6l4.5-7.6h5.3
				l-6.2,9.8l6.1,14.7H62.3z"/>
		</g>
	</g>
</g>
<g id="svg_demo">
</g>
</svg>
