<?xml version="1.0" encoding="utf-8"?>
<!-- Generator: Adobe Illustrator 20.1.0, SVG Export Plug-In . SVG Version: 6.00 Build 0)  -->
<svg version="1.1" xmlns="http://www.w3.org/2000/svg" xmlns:xlink="http://www.w3.org/1999/xlink" x="0px" y="0px" width="102px"
	 height="135.9px" viewBox="0 0 102 135.9" enable-background="new 0 0 102 135.9" xml:space="preserve">
<g id="Layer_1">
	<g>
		
			<rect x="-12" y="21.2" transform="matrix(-1.836970e-16 1 -1 -1.836970e-16 118.9725 16.9725)" fill="#FFB900" stroke="#231F20" stroke-miterlimit="10" width="126.1" height="93.5"/>
		<g>
			<path fill="#00AEEF" d="M30.6,76.1v-22h4.1v22H30.6z"/>
			<path fill="#00AEEF" d="M49.6,76.1L44,63.7c-0.3-0.6-0.5-1.5-0.5-1.5h-0.1c0,0,0,0.9,0,1.6v12.2h-3.6v-22h3.9l5.5,12
				c0.3,0.5,0.5,1.5,0.5,1.5h0.1c0-0.2,0-1.1,0-1.6V54.1h3.6v22H49.6z"/>
			<path fill="#00AEEF" d="M67.6,76.1L64,66.9h-0.1c0,0-0.6,1.1-1.3,2.2v6.9h-4.1v-22h4.1v8.3h0.1c0,0,0.4-0.9,0.7-1.4l4-6.9h4.7
				l-5.6,8.8L72,76.1H67.6z"/>
		</g>
		
			<rect x="-12" y="21.2" transform="matrix(-1.836970e-16 1 -1 -1.836970e-16 118.9725 16.9725)" fill="#FFB900" stroke="#231F20" stroke-width="5" stroke-miterlimit="10" width="126.1" height="93.5"/>
		<g>
			<path fill="#00AEEF" d="M16.6,77.2V57.8h5.4c4.4,0,6.2,3.5,6.2,6.9c0,3.4-2,7.1-6.7,7.1h-1.2v5.4H16.6z M21.5,68.3
				c2,0,3.1-1.7,3.1-3.5c0-2-1.1-3.5-3.1-3.5h-1.3v7.1H21.5z"/>
			<path fill="#00AEEF" d="M39.7,77.2v-7.3h-5v7.3h-3.6V57.8h3.6v8.6h5v-8.6h3.6v19.4H39.7z"/>
			<path fill="#00AEEF" d="M46.6,67.5c0-5.3,1.6-10,6.7-10c5.1,0,6.7,4.6,6.7,10s-1.6,10-6.7,10C48.2,77.4,46.6,72.8,46.6,67.5z
				 M56.3,67.5c0-4-0.9-6.5-3.1-6.5s-3.1,2.5-3.1,6.5c0,4,0.9,6.5,3.1,6.5C55.4,74,56.3,71.5,56.3,67.5z"/>
			<path fill="#00AEEF" d="M64.8,77.2V61.3h-3.4v-3.5h10.4v3.5h-3.4v15.9H64.8z"/>
			<path fill="#00AEEF" d="M73.2,67.5c0-5.3,1.6-10,6.7-10c5.1,0,6.7,4.6,6.7,10s-1.6,10-6.7,10C74.9,77.4,73.2,72.8,73.2,67.5z
				 M83,67.5c0-4-0.9-6.5-3.1-6.5s-3.1,2.5-3.1,6.5c0,4,0.9,6.5,3.1,6.5C82.1,74,83,71.5,83,67.5z"/>
		</g>
	</g>
</g>
<g id="Layer_3" display="none">
</g>
<g id="svg_demo">
</g>
</svg>
