<?xml version="1.0" encoding="utf-8"?>
<!-- Generator: Adobe Illustrator 20.1.0, SVG Export Plug-In . SVG Version: 6.00 Build 0)  -->
<svg version="1.1" xmlns="http://www.w3.org/2000/svg" xmlns:xlink="http://www.w3.org/1999/xlink" x="0px" y="0px" width="110.7px"
	 height="173.2px" viewBox="0 0 110.7 173.2" enable-background="new 0 0 110.7 173.2" xml:space="preserve">
<g id="Layer_1">
	<g>
		<path fill="#00AEEF" stroke="#231F20" stroke-linecap="round" stroke-linejoin="round" stroke-miterlimit="10" d="M57.4,164.4
			h-3.5c-5,0-9-4.1-9-9v-3.5c0-5,4.1-9,9-9h3.5c5,0,9,4.1,9,9v3.5C66.5,160.4,62.4,164.4,57.4,164.4z"/>
		<path fill="#00AEEF" stroke="#231F20" stroke-linecap="round" stroke-linejoin="round" stroke-miterlimit="10" d="M65,153.6H46.3
			c-6.6,0-12-5.4-12-12v-34.4c0-6.6,5.4-12,12-12H65c6.6,0,12,5.4,12,12v34.4C77,148.2,71.6,153.6,65,153.6z"/>
		
			<path fill="#FFB900" stroke="#231F20" stroke-width="5" stroke-linecap="round" stroke-linejoin="round" stroke-miterlimit="10" d="
			M55.7,5.5C28.3,5.5,6.1,33.4,6.1,67.8h99.2C105.3,33.4,83.1,5.5,55.7,5.5z"/>
		<path fill="#00AEEF" stroke="#231F20" stroke-linecap="round" stroke-linejoin="round" stroke-miterlimit="10" d="M6.1,67.8
			c0,0,22.2,62.4,49.6,62.4c27.4,0,49.6-62.4,49.6-62.4H6.1z"/>
		
			<path fill="#00AEEF" stroke="#231F20" stroke-width="5" stroke-linecap="round" stroke-linejoin="round" stroke-miterlimit="10" d="
			M57.4,164.4h-3.5c-5,0-9-4.1-9-9v-3.5c0-5,4.1-9,9-9h3.5c5,0,9,4.1,9,9v3.5C66.5,160.4,62.4,164.4,57.4,164.4z"/>
		
			<path fill="#00AEEF" stroke="#231F20" stroke-width="5" stroke-linecap="round" stroke-linejoin="round" stroke-miterlimit="10" d="
			M65,153.6H46.3c-6.6,0-12-5.4-12-12v-34.4c0-6.6,5.4-12,12-12H65c6.6,0,12,5.4,12,12v34.4C77,148.2,71.6,153.6,65,153.6z"/>
		
			<path fill="#FFB900" stroke="#231F20" stroke-width="5" stroke-linecap="round" stroke-linejoin="round" stroke-miterlimit="10" d="
			M55.7,5.5C28.3,5.5,6.1,33.4,6.1,67.8h99.2C105.3,33.4,83.1,5.5,55.7,5.5z"/>
		
			<path fill="#00AEEF" stroke="#231F20" stroke-width="5" stroke-linecap="round" stroke-linejoin="round" stroke-miterlimit="10" d="
			M6.1,67.8c0,0,22.2,62.4,49.6,62.4c27.4,0,49.6-62.4,49.6-62.4H6.1z"/>
	</g>
	<g>
		<rect x="-3" y="-308.1" fill="none" width="594" height="680"/>
	</g>
</g>
<g id="svg_demo">
</g>
</svg>
