<?xml version="1.0" encoding="utf-8"?>
<!-- Generator: Adobe Illustrator 20.1.0, SVG Export Plug-In . SVG Version: 6.00 Build 0)  -->
<svg version="1.1" xmlns="http://www.w3.org/2000/svg" xmlns:xlink="http://www.w3.org/1999/xlink" x="0px" y="0px" width="76px"
	 height="191.3px" viewBox="0 0 76 191.3" enable-background="new 0 0 76 191.3" xml:space="preserve">
<g id="Layer_1">
	<path fill="#FFB900" stroke="#231F20" stroke-miterlimit="10" d="M50.4,20.3V6.2C46.8,5,39.8,4.6,37.7,4.5v0c0,0-0.1,0-0.3,0
		c-0.2,0-0.3,0-0.3,0v0C35,4.6,28,5,24.4,6.2v14.1l3.2,0.4h19.6L50.4,20.3z"/>
	<path fill="#00AEEF" stroke="#231F20" stroke-miterlimit="10" d="M70.9,63.4c0,0,0-15.8,0-24.6S47.2,23.4,47.2,23.4v-2.7H27.6v2.7
		c0,0-23.7,6.6-23.7,15.5s0,24.6,0,24.6s6.6,3.6,6.6,7.7s0,12.3,0,12.3S3.9,84,3.9,94.5s0,89,0,89s4.4,3.9,33.2,3.9v0
		c0.1,0,0.2,0,0.3,0c0.1,0,0.2,0,0.3,0v0c28.8-0.1,33.2-3.9,33.2-3.9s0-78.5,0-89s-6.6-11.2-6.6-11.2s0-8.2,0-12.3
		S70.9,63.4,70.9,63.4z"/>
	<g>
		<g>
			<path fill="#FFB900" d="M23.6,130.1H19l-5.1-22h4.3l2.8,14c0.2,0.8,0.3,2,0.3,2h0.1c0,0,0.1-1.1,0.3-2l2.8-14h4.3L23.6,130.1z"/>
			<path fill="#FFB900" d="M31.6,130.1v-22h11.7v3.9h-7.6v5.6h6.4v3.9h-6.4v4.6h7.6v3.9H31.6z"/>
			<path fill="#FFB900" d="M61.9,119.4c0,6.4-2,11-7.3,11c-6.1,0-7.7-5.6-7.7-11.3s1.7-11.3,7.7-11.3c3.6,0,5.6,2,6.7,4.8l-3.6,2.2
				c-0.5-1.8-1.5-3-3.1-3c-2.8,0-3.7,3.4-3.7,7.4c0,4,0.8,7.4,3.7,7.4c2.4,0,3-2.5,3-4.5h-2.6v-3.9h7V119.4z"/>
		</g>
	</g>
	
		<path fill="#FFB900" stroke="#231F20" stroke-width="5" stroke-linecap="round" stroke-linejoin="round" stroke-miterlimit="10" d="
		M50.4,20.3V6.2C46.8,5,39.8,4.6,37.7,4.5v0c0,0-0.1,0-0.3,0c-0.2,0-0.3,0-0.3,0v0C35,4.6,28,5,24.4,6.2v14.1l3.2,0.4h19.6
		L50.4,20.3z"/>
	<path fill="#00AEEF" stroke="#231F20" stroke-width="5" stroke-miterlimit="10" d="M70.9,63.4c0,0,0-15.8,0-24.6
		S47.2,23.4,47.2,23.4v-2.7H27.6v2.7c0,0-23.7,6.6-23.7,15.5s0,24.6,0,24.6s6.6,3.6,6.6,7.7s0,12.3,0,12.3S3.9,84,3.9,94.5
		s0,89,0,89s4.4,3.9,33.2,3.9v0c0.1,0,0.2,0,0.3,0c0.1,0,0.2,0,0.3,0v0c28.8-0.1,33.2-3.9,33.2-3.9s0-78.5,0-89s-6.6-11.2-6.6-11.2
		s0-8.2,0-12.3S70.9,63.4,70.9,63.4z"/>
	<g>
		<g>
			<path fill="#FFB900" d="M23.6,130.1H19l-5.1-22h4.3l2.8,14c0.2,0.8,0.3,2,0.3,2h0.1c0,0,0.1-1.1,0.3-2l2.8-14h4.3L23.6,130.1z"/>
			<path fill="#FFB900" d="M31.6,130.1v-22h11.7v3.9h-7.6v5.6h6.4v3.9h-6.4v4.6h7.6v3.9H31.6z"/>
			<path fill="#FFB900" d="M61.9,119.4c0,6.4-2,11-7.3,11c-6.1,0-7.7-5.6-7.7-11.3s1.7-11.3,7.7-11.3c3.6,0,5.6,2,6.7,4.8l-3.6,2.2
				c-0.5-1.8-1.5-3-3.1-3c-2.8,0-3.7,3.4-3.7,7.4c0,4,0.8,7.4,3.7,7.4c2.4,0,3-2.5,3-4.5h-2.6v-3.9h7V119.4z"/>
		</g>
	</g>
</g>
<g id="Layer_3">
</g>
<g id="svg_demo">
</g>
</svg>
