<?xml version="1.0" encoding="utf-8"?>
<!-- Generator: Adobe Illustrator 20.1.0, SVG Export Plug-In . SVG Version: 6.00 Build 0)  -->
<svg version="1.1" xmlns="http://www.w3.org/2000/svg" xmlns:xlink="http://www.w3.org/1999/xlink" x="0px" y="0px" width="356.6px"
	 height="86.2px" viewBox="0 0 356.6 86.2" enable-background="new 0 0 356.6 86.2" xml:space="preserve">
<g id="Layer_1">
	<g>
		<path fill="#FFFFFF" d="M29.5,28.3c-0.8,1.5-1.9,2.9-4.2,2.9c-2.7,0-3.9-2.2-3.9-5.1c0-5.7,2.9-10.5,7-10.5c2.7,0,4.3,1.9,4.3,4.3
			c0,0.3,0,0.7-0.1,1l-1.3,5.9c-0.1,0.5-0.2,0.9-0.2,1.2c0,1,0.5,1.4,1.6,1.4c0.2,0,0.3,0,0.5-0.1c-0.1,0.6-0.2,1.2-0.4,1.7
			C30.4,31.1,29.5,30.2,29.5,28.3L29.5,28.3z M30.8,21c0.1-0.4,0.1-0.7,0.1-1c0-1.5-1-2.8-2.7-2.8c-3.6,0-5.1,5.6-5.1,8.6
			c0,2,0.5,3.8,2.6,3.8c2.7,0,4.1-3.8,4.9-7.4L30.8,21z"/>
		<path fill="#FFFFFF" d="M47.3,10.1H49l-1.2,5.5c-0.2,1.1-0.6,2.4-0.6,2.4h0.1c0.8-1.3,2-2.4,4-2.4c2.4,0,3.9,1.6,3.9,5.2
			c0,5.4-2.8,10.5-7,10.5c-2.6,0-4.2-1.7-4.2-4.8c0-0.8,0.1-1.6,0.3-2.6L47.3,10.1z M46,24.4c-0.2,0.7-0.2,1.4-0.2,2
			c0,2.1,1,3.3,2.7,3.3c3.1,0,5-4.9,5-8.7c0-2.3-0.7-3.7-2.6-3.7c-2.5,0-3.9,2.6-4.4,4.9L46,24.4z"/>
		<path fill="#FFFFFF" d="M56.6,31l2.5-11.6c0.3-1.6,0.4-2.6,0.4-3.1v-0.3h1.6c0,0,0,0.1,0,0.3c0,0.5-0.1,1.1-0.2,1.9H61
			c0.8-1.4,2.1-2.5,4.1-2.5c0.4,0,0.7,0.1,1.1,0.1c-0.2,0.5-0.3,1.1-0.5,1.7c-0.3-0.1-0.6-0.1-1-0.1c-2.7,0-4,2.5-4.5,5.1L58.4,31
			H56.6z"/>
		<path fill="#FFFFFF" d="M69.9,31c0,0-0.2,0.1-0.7,0.1c-1.9,0-2.9-1.1-2.9-2.8c0-0.5,0.1-1,0.2-1.5l1.6-7.7
			c0.2-0.8,0.4-1.5,0.4-2.5v-0.6h1.7c0,0,0,0.1,0,0.2c0,0.5-0.1,1.7-0.5,3.7l-1.5,7.1c-0.1,0.5-0.2,0.8-0.2,1.1c0,1,0.5,1.5,1.5,1.5
			c0.2,0,0.4,0,0.6-0.1L69.9,31z M70.2,13.3c-0.6,0-1.1-0.5-1.1-1.1s0.5-1.1,1.1-1.1c0.6,0,1.1,0.5,1.1,1.1S70.8,13.3,70.2,13.3z"/>
		<path fill="#FFFFFF" d="M83.8,28.7c-1.4,1.5-3.1,2.6-5.2,2.6c-3.4,0-5.2-2.6-5.2-6.2c0-4.3,2.6-9.4,7-9.4c3.3,0,4.7,2.6,4.7,5.9
			c0,0.5,0,1-0.1,1.5l-0.1,1h-9.6c-0.1,0.4-0.1,0.7-0.1,1c0,3,1.4,4.6,3.5,4.6c1.5,0,2.9-1,3.9-2.2L83.8,28.7z M83.4,22.6
			c0.1-0.3,0.1-0.7,0.1-1.1c0-2.7-1.2-4.4-3.1-4.4c-2.4,0-4.2,2.6-4.8,5.5H83.4z"/>
		<path fill="#FFFFFF" d="M87.3,31l2.9-13.5h-2.3l0.3-1.5h2.3l0.3-1.2c0.7-3.2,1.7-5,4.3-5c1.1,0,1.9,0.3,2.6,0.7l-0.9,1.5
			c-0.4-0.4-1.1-0.6-1.6-0.6c-1.3,0-2.2,0.9-2.5,2.5l-0.4,2.1h3.1L95,17.5h-3.1L89.1,31H87.3z"/>
		<path fill="#FFFFFF" d="M111.3,28.1L111.3,28.1c-0.9,1.4-2.1,2.5-4,2.5c-2.7,0-3.9-2.2-3.9-5.1c0-4.1,2.2-9.9,6.7-9.9
			c1.9,0,3,1,3.4,2.6h0.1c0.2-1.3,0.8-2.3,0.8-2.3h1.7c-0.1,0.2-0.6,1.1-0.9,2.5c-0.9,4.1-1.8,8.2-2.6,12.3
			c-0.9,4.3-2.8,6.3-6.1,6.3c-2.1,0-3.7-0.9-4.6-2.2l1.3-1.2c0.8,1.1,2,1.8,3.4,1.8c2.2,0,3.4-1.8,4.1-4.7L111.3,28.1z M112.7,21.1
			c0.1-0.3,0.1-0.6,0.1-0.9c0-1.6-1-2.9-2.8-2.9c-3.6,0-5,5.3-5,8.2c0,1.9,0.7,3.6,2.7,3.6c2,0,3.7-2,4.7-7L112.7,21.1z"/>
		<path fill="#FFFFFF" d="M128.9,31.1c-2.8,0-3.3-1-3.4-2.6h-0.1c-0.8,1.5-2,2.8-4,2.8c-2.7,0-4-1.8-4-4.2c0-0.6,0.1-1.2,0.2-1.8
			l2-9.4h1.8l-2.1,9.5c-0.1,0.5-0.1,1-0.1,1.5c0,1.5,0.7,2.8,2.6,2.8c2.3,0,3.7-2.5,4.1-4.9l1.9-8.9h1.7l-2.3,10.9
			c-0.1,0.5-0.2,0.9-0.2,1.2c0,1,0.5,1.4,1.6,1.4c0.2,0,0.3,0,0.5-0.1L128.9,31.1z"/>
		<path fill="#FFFFFF" d="M135.8,31c0,0-0.2,0.1-0.7,0.1c-1.9,0-2.9-1.1-2.9-2.8c0-0.5,0.1-1,0.2-1.5L134,19
			c0.2-0.8,0.4-1.5,0.4-2.5v-0.6h1.7c0,0,0,0.1,0,0.2c0,0.5-0.1,1.7-0.5,3.7l-1.5,7.1c-0.1,0.5-0.2,0.8-0.2,1.1c0,1,0.5,1.5,1.5,1.5
			c0.2,0,0.4,0,0.6-0.1L135.8,31z M136.1,13.3c-0.6,0-1.1-0.5-1.1-1.1s0.5-1.1,1.1-1.1c0.6,0,1.1,0.5,1.1,1.1S136.7,13.3,136.1,13.3
			z"/>
		<path fill="#FFFFFF" d="M151,31.1c-2.4,0-3.4-0.8-3.4-2.8c-0.8,1.6-2.1,2.9-4.3,2.9c-2.7,0-3.9-2.3-3.9-5.3
			c0-4.1,2.3-10.4,6.8-10.4c1.9,0,2.9,1,3.3,2.4h0.1c0,0,0.2-1.4,0.4-2.3l1.2-5.7h1.8l-3.5,16.7c-0.1,0.5-0.2,0.8-0.2,1.1
			c0,1,0.5,1.5,1.5,1.5c0.2,0,0.4,0,0.6-0.1L151,31.1z M148.1,24.9c0.4-1.3,0.8-3.1,0.8-4.6c0-1.7-0.8-3.1-2.7-3.1
			c-2.3,0-4,2.2-4.9,6.2c-0.2,0.8-0.3,1.7-0.3,2.5c0,1.9,0.6,3.7,2.6,3.7C145.5,29.7,147.2,27.9,148.1,24.9z"/>
		<path fill="#FFFFFF" d="M164.6,28.7c-1.4,1.5-3.1,2.6-5.2,2.6c-3.4,0-5.2-2.6-5.2-6.2c0-4.3,2.6-9.4,7-9.4c3.3,0,4.7,2.6,4.7,5.9
			c0,0.5,0,1-0.1,1.5l-0.1,1h-9.6c-0.1,0.4-0.1,0.7-0.1,1c0,3,1.4,4.6,3.5,4.6c1.5,0,2.9-1,3.9-2.2L164.6,28.7z M164.2,22.6
			c0.1-0.3,0.1-0.7,0.1-1.1c0-2.7-1.2-4.4-3.1-4.4c-2.4,0-4.2,2.6-4.8,5.5H164.2z"/>
		<path fill="#FFFFFF" d="M181.6,31c-0.5,0.2-1.2,0.3-1.9,0.3c-2.3,0-3.6-1.5-3.6-3.5c0-0.5,0.1-1.1,0.2-1.6l1.8-8.7h-2l0.3-1.5h2
			l0.8-3.6h1.7l-0.7,3.6h3.3l-0.3,1.5h-3.3l-1.9,8.9c-0.1,0.4-0.1,0.8-0.1,1.1c0,1.4,0.7,2.2,2,2.2c0.5,0,1-0.1,1.5-0.3L181.6,31z"
			/>
		<path fill="#FFFFFF" d="M184.6,25.3c0-4.7,2.4-9.7,6.9-9.7c3.2,0,4.7,2.7,4.7,5.9c0,4.7-2.4,9.7-7,9.7
			C186.1,31.3,184.6,28.6,184.6,25.3z M194.5,21.7c0-2.8-1.2-4.5-3.2-4.5c-3.1,0-5.1,4.1-5.1,8c0,2.8,1.2,4.5,3.2,4.5
			C192.5,29.7,194.5,25.6,194.5,21.7z"/>
	</g>
	<g>
		<path fill="#FFFFFF" d="M25.6,66.1c0.7,2.3,2.7,3.8,4.9,3.8c2.3,0,4-1,4-3.4c0-5-12.6-4.9-12.6-14.3c0-4.7,3.5-8.4,8.4-8.4
			s7.8,2.8,9.3,6.6l-4.9,3.1c-0.7-2.5-2.1-4.2-4.4-4.2c-1.6,0-2.8,1-2.8,2.7c0,5.4,12.6,4.3,12.6,14.4c0,5.4-4,8.9-9.7,8.9
			c-4.7,0-8.2-2.4-9.7-6L25.6,66.1z"/>
		<path fill="#FFFFFF" d="M63.3,69.4c-1.5,3.6-4.4,6-9.1,6c-8.4,0-10.8-7.8-10.8-15.7s2.3-15.7,10.8-15.7c5,0,7.8,2.8,9.3,6.6
			l-4.9,3.1c-0.7-2.5-2.1-4.2-4.4-4.2c-3.9,0-5.1,4.8-5.1,10.3c0,5.5,1.2,10.3,5.1,10.3c2.2,0,3.5-1.5,4.2-3.8L63.3,69.4z"/>
		<path fill="#FFFFFF" d="M80.7,75l-3.8-9.4c-0.4,0-0.9,0-1.3,0h-2V75h-5.7V44.3h8.5c7,0,9.8,5.2,9.8,10.5c0,3.4-1.3,6.7-4.1,8.8
			L86.8,75H80.7z M75.8,60.1c3.2,0,4.9-2.2,4.9-5.2c0-3.1-1.7-5.2-4.9-5.2h-2.1v10.3H75.8z"/>
		<path fill="#FFFFFF" d="M92.4,75V44.3h16.3v5.5H98.1v7.8h8.9v5.5h-8.9v6.4h10.6V75H92.4z"/>
		<path fill="#FFFFFF" d="M115.3,75V44.3h16.3v5.5H121v7.8h8.9v5.5H121v6.4h10.6V75H115.3z"/>
		<path fill="#FFFFFF" d="M151.9,75L144,57.8c-0.3-0.8-0.7-2.1-0.7-2.1h-0.1c0,0,0,1.3,0,2.3v17h-5.1V44.3h5.4l7.7,16.8
			c0.3,0.7,0.7,2.1,0.7,2.1h0.1c0-0.2,0-1.5,0-2.2V44.3h5.1V75H151.9z"/>
		<path fill="#FFFFFF" d="M175.5,75V44.3h8.5c7,0,9.8,5.6,9.8,10.9c0,5.3-3.2,11.2-10.7,11.2h-2V75H175.5z M183.4,61
			c3.2,0,4.9-2.6,4.9-5.6c0-3.1-1.7-5.6-4.9-5.6h-2.1V61H183.4z"/>
		<path fill="#FFFFFF" d="M211.3,75l-3.8-9.4c-0.4,0-0.9,0-1.3,0h-2V75h-5.7V44.3h8.5c7,0,9.8,5.2,9.8,10.5c0,3.4-1.3,6.7-4.1,8.8
			l4.6,11.3H211.3z M206.4,60.1c3.2,0,4.9-2.2,4.9-5.2c0-3.1-1.7-5.2-4.9-5.2h-2.1v10.3H206.4z"/>
		<path fill="#FFFFFF" d="M223,75V44.3h5.7V75H223z"/>
		<path fill="#FFFFFF" d="M249.4,75l-7.8-17.2c-0.3-0.8-0.7-2.1-0.7-2.1h-0.1c0,0,0,1.3,0,2.3v17h-5.1V44.3h5.4l7.7,16.8
			c0.3,0.7,0.7,2.1,0.7,2.1h0.1c0-0.2,0-1.5,0-2.2V44.3h5.1V75H249.4z"/>
		<path fill="#FFFFFF" d="M264.9,75V49.8h-5.4v-5.5H276v5.5h-5.4V75H264.9z"/>
		<path fill="#FFFFFF" d="M280.8,75V44.3h5.7V75H280.8z"/>
		<path fill="#FFFFFF" d="M307.2,75l-7.8-17.2c-0.3-0.8-0.7-2.1-0.7-2.1h-0.1c0,0,0,1.3,0,2.3v17h-5.1V44.3h5.4l7.7,16.8
			c0.3,0.7,0.7,2.1,0.7,2.1h0.1c0-0.2,0-1.5,0-2.2V44.3h5.1V75H307.2z"/>
		<path fill="#FFFFFF" d="M338.7,60c0,8.8-2.8,15.4-10.2,15.4c-8.4,0-10.8-7.8-10.8-15.7s2.3-15.7,10.8-15.7c5,0,7.8,2.8,9.3,6.6
			l-4.9,3.1c-0.7-2.5-2.1-4.2-4.4-4.2c-3.9,0-5.1,4.8-5.1,10.3c0,5.5,1.2,10.3,5.1,10.3c3.4,0,4.1-3.5,4.1-6.3H329v-5.5h9.7V60z"/>
	</g>
	<g>
		<path d="M31.2,28.3c-0.8,1.5-1.9,2.9-4.2,2.9c-2.7,0-3.9-2.2-3.9-5.1c0-5.7,2.9-10.5,7-10.5c2.7,0,4.3,1.9,4.3,4.3
			c0,0.3,0,0.7-0.1,1l-1.3,5.9c-0.1,0.5-0.2,0.9-0.2,1.2c0,1,0.5,1.4,1.6,1.4c0.2,0,0.3,0,0.5-0.1c-0.1,0.6-0.2,1.2-0.4,1.7
			C32.1,31.1,31.2,30.2,31.2,28.3L31.2,28.3z M32.6,21c0.1-0.4,0.1-0.7,0.1-1c0-1.5-1-2.8-2.7-2.8c-3.6,0-5.1,5.6-5.1,8.6
			c0,2,0.5,3.8,2.6,3.8c2.7,0,4.1-3.8,4.9-7.4L32.6,21z"/>
		<path d="M49,10.1h1.7l-1.2,5.5c-0.2,1.1-0.6,2.4-0.6,2.4H49c0.8-1.3,2-2.4,4-2.4c2.4,0,3.9,1.6,3.9,5.2c0,5.4-2.8,10.5-7,10.5
			c-2.6,0-4.2-1.7-4.2-4.8c0-0.8,0.1-1.6,0.3-2.6L49,10.1z M47.7,24.4c-0.2,0.7-0.2,1.4-0.2,2c0,2.1,1,3.3,2.7,3.3
			c3.1,0,5-4.9,5-8.7c0-2.3-0.7-3.7-2.6-3.7c-2.5,0-3.9,2.6-4.4,4.9L47.7,24.4z"/>
		<path d="M58.4,31l2.5-11.6c0.3-1.6,0.4-2.6,0.4-3.1v-0.3h1.6c0,0,0,0.1,0,0.3c0,0.5-0.1,1.1-0.2,1.9h0.1c0.8-1.4,2.1-2.5,4.1-2.5
			c0.4,0,0.7,0.1,1.1,0.1c-0.2,0.5-0.3,1.1-0.5,1.7c-0.3-0.1-0.6-0.1-1-0.1c-2.7,0-4,2.5-4.5,5.1L60.1,31H58.4z"/>
		<path d="M71.6,31c0,0-0.2,0.1-0.7,0.1C69,31.1,68,30,68,28.3c0-0.5,0.1-1,0.2-1.5l1.6-7.7c0.2-0.8,0.4-1.5,0.4-2.5v-0.6h1.7
			c0,0,0,0.1,0,0.2c0,0.5-0.1,1.7-0.5,3.7L70,26.8c-0.1,0.5-0.2,0.8-0.2,1.1c0,1,0.5,1.5,1.5,1.5c0.2,0,0.4,0,0.6-0.1L71.6,31z
			 M72,13.3c-0.6,0-1.1-0.5-1.1-1.1s0.5-1.1,1.1-1.1c0.6,0,1.1,0.5,1.1,1.1S72.6,13.3,72,13.3z"/>
		<path d="M85.5,28.7c-1.4,1.5-3.1,2.6-5.2,2.6c-3.4,0-5.2-2.6-5.2-6.2c0-4.3,2.6-9.4,7-9.4c3.3,0,4.7,2.6,4.7,5.9
			c0,0.5,0,1-0.1,1.5l-0.1,1H77c-0.1,0.4-0.1,0.7-0.1,1c0,3,1.4,4.6,3.5,4.6c1.5,0,2.9-1,3.9-2.2L85.5,28.7z M85.1,22.6
			c0.1-0.3,0.1-0.7,0.1-1.1c0-2.7-1.2-4.4-3.1-4.4c-2.4,0-4.2,2.6-4.8,5.5H85.1z"/>
		<path d="M89,31l2.9-13.5h-2.3l0.3-1.5h2.3l0.3-1.2c0.7-3.2,1.7-5,4.3-5c1.1,0,1.9,0.3,2.6,0.7l-0.9,1.5c-0.4-0.4-1.1-0.6-1.6-0.6
			c-1.3,0-2.2,0.9-2.5,2.5L94,15.9h3.1l-0.3,1.5h-3.1L90.8,31H89z"/>
		<path d="M113,28.1L113,28.1c-0.9,1.4-2.1,2.5-4,2.5c-2.7,0-3.9-2.2-3.9-5.1c0-4.1,2.2-9.9,6.7-9.9c1.9,0,3,1,3.4,2.6h0.1
			c0.2-1.3,0.8-2.3,0.8-2.3h1.7c-0.1,0.2-0.6,1.1-0.9,2.5c-0.9,4.1-1.8,8.2-2.6,12.3c-0.9,4.3-2.8,6.3-6.1,6.3
			c-2.1,0-3.7-0.9-4.6-2.2l1.3-1.2c0.8,1.1,2,1.8,3.4,1.8c2.2,0,3.4-1.8,4.1-4.7L113,28.1z M114.4,21.1c0.1-0.3,0.1-0.6,0.1-0.9
			c0-1.6-1-2.9-2.8-2.9c-3.6,0-5,5.3-5,8.2c0,1.9,0.7,3.6,2.7,3.6c2,0,3.7-2,4.7-7L114.4,21.1z"/>
		<path d="M130.6,31.1c-2.8,0-3.3-1-3.4-2.6h-0.1c-0.8,1.5-2,2.8-4,2.8c-2.7,0-4-1.8-4-4.2c0-0.6,0.1-1.2,0.2-1.8l2-9.4h1.8
			l-2.1,9.5c-0.1,0.5-0.1,1-0.1,1.5c0,1.5,0.7,2.8,2.6,2.8c2.3,0,3.7-2.5,4.1-4.9l1.9-8.9h1.7L129,26.9c-0.1,0.5-0.2,0.9-0.2,1.2
			c0,1,0.5,1.4,1.6,1.4c0.2,0,0.3,0,0.5-0.1L130.6,31.1z"/>
		<path d="M137.5,31c0,0-0.2,0.1-0.7,0.1c-1.9,0-2.9-1.1-2.9-2.8c0-0.5,0.1-1,0.2-1.5l1.6-7.7c0.2-0.8,0.4-1.5,0.4-2.5v-0.6h1.7
			c0,0,0,0.1,0,0.2c0,0.5-0.1,1.7-0.5,3.7l-1.5,7.1c-0.1,0.5-0.2,0.8-0.2,1.1c0,1,0.5,1.5,1.5,1.5c0.2,0,0.4,0,0.6-0.1L137.5,31z
			 M137.8,13.3c-0.6,0-1.1-0.5-1.1-1.1s0.5-1.1,1.1-1.1c0.6,0,1.1,0.5,1.1,1.1S138.4,13.3,137.8,13.3z"/>
		<path d="M152.7,31.1c-2.4,0-3.4-0.8-3.4-2.8c-0.8,1.6-2.1,2.9-4.3,2.9c-2.7,0-3.9-2.3-3.9-5.3c0-4.1,2.3-10.4,6.8-10.4
			c1.9,0,2.9,1,3.3,2.4h0.1c0,0,0.2-1.4,0.4-2.3l1.2-5.7h1.8l-3.5,16.7c-0.1,0.5-0.2,0.8-0.2,1.1c0,1,0.5,1.5,1.5,1.5
			c0.2,0,0.4,0,0.6-0.1L152.7,31.1z M149.8,24.9c0.4-1.3,0.8-3.1,0.8-4.6c0-1.7-0.8-3.1-2.7-3.1c-2.3,0-4,2.2-4.9,6.2
			c-0.2,0.8-0.3,1.7-0.3,2.5c0,1.9,0.6,3.7,2.6,3.7C147.2,29.7,148.9,27.9,149.8,24.9z"/>
		<path d="M166.3,28.7c-1.4,1.5-3.1,2.6-5.2,2.6c-3.4,0-5.2-2.6-5.2-6.2c0-4.3,2.6-9.4,7-9.4c3.3,0,4.7,2.6,4.7,5.9
			c0,0.5,0,1-0.1,1.5l-0.1,1h-9.6c-0.1,0.4-0.1,0.7-0.1,1c0,3,1.4,4.6,3.5,4.6c1.5,0,2.9-1,3.9-2.2L166.3,28.7z M165.9,22.6
			c0.1-0.3,0.1-0.7,0.1-1.1c0-2.7-1.2-4.4-3.1-4.4c-2.4,0-4.2,2.6-4.8,5.5H165.9z"/>
		<path d="M183.3,31c-0.5,0.2-1.2,0.3-1.9,0.3c-2.3,0-3.6-1.5-3.6-3.5c0-0.5,0.1-1.1,0.2-1.6l1.8-8.7h-2l0.3-1.5h2l0.8-3.6h1.7
			l-0.7,3.6h3.3l-0.3,1.5h-3.3l-1.9,8.9c-0.1,0.4-0.1,0.8-0.1,1.1c0,1.4,0.7,2.2,2,2.2c0.5,0,1-0.1,1.5-0.3L183.3,31z"/>
		<path d="M186.3,25.3c0-4.7,2.4-9.7,6.9-9.7c3.2,0,4.7,2.7,4.7,5.9c0,4.7-2.4,9.7-7,9.7C187.8,31.3,186.3,28.6,186.3,25.3z
			 M196.3,21.7c0-2.8-1.2-4.5-3.2-4.5c-3.1,0-5.1,4.1-5.1,8c0,2.8,1.2,4.5,3.2,4.5C194.2,29.7,196.3,25.6,196.3,21.7z"/>
	</g>
	<g>
		<path d="M27.3,66.1c0.7,2.3,2.7,3.8,4.9,3.8c2.3,0,4-1,4-3.4c0-5-12.6-4.9-12.6-14.3c0-4.7,3.5-8.4,8.4-8.4s7.8,2.8,9.3,6.6
			l-4.9,3.1c-0.7-2.5-2.1-4.2-4.4-4.2c-1.6,0-2.8,1-2.8,2.7c0,5.4,12.6,4.3,12.6,14.4c0,5.4-4,8.9-9.7,8.9c-4.7,0-8.2-2.4-9.7-6
			L27.3,66.1z"/>
		<path d="M65,69.4c-1.5,3.6-4.4,6-9.1,6c-8.4,0-10.8-7.8-10.8-15.7s2.3-15.7,10.8-15.7c5,0,7.8,2.8,9.3,6.6l-4.9,3.1
			c-0.7-2.5-2.1-4.2-4.4-4.2c-3.9,0-5.1,4.8-5.1,10.3c0,5.5,1.2,10.3,5.1,10.3c2.2,0,3.5-1.5,4.2-3.8L65,69.4z"/>
		<path d="M82.4,75l-3.8-9.4c-0.4,0-0.9,0-1.3,0h-2V75h-5.7V44.3h8.5c7,0,9.8,5.2,9.8,10.5c0,3.4-1.3,6.7-4.1,8.8L88.5,75H82.4z
			 M77.5,60.1c3.2,0,4.9-2.2,4.9-5.2c0-3.1-1.7-5.2-4.9-5.2h-2.1v10.3H77.5z"/>
		<path d="M94.1,75V44.3h16.3v5.5H99.8v7.8h8.9v5.5h-8.9v6.4h10.6V75H94.1z"/>
		<path d="M117,75V44.3h16.3v5.5h-10.6v7.8h8.9v5.5h-8.9v6.4h10.6V75H117z"/>
		<path d="M153.6,75l-7.8-17.2c-0.3-0.8-0.7-2.1-0.7-2.1h-0.1c0,0,0,1.3,0,2.3v17h-5.1V44.3h5.4l7.7,16.8c0.3,0.7,0.7,2.1,0.7,2.1
			h0.1c0-0.2,0-1.5,0-2.2V44.3h5.1V75H153.6z"/>
		<path d="M177.2,75V44.3h8.5c7,0,9.8,5.6,9.8,10.9c0,5.3-3.2,11.2-10.7,11.2h-2V75H177.2z M185.1,61c3.2,0,4.9-2.6,4.9-5.6
			c0-3.1-1.7-5.6-4.9-5.6h-2.1V61H185.1z"/>
		<path d="M213,75l-3.8-9.4c-0.4,0-0.9,0-1.3,0h-2V75h-5.7V44.3h8.5c7,0,9.8,5.2,9.8,10.5c0,3.4-1.3,6.7-4.1,8.8L219,75H213z
			 M208.1,60.1c3.2,0,4.9-2.2,4.9-5.2c0-3.1-1.7-5.2-4.9-5.2h-2.1v10.3H208.1z"/>
		<path d="M224.7,75V44.3h5.7V75H224.7z"/>
		<path d="M251.1,75l-7.8-17.2c-0.3-0.8-0.7-2.1-0.7-2.1h-0.1c0,0,0,1.3,0,2.3v17h-5.1V44.3h5.4l7.7,16.8c0.3,0.7,0.7,2.1,0.7,2.1
			h0.1c0-0.2,0-1.5,0-2.2V44.3h5.1V75H251.1z"/>
		<path d="M266.6,75V49.8h-5.4v-5.5h16.5v5.5h-5.4V75H266.6z"/>
		<path d="M282.5,75V44.3h5.7V75H282.5z"/>
		<path d="M308.9,75L301,57.8c-0.3-0.8-0.7-2.1-0.7-2.1h-0.1c0,0,0,1.3,0,2.3v17h-5.1V44.3h5.4l7.7,16.8c0.3,0.7,0.7,2.1,0.7,2.1
			h0.1c0-0.2,0-1.5,0-2.2V44.3h5.1V75H308.9z"/>
		<path d="M340.4,60c0,8.8-2.8,15.4-10.2,15.4c-8.4,0-10.8-7.8-10.8-15.7s2.3-15.7,10.8-15.7c5,0,7.8,2.8,9.3,6.6l-4.9,3.1
			c-0.7-2.5-2.1-4.2-4.4-4.2c-3.9,0-5.1,4.8-5.1,10.3c0,5.5,1.2,10.3,5.1,10.3c3.4,0,4.1-3.5,4.1-6.3h-3.6v-5.5h9.7V60z"/>
	</g>
	<g>
		<path fill="#FFFFFF" d="M28.2,27c-0.8,1.5-1.9,2.9-4.2,2.9c-2.7,0-3.9-2.2-3.9-5.1c0-5.7,2.9-10.5,7-10.5c2.7,0,4.3,1.9,4.3,4.3
			c0,0.3,0,0.7-0.1,1L30,25.5c-0.1,0.5-0.2,0.9-0.2,1.2c0,1,0.5,1.4,1.6,1.4c0.2,0,0.3,0,0.5-0.1c-0.1,0.6-0.2,1.2-0.4,1.7
			C29,29.8,28.1,28.8,28.2,27L28.2,27z M29.5,19.7c0.1-0.4,0.1-0.7,0.1-1c0-1.5-1-2.8-2.7-2.8c-3.6,0-5.1,5.6-5.1,8.6
			c0,2,0.5,3.8,2.6,3.8c2.7,0,4.1-3.8,4.9-7.4L29.5,19.7z"/>
		<path fill="#FFFFFF" d="M45.9,8.8h1.7l-1.2,5.5c-0.2,1.1-0.6,2.4-0.6,2.4H46c0.8-1.3,2-2.4,4-2.4c2.4,0,3.9,1.6,3.9,5.2
			c0,5.4-2.8,10.5-7,10.5c-2.6,0-4.2-1.7-4.2-4.8c0-0.8,0.1-1.6,0.3-2.6L45.9,8.8z M44.6,23c-0.2,0.7-0.2,1.4-0.2,2
			c0,2.1,1,3.3,2.7,3.3c3.1,0,5-4.9,5-8.7c0-2.3-0.7-3.7-2.6-3.7c-2.5,0-3.9,2.6-4.4,4.9L44.6,23z"/>
		<path fill="#FFFFFF" d="M55.3,29.6L57.8,18c0.3-1.6,0.4-2.6,0.4-3.1v-0.3h1.6c0,0,0,0.1,0,0.3c0,0.5-0.1,1.1-0.2,1.9h0.1
			c0.8-1.4,2.1-2.5,4.1-2.5c0.4,0,0.7,0.1,1.1,0.1c-0.2,0.5-0.3,1.1-0.5,1.7c-0.3-0.1-0.6-0.1-1-0.1c-2.7,0-4,2.5-4.5,5.1L57,29.6
			H55.3z"/>
		<path fill="#FFFFFF" d="M68.6,29.7c0,0-0.2,0.1-0.7,0.1c-1.9,0-2.9-1.1-2.9-2.8c0-0.5,0.1-1,0.2-1.5l1.6-7.7
			c0.2-0.8,0.4-1.5,0.4-2.5v-0.6h1.7c0,0,0,0.1,0,0.2c0,0.5-0.1,1.7-0.5,3.7l-1.5,7.1c-0.1,0.5-0.2,0.8-0.2,1.1c0,1,0.5,1.5,1.5,1.5
			c0.2,0,0.4,0,0.6-0.1L68.6,29.7z M68.9,11.9c-0.6,0-1.1-0.5-1.1-1.1s0.5-1.1,1.1-1.1c0.6,0,1.1,0.5,1.1,1.1S69.5,11.9,68.9,11.9z"
			/>
		<path fill="#FFFFFF" d="M82.4,27.3c-1.4,1.5-3.1,2.6-5.2,2.6c-3.4,0-5.2-2.6-5.2-6.2c0-4.3,2.6-9.4,7-9.4c3.3,0,4.7,2.6,4.7,5.9
			c0,0.5,0,1-0.1,1.5l-0.1,1h-9.6c-0.1,0.4-0.1,0.7-0.1,1c0,3,1.4,4.6,3.5,4.6c1.5,0,2.9-1,3.9-2.2L82.4,27.3z M82,21.3
			c0.1-0.3,0.1-0.7,0.1-1.1c0-2.7-1.2-4.4-3.1-4.4c-2.4,0-4.2,2.6-4.8,5.5H82z"/>
		<path fill="#FFFFFF" d="M86,29.6l2.9-13.5h-2.3l0.3-1.5h2.3l0.3-1.2c0.7-3.2,1.7-5,4.3-5c1.1,0,1.9,0.3,2.6,0.7l-0.9,1.5
			c-0.4-0.4-1.1-0.6-1.6-0.6c-1.3,0-2.2,0.9-2.5,2.5l-0.4,2.1H94l-0.3,1.5h-3.1l-2.9,13.5H86z"/>
		<path fill="#FFFFFF" d="M110,26.7L110,26.7c-0.9,1.4-2.1,2.5-4,2.5c-2.7,0-3.9-2.2-3.9-5.1c0-4.1,2.2-9.9,6.7-9.9
			c1.9,0,3,1,3.4,2.6h0.1c0.2-1.3,0.8-2.3,0.8-2.3h1.7c-0.1,0.2-0.6,1.1-0.9,2.5c-0.9,4.1-1.8,8.2-2.6,12.3
			c-0.9,4.3-2.8,6.3-6.1,6.3c-2.1,0-3.7-0.9-4.6-2.2l1.3-1.2c0.8,1.1,2,1.8,3.4,1.8c2.2,0,3.4-1.8,4.1-4.7L110,26.7z M111.4,19.7
			c0.1-0.3,0.1-0.6,0.1-0.9c0-1.6-1-2.9-2.8-2.9c-3.6,0-5,5.3-5,8.2c0,1.9,0.7,3.6,2.7,3.6c2,0,3.7-2,4.7-7L111.4,19.7z"/>
		<path fill="#FFFFFF" d="M127.6,29.7c-2.8,0-3.3-1-3.4-2.6h-0.1c-0.8,1.5-2,2.8-4,2.8c-2.7,0-4-1.8-4-4.2c0-0.6,0.1-1.2,0.2-1.8
			l2-9.4h1.8l-2.1,9.5c-0.1,0.5-0.1,1-0.1,1.5c0,1.5,0.7,2.8,2.6,2.8c2.3,0,3.7-2.5,4.1-4.9l1.9-8.9h1.7L126,25.5
			c-0.1,0.5-0.2,0.9-0.2,1.2c0,1,0.5,1.4,1.6,1.4c0.2,0,0.3,0,0.5-0.1L127.6,29.7z"/>
		<path fill="#FFFFFF" d="M134.4,29.7c0,0-0.2,0.1-0.7,0.1c-1.9,0-2.9-1.1-2.9-2.8c0-0.5,0.1-1,0.2-1.5l1.6-7.7
			c0.2-0.8,0.4-1.5,0.4-2.5v-0.6h1.7c0,0,0,0.1,0,0.2c0,0.5-0.1,1.7-0.5,3.7l-1.5,7.1c-0.1,0.5-0.2,0.8-0.2,1.1c0,1,0.5,1.5,1.5,1.5
			c0.2,0,0.4,0,0.6-0.1L134.4,29.7z M134.8,11.9c-0.6,0-1.1-0.5-1.1-1.1s0.5-1.1,1.1-1.1c0.6,0,1.1,0.5,1.1,1.1
			S135.4,11.9,134.8,11.9z"/>
		<path fill="#FFFFFF" d="M149.6,29.8c-2.4,0-3.4-0.8-3.4-2.8c-0.8,1.6-2.1,2.9-4.3,2.9c-2.7,0-3.9-2.3-3.9-5.3
			c0-4.1,2.3-10.4,6.8-10.4c1.9,0,2.9,1,3.3,2.4h0.1c0,0,0.2-1.4,0.4-2.3l1.2-5.7h1.8L148,25.5c-0.1,0.5-0.2,0.8-0.2,1.1
			c0,1,0.5,1.5,1.5,1.5c0.2,0,0.4,0,0.6-0.1L149.6,29.8z M146.7,23.6c0.4-1.3,0.8-3.1,0.8-4.6c0-1.7-0.8-3.1-2.7-3.1
			c-2.3,0-4,2.2-4.9,6.2c-0.2,0.8-0.3,1.7-0.3,2.5c0,1.9,0.6,3.7,2.6,3.7C144.1,28.3,145.9,26.5,146.7,23.6z"/>
		<path fill="#FFFFFF" d="M163.3,27.3c-1.4,1.5-3.1,2.6-5.2,2.6c-3.4,0-5.2-2.6-5.2-6.2c0-4.3,2.6-9.4,7-9.4c3.3,0,4.7,2.6,4.7,5.9
			c0,0.5,0,1-0.1,1.5l-0.1,1h-9.6c-0.1,0.4-0.1,0.7-0.1,1c0,3,1.4,4.6,3.5,4.6c1.5,0,2.9-1,3.9-2.2L163.3,27.3z M162.9,21.3
			c0.1-0.3,0.1-0.7,0.1-1.1c0-2.7-1.2-4.4-3.1-4.4c-2.4,0-4.2,2.6-4.8,5.5H162.9z"/>
		<path fill="#FFFFFF" d="M180.2,29.6c-0.5,0.2-1.2,0.3-1.9,0.3c-2.3,0-3.6-1.5-3.6-3.5c0-0.5,0.1-1.1,0.2-1.6l1.8-8.7h-2l0.3-1.5h2
			l0.8-3.6h1.7l-0.7,3.6h3.3l-0.3,1.5h-3.3l-1.9,8.9c-0.1,0.4-0.1,0.8-0.1,1.1c0,1.4,0.7,2.2,2,2.2c0.5,0,1-0.1,1.5-0.3L180.2,29.6z
			"/>
		<path fill="#FFFFFF" d="M183.2,23.9c0-4.7,2.4-9.7,6.9-9.7c3.2,0,4.7,2.7,4.7,5.9c0,4.7-2.4,9.7-7,9.7
			C184.7,29.9,183.2,27.2,183.2,23.9z M193.2,20.3c0-2.8-1.2-4.5-3.2-4.5c-3.1,0-5.1,4.1-5.1,8c0,2.8,1.2,4.5,3.2,4.5
			C191.1,28.3,193.2,24.2,193.2,20.3z"/>
	</g>
	<g>
		<path fill="#FFFFFF" d="M24.2,64.7c0.7,2.3,2.7,3.8,4.9,3.8c2.3,0,4-1,4-3.4c0-5-12.6-4.9-12.6-14.3c0-4.7,3.5-8.4,8.4-8.4
			s7.8,2.8,9.3,6.6l-4.9,3.1c-0.7-2.5-2.1-4.2-4.4-4.2c-1.6,0-2.8,1-2.8,2.7c0,5.4,12.6,4.3,12.6,14.4c0,5.4-4,8.9-9.7,8.9
			c-4.7,0-8.2-2.4-9.7-6L24.2,64.7z"/>
		<path fill="#FFFFFF" d="M62,68c-1.5,3.6-4.4,6-9.1,6c-8.4,0-10.8-7.8-10.8-15.7c0-8,2.3-15.7,10.8-15.7c5,0,7.8,2.8,9.3,6.6
			l-4.9,3.1c-0.7-2.5-2.1-4.2-4.4-4.2c-3.9,0-5.1,4.8-5.1,10.3s1.2,10.3,5.1,10.3c2.2,0,3.5-1.5,4.2-3.8L62,68z"/>
		<path fill="#FFFFFF" d="M79.4,73.6l-3.8-9.4c-0.4,0-0.9,0-1.3,0h-2v9.4h-5.7V43h8.5c7,0,9.8,5.2,9.8,10.5c0,3.4-1.3,6.7-4.1,8.8
			l4.6,11.3H79.4z M74.4,58.7c3.2,0,4.9-2.2,4.9-5.2c0-3.1-1.7-5.2-4.9-5.2h-2.1v10.3H74.4z"/>
		<path fill="#FFFFFF" d="M91.1,73.6V43h16.3v5.5H96.8v7.8h8.9v5.5h-8.9v6.4h10.6v5.5H91.1z"/>
		<path fill="#FFFFFF" d="M114,73.6V43h16.3v5.5h-10.6v7.8h8.9v5.5h-8.9v6.4h10.6v5.5H114z"/>
		<path fill="#FFFFFF" d="M150.5,73.6l-7.8-17.2c-0.3-0.8-0.7-2.1-0.7-2.1h-0.1c0,0,0,1.3,0,2.3v17h-5.1V43h5.4l7.7,16.7
			c0.3,0.7,0.7,2.1,0.7,2.1h0.1c0-0.2,0-1.5,0-2.2V43h5.1v30.6H150.5z"/>
		<path fill="#FFFFFF" d="M174.2,73.6V43h8.5c7,0,9.8,5.6,9.8,10.9s-3.2,11.2-10.7,11.2h-2v8.5H174.2z M182,59.6
			c3.2,0,4.9-2.6,4.9-5.6c0-3.1-1.7-5.6-4.9-5.6h-2.1v11.2H182z"/>
		<path fill="#FFFFFF" d="M209.9,73.6l-3.8-9.4c-0.4,0-0.9,0-1.3,0h-2v9.4h-5.7V43h8.5c7,0,9.8,5.2,9.8,10.5c0,3.4-1.3,6.7-4.1,8.8
			l4.6,11.3H209.9z M205,58.7c3.2,0,4.9-2.2,4.9-5.2c0-3.1-1.7-5.2-4.9-5.2h-2.1v10.3H205z"/>
		<path fill="#FFFFFF" d="M221.7,73.6V43h5.7v30.6H221.7z"/>
		<path fill="#FFFFFF" d="M248,73.6l-7.8-17.2c-0.3-0.8-0.7-2.1-0.7-2.1h-0.1c0,0,0,1.3,0,2.3v17h-5.1V43h5.4l7.7,16.7
			c0.3,0.7,0.7,2.1,0.7,2.1h0.1c0-0.2,0-1.5,0-2.2V43h5.1v30.6H248z"/>
		<path fill="#FFFFFF" d="M263.5,73.6V48.5h-5.4V43h16.5v5.5h-5.4v25.1H263.5z"/>
		<path fill="#FFFFFF" d="M279.4,73.6V43h5.7v30.6H279.4z"/>
		<path fill="#FFFFFF" d="M305.8,73.6L298,56.4c-0.3-0.8-0.7-2.1-0.7-2.1h-0.1c0,0,0,1.3,0,2.3v17h-5.1V43h5.4l7.7,16.7
			c0.3,0.7,0.7,2.1,0.7,2.1h0.1c0-0.2,0-1.5,0-2.2V43h5.1v30.6H305.8z"/>
		<path fill="#FFFFFF" d="M337.3,58.7c0,8.8-2.8,15.3-10.2,15.3c-8.4,0-10.8-7.8-10.8-15.7c0-8,2.3-15.7,10.8-15.7
			c5,0,7.8,2.8,9.3,6.6l-4.9,3.1c-0.7-2.5-2.1-4.2-4.4-4.2c-3.9,0-5.1,4.8-5.1,10.3s1.2,10.3,5.1,10.3c3.4,0,4.1-3.5,4.1-6.3h-3.6
			v-5.5h9.7V58.7z"/>
	</g>
	<g>
		<path fill="#FFFFFF" d="M29.9,27c-0.8,1.5-1.9,2.9-4.2,2.9c-2.7,0-3.9-2.2-3.9-5.1c0-5.7,2.9-10.5,7-10.5c2.7,0,4.3,1.9,4.3,4.3
			c0,0.3,0,0.7-0.1,1l-1.3,5.9c-0.1,0.5-0.2,0.9-0.2,1.2c0,1,0.5,1.4,1.6,1.4c0.2,0,0.3,0,0.5-0.1c-0.1,0.6-0.2,1.2-0.4,1.7
			C30.7,29.8,29.9,28.8,29.9,27L29.9,27z M31.2,19.7c0.1-0.4,0.1-0.7,0.1-1c0-1.5-1-2.8-2.7-2.8c-3.6,0-5.1,5.6-5.1,8.6
			c0,2,0.5,3.8,2.6,3.8c2.7,0,4.1-3.8,4.9-7.4L31.2,19.7z"/>
		<path fill="#FFFFFF" d="M47.7,8.8h1.7l-1.2,5.5c-0.2,1.1-0.6,2.4-0.6,2.4h0.1c0.8-1.3,2-2.4,4-2.4c2.4,0,3.9,1.6,3.9,5.2
			c0,5.4-2.8,10.5-7,10.5c-2.6,0-4.2-1.7-4.2-4.8c0-0.8,0.1-1.6,0.3-2.6L47.7,8.8z M46.3,23c-0.2,0.7-0.2,1.4-0.2,2
			c0,2.1,1,3.3,2.7,3.3c3.1,0,5-4.9,5-8.7c0-2.3-0.7-3.7-2.6-3.7c-2.5,0-3.9,2.6-4.4,4.9L46.3,23z"/>
		<path fill="#FFFFFF" d="M57,29.6L59.5,18c0.3-1.6,0.4-2.6,0.4-3.1v-0.3h1.6c0,0,0,0.1,0,0.3c0,0.5-0.1,1.1-0.2,1.9h0.1
			c0.8-1.4,2.1-2.5,4.1-2.5c0.4,0,0.7,0.1,1.1,0.1c-0.2,0.5-0.3,1.1-0.5,1.7c-0.3-0.1-0.6-0.1-1-0.1c-2.7,0-4,2.5-4.5,5.1l-1.8,8.6
			H57z"/>
		<path fill="#FFFFFF" d="M70.3,29.7c0,0-0.2,0.1-0.7,0.1c-1.9,0-2.9-1.1-2.9-2.8c0-0.5,0.1-1,0.2-1.5l1.6-7.7
			c0.2-0.8,0.4-1.5,0.4-2.5v-0.6h1.7c0,0,0,0.1,0,0.2c0,0.5-0.1,1.7-0.5,3.7l-1.5,7.1c-0.1,0.5-0.2,0.8-0.2,1.1c0,1,0.5,1.5,1.5,1.5
			c0.2,0,0.4,0,0.6-0.1L70.3,29.7z M70.6,11.9c-0.6,0-1.1-0.5-1.1-1.1s0.5-1.1,1.1-1.1c0.6,0,1.1,0.5,1.1,1.1S71.2,11.9,70.6,11.9z"
			/>
		<path fill="#FFFFFF" d="M84.1,27.3c-1.4,1.5-3.1,2.6-5.2,2.6c-3.4,0-5.2-2.6-5.2-6.2c0-4.3,2.6-9.4,7-9.4c3.3,0,4.7,2.6,4.7,5.9
			c0,0.5,0,1-0.1,1.5l-0.1,1h-9.6c-0.1,0.4-0.1,0.7-0.1,1c0,3,1.4,4.6,3.5,4.6c1.5,0,2.9-1,3.9-2.2L84.1,27.3z M83.7,21.3
			c0.1-0.3,0.1-0.7,0.1-1.1c0-2.7-1.2-4.4-3.1-4.4c-2.4,0-4.2,2.6-4.8,5.5H83.7z"/>
		<path fill="#FFFFFF" d="M87.7,29.6l2.9-13.5h-2.3l0.3-1.5h2.3l0.3-1.2c0.7-3.2,1.7-5,4.3-5c1.1,0,1.9,0.3,2.6,0.7l-0.9,1.5
			c-0.4-0.4-1.1-0.6-1.6-0.6c-1.3,0-2.2,0.9-2.5,2.5l-0.4,2.1h3.1l-0.3,1.5h-3.1l-2.9,13.5H87.7z"/>
		<path fill="#FFFFFF" d="M111.7,26.7L111.7,26.7c-0.9,1.4-2.1,2.5-4,2.5c-2.7,0-3.9-2.2-3.9-5.1c0-4.1,2.2-9.9,6.7-9.9
			c1.9,0,3,1,3.4,2.6h0.1c0.2-1.3,0.8-2.3,0.8-2.3h1.7c-0.1,0.2-0.6,1.1-0.9,2.5c-0.9,4.1-1.8,8.2-2.6,12.3
			c-0.9,4.3-2.8,6.3-6.1,6.3c-2.1,0-3.7-0.9-4.6-2.2l1.3-1.2c0.8,1.1,2,1.8,3.4,1.8c2.2,0,3.4-1.8,4.1-4.7L111.7,26.7z M113.1,19.7
			c0.1-0.3,0.1-0.6,0.1-0.9c0-1.6-1-2.9-2.8-2.9c-3.6,0-5,5.3-5,8.2c0,1.9,0.7,3.6,2.7,3.6c2,0,3.7-2,4.7-7L113.1,19.7z"/>
		<path fill="#FFFFFF" d="M129.3,29.7c-2.8,0-3.3-1-3.4-2.6h-0.1c-0.8,1.5-2,2.8-4,2.8c-2.7,0-4-1.8-4-4.2c0-0.6,0.1-1.2,0.2-1.8
			l2-9.4h1.8l-2.1,9.5c-0.1,0.5-0.1,1-0.1,1.5c0,1.5,0.7,2.8,2.6,2.8c2.3,0,3.7-2.5,4.1-4.9l1.9-8.9h1.7l-2.3,10.9
			c-0.1,0.5-0.2,0.9-0.2,1.2c0,1,0.5,1.4,1.6,1.4c0.2,0,0.3,0,0.5-0.1L129.3,29.7z"/>
		<path fill="#FFFFFF" d="M136.2,29.7c0,0-0.2,0.1-0.7,0.1c-1.9,0-2.9-1.1-2.9-2.8c0-0.5,0.1-1,0.2-1.5l1.6-7.7
			c0.2-0.8,0.4-1.5,0.4-2.5v-0.6h1.7c0,0,0,0.1,0,0.2c0,0.5-0.1,1.7-0.5,3.7l-1.5,7.1c-0.1,0.5-0.2,0.8-0.2,1.1c0,1,0.5,1.5,1.5,1.5
			c0.2,0,0.4,0,0.6-0.1L136.2,29.7z M136.5,11.9c-0.6,0-1.1-0.5-1.1-1.1s0.5-1.1,1.1-1.1c0.6,0,1.1,0.5,1.1,1.1
			S137.1,11.9,136.5,11.9z"/>
		<path fill="#FFFFFF" d="M151.3,29.8c-2.4,0-3.4-0.8-3.4-2.8c-0.8,1.6-2.1,2.9-4.3,2.9c-2.7,0-3.9-2.3-3.9-5.3
			c0-4.1,2.3-10.4,6.8-10.4c1.9,0,2.9,1,3.3,2.4h0.1c0,0,0.2-1.4,0.4-2.3l1.2-5.7h1.8l-3.5,16.7c-0.1,0.5-0.2,0.8-0.2,1.1
			c0,1,0.5,1.5,1.5,1.5c0.2,0,0.4,0,0.6-0.1L151.3,29.8z M148.4,23.6c0.4-1.3,0.8-3.1,0.8-4.6c0-1.7-0.8-3.1-2.7-3.1
			c-2.3,0-4,2.2-4.9,6.2c-0.2,0.8-0.3,1.7-0.3,2.5c0,1.9,0.6,3.7,2.6,3.7C145.8,28.3,147.6,26.5,148.4,23.6z"/>
		<path fill="#FFFFFF" d="M165,27.3c-1.4,1.5-3.1,2.6-5.2,2.6c-3.4,0-5.2-2.6-5.2-6.2c0-4.3,2.6-9.4,7-9.4c3.3,0,4.7,2.6,4.7,5.9
			c0,0.5,0,1-0.1,1.5l-0.1,1h-9.6c-0.1,0.4-0.1,0.7-0.1,1c0,3,1.4,4.6,3.5,4.6c1.5,0,2.9-1,3.9-2.2L165,27.3z M164.6,21.3
			c0.1-0.3,0.1-0.7,0.1-1.1c0-2.7-1.2-4.4-3.1-4.4c-2.4,0-4.2,2.6-4.8,5.5H164.6z"/>
		<path fill="#FFFFFF" d="M181.9,29.6c-0.5,0.2-1.2,0.3-1.9,0.3c-2.3,0-3.6-1.5-3.6-3.5c0-0.5,0.1-1.1,0.2-1.6l1.8-8.7h-2l0.3-1.5h2
			l0.8-3.6h1.7l-0.7,3.6h3.3l-0.3,1.5h-3.3l-1.9,8.9c-0.1,0.4-0.1,0.8-0.1,1.1c0,1.4,0.7,2.2,2,2.2c0.5,0,1-0.1,1.5-0.3L181.9,29.6z
			"/>
		<path fill="#FFFFFF" d="M184.9,23.9c0-4.7,2.4-9.7,6.9-9.7c3.2,0,4.7,2.7,4.7,5.9c0,4.7-2.4,9.7-7,9.7
			C186.4,29.9,184.9,27.2,184.9,23.9z M194.9,20.3c0-2.8-1.2-4.5-3.2-4.5c-3.1,0-5.1,4.1-5.1,8c0,2.8,1.2,4.5,3.2,4.5
			C192.8,28.3,194.9,24.2,194.9,20.3z"/>
	</g>
	<g>
		<path fill="#FFFFFF" d="M25.9,64.7c0.7,2.3,2.7,3.8,4.9,3.8c2.3,0,4-1,4-3.4c0-5-12.6-4.9-12.6-14.3c0-4.7,3.5-8.4,8.4-8.4
			s7.8,2.8,9.3,6.6L35,52.2c-0.7-2.5-2.1-4.2-4.4-4.2c-1.6,0-2.8,1-2.8,2.7c0,5.4,12.6,4.3,12.6,14.4c0,5.4-4,8.9-9.7,8.9
			c-4.7,0-8.2-2.4-9.7-6L25.9,64.7z"/>
		<path fill="#FFFFFF" d="M63.7,68c-1.5,3.6-4.4,6-9.1,6c-8.4,0-10.8-7.8-10.8-15.7c0-8,2.3-15.7,10.8-15.7c5,0,7.8,2.8,9.3,6.6
			l-4.9,3.1c-0.7-2.5-2.1-4.2-4.4-4.2c-3.9,0-5.1,4.8-5.1,10.3s1.2,10.3,5.1,10.3c2.2,0,3.5-1.5,4.2-3.8L63.7,68z"/>
		<path fill="#FFFFFF" d="M81.1,73.6l-3.8-9.4c-0.4,0-0.9,0-1.3,0h-2v9.4h-5.7V43h8.5c7,0,9.8,5.2,9.8,10.5c0,3.4-1.3,6.7-4.1,8.8
			l4.6,11.3H81.1z M76.1,58.7c3.2,0,4.9-2.2,4.9-5.2c0-3.1-1.7-5.2-4.9-5.2H74v10.3H76.1z"/>
		<path fill="#FFFFFF" d="M92.8,73.6V43h16.3v5.5H98.5v7.8h8.9v5.5h-8.9v6.4h10.6v5.5H92.8z"/>
		<path fill="#FFFFFF" d="M115.7,73.6V43h16.3v5.5h-10.6v7.8h8.9v5.5h-8.9v6.4h10.6v5.5H115.7z"/>
		<path fill="#FFFFFF" d="M152.2,73.6l-7.8-17.2c-0.3-0.8-0.7-2.1-0.7-2.1h-0.1c0,0,0,1.3,0,2.3v17h-5.1V43h5.4l7.7,16.7
			c0.3,0.7,0.7,2.1,0.7,2.1h0.1c0-0.2,0-1.5,0-2.2V43h5.1v30.6H152.2z"/>
		<path fill="#FFFFFF" d="M175.9,73.6V43h8.5c7,0,9.8,5.6,9.8,10.9s-3.2,11.2-10.7,11.2h-2v8.5H175.9z M183.7,59.6
			c3.2,0,4.9-2.6,4.9-5.6c0-3.1-1.7-5.6-4.9-5.6h-2.1v11.2H183.7z"/>
		<path fill="#FFFFFF" d="M211.7,73.6l-3.8-9.4c-0.4,0-0.9,0-1.3,0h-2v9.4h-5.7V43h8.5c7,0,9.8,5.2,9.8,10.5c0,3.4-1.3,6.7-4.1,8.8
			l4.6,11.3H211.7z M206.7,58.7c3.2,0,4.9-2.2,4.9-5.2c0-3.1-1.7-5.2-4.9-5.2h-2.1v10.3H206.7z"/>
		<path fill="#FFFFFF" d="M223.4,73.6V43h5.7v30.6H223.4z"/>
		<path fill="#FFFFFF" d="M249.7,73.6l-7.8-17.2c-0.3-0.8-0.7-2.1-0.7-2.1h-0.1c0,0,0,1.3,0,2.3v17h-5.1V43h5.4l7.7,16.7
			c0.3,0.7,0.7,2.1,0.7,2.1h0.1c0-0.2,0-1.5,0-2.2V43h5.1v30.6H249.7z"/>
		<path fill="#FFFFFF" d="M265.2,73.6V48.5h-5.4V43h16.5v5.5H271v25.1H265.2z"/>
		<path fill="#FFFFFF" d="M281.1,73.6V43h5.7v30.6H281.1z"/>
		<path fill="#FFFFFF" d="M307.5,73.6l-7.8-17.2c-0.3-0.8-0.7-2.1-0.7-2.1h-0.1c0,0,0,1.3,0,2.3v17h-5.1V43h5.4l7.7,16.7
			c0.3,0.7,0.7,2.1,0.7,2.1h0.1c0-0.2,0-1.5,0-2.2V43h5.1v30.6H307.5z"/>
		<path fill="#FFFFFF" d="M339,58.7c0,8.8-2.8,15.3-10.2,15.3c-8.4,0-10.8-7.8-10.8-15.7c0-8,2.3-15.7,10.8-15.7
			c5,0,7.8,2.8,9.3,6.6l-4.9,3.1c-0.7-2.5-2.1-4.2-4.4-4.2c-3.9,0-5.1,4.8-5.1,10.3s1.2,10.3,5.1,10.3c3.4,0,4.1-3.5,4.1-6.3h-3.6
			v-5.5h9.7V58.7z"/>
	</g>
</g>
<g id="Layer_3" display="none">
</g>
<g id="svg_demo">
</g>
</svg>
