<?xml version="1.0" encoding="utf-8"?>
<!-- Generator: Adobe Illustrator 20.1.0, SVG Export Plug-In . SVG Version: 6.00 Build 0)  -->
<svg version="1.1" xmlns="http://www.w3.org/2000/svg" xmlns:xlink="http://www.w3.org/1999/xlink" x="0px" y="0px" width="624.9px"
	 height="562.5px" viewBox="0 0 624.9 562.5" enable-background="new 0 0 624.9 562.5" xml:space="preserve">
<pattern  x="-4653.2" y="-3883.1" width="28.8" height="28.8" patternUnits="userSpaceOnUse" id="_x31_0_dpi_70_x25_" viewBox="5 -33.8 28.8 28.8" overflow="visible">
	<g>
		<rect x="5" y="-33.8" fill="none" width="28.8" height="28.8"/>
		<g>
			<circle fill="#F7941D" cx="33.8" cy="-5" r="5"/>
			<circle fill="#F7941D" cx="19.4" cy="-5" r="5"/>
			<circle fill="#F7941D" cx="33.8" cy="-19.4" r="5"/>
			<circle fill="#F7941D" cx="19.4" cy="-19.4" r="5"/>
			<circle fill="#F7941D" cx="12.2" cy="-12.2" r="5"/>
			<circle fill="#F7941D" cx="26.6" cy="-12.2" r="5"/>
			<circle fill="#F7941D" cx="12.2" cy="-26.6" r="5"/>
			<circle fill="#F7941D" cx="26.6" cy="-26.6" r="5"/>
		</g>
		<g>
			<circle fill="#F7941D" cx="5" cy="-5" r="5"/>
			<circle fill="#F7941D" cx="5" cy="-19.4" r="5"/>
		</g>
		<g>
			<circle fill="#F7941D" cx="33.8" cy="-33.8" r="5"/>
			<circle fill="#F7941D" cx="19.4" cy="-33.8" r="5"/>
		</g>
		<g>
			<circle fill="#F7941D" cx="5" cy="-33.8" r="5"/>
		</g>
	</g>
</pattern>
<g id="Layer_1">
	<rect x="312.5" y="37.5" fill="#F7941D" stroke="#231F20" stroke-width="5" stroke-miterlimit="10" width="224.1" height="224.1"/>
	<polygon fill="#00AEEF" stroke="#231F20" stroke-width="5" stroke-miterlimit="10" points="432.8,141.3 432.8,37.5 416.2,37.5 
		416.2,141.3 312.5,141.3 312.5,157.8 416.2,157.8 416.2,261.6 432.8,261.6 432.8,157.8 536.6,157.8 536.6,141.3 	"/>
	<rect x="312.5" y="37.5" fill="#F7941D" stroke="#231F20" stroke-width="5" stroke-miterlimit="10" width="224.1" height="5.4"/>
	<rect x="312.5" y="49.2" fill="#F7941D" stroke="#231F20" stroke-width="5" stroke-miterlimit="10" width="224.1" height="5.4"/>
	<rect x="12.8" y="37.5" fill="#F7941D" stroke="#231F20" stroke-width="5" stroke-miterlimit="10" width="210.8" height="402.8"/>
	<rect x="68.7" y="37.5" fill="#00AEEF" stroke="#231F20" stroke-width="5" stroke-miterlimit="10" width="154.9" height="402.8"/>
	
		<polygon fill="#FFB900" stroke="#231F20" stroke-width="4" stroke-linecap="round" stroke-linejoin="round" stroke-miterlimit="10" points="
		498.5,349.2 591.1,402.6 461.7,477.3 369.1,423.9 	"/>
	<pattern  id="SVGID_1_" xlink:href="#_x31_0_dpi_70_x25_" patternTransform="matrix(0.8235 0 0 0.8235 -27.7943 -300.5663)">
	</pattern>
	<polygon fill="url(#SVGID_1_)" points="498.4,367.9 563.9,405.8 461.7,464.8 396.9,426.5 	"/>
	
		<polygon fill="#00AEEF" stroke="#231F20" stroke-width="4" stroke-linecap="round" stroke-linejoin="round" stroke-miterlimit="10" points="
		369.1,445.9 369.1,423.9 461.7,477.3 461.7,499.3 	"/>
	
		<polygon fill="#00AEEF" stroke="#231F20" stroke-width="4" stroke-linecap="round" stroke-linejoin="round" stroke-miterlimit="10" points="
		591.8,424.2 591.1,402.6 461.7,477.3 461.7,499.3 	"/>
	<rect x="83.6" y="218.1" fill="#F7941D" stroke="#231F20" stroke-width="5" stroke-miterlimit="10" width="14.8" height="38.4"/>
	<path fill="#00AEEF" stroke="#231F20" stroke-miterlimit="10" d="M287.5,297.1L287.5,297.1c3.6-3.6,9.6-3.6,13.2,0v0
		c3.6,3.6,3.6,9.6,0,13.2l0,0c-3.6,3.6-9.6,3.6-13.2,0h0C283.9,306.6,283.9,300.7,287.5,297.1z"/>
	
		<path fill="#00AEEF" stroke="#231F20" stroke-width="5" stroke-linecap="round" stroke-linejoin="round" stroke-miterlimit="10" d="
		M312.5,498.6c0,7.2-22.1,13.1-49.4,13.1s-49.4-5.9-49.4-13.1v-12.4h98.8V498.6z"/>
	<path fill="#00AEEF" stroke="#231F20" stroke-miterlimit="10" d="M289.5,308.2l9.1-9.1c4.7-4.7,12.3-4.7,17,0l18.7,18.7
		c4.7,4.7,4.7,12.3,0,17l-9.1,9.1c-4.7,4.7-12.3,4.7-17,0l-18.7-18.7C284.9,320.5,284.9,312.9,289.5,308.2z"/>
	
		<ellipse fill="#00AEEF" stroke="#231F20" stroke-width="5" stroke-linecap="round" stroke-linejoin="round" stroke-miterlimit="10" cx="263.1" cy="486.2" rx="49.4" ry="13.1"/>
	<path fill="#FFB900" stroke="#231F20" stroke-width="5" stroke-miterlimit="10" d="M384.6,394.2c16.7-16.7,13.2-47.4-7.8-68.4
		l-60.6,60.6C337.3,407.4,367.9,410.9,384.6,394.2z"/>
	<path fill="#00AEEF" stroke="#231F20" stroke-miterlimit="10" d="M376.8,325.8c0,0-51.7-24.5-68.4-7.8
		c-16.7,16.7,7.8,68.4,7.8,68.4L376.8,325.8z"/>
	<path fill="#00AEEF" stroke="#231F20" stroke-width="5" stroke-miterlimit="10" d="M287.5,297.1L287.5,297.1
		c3.6-3.6,9.6-3.6,13.2,0v0c3.6,3.6,3.6,9.6,0,13.2l0,0c-3.6,3.6-9.6,3.6-13.2,0h0C283.9,306.6,283.9,300.7,287.5,297.1z"/>
	
		<path fill="#00AEEF" stroke="#231F20" stroke-width="5" stroke-linecap="round" stroke-linejoin="round" stroke-miterlimit="10" d="
		M303.9,349.2c0,0-48.2,44.1-48.2,136.3c0,0,2.7,2.2,7.4,2.2c5.2,0,8.2-2.2,8.2-2.2s-14.5-62.7,35.6-124S303.9,349.2,303.9,349.2z"
		/>
	<path fill="#00AEEF" stroke="#231F20" stroke-width="5" stroke-miterlimit="10" d="M289.5,308.2l9.1-9.1c4.7-4.7,12.3-4.7,17,0
		l18.7,18.7c4.7,4.7,4.7,12.3,0,17l-9.1,9.1c-4.7,4.7-12.3,4.7-17,0l-18.7-18.7C284.9,320.5,284.9,312.9,289.5,308.2z"/>
	
		<path fill="#00AEEF" stroke="#231F20" stroke-width="5" stroke-linecap="round" stroke-linejoin="round" stroke-miterlimit="10" d="
		M384.6,394.2c16.7-16.7,13.2-47.4-7.8-68.4l-60.6,60.6C337.3,407.4,367.9,410.9,384.6,394.2z"/>
	
		<path fill="#00AEEF" stroke="#231F20" stroke-width="5" stroke-linecap="round" stroke-linejoin="round" stroke-miterlimit="10" d="
		M376.8,325.8c0,0-51.7-24.5-68.4-7.8c-16.7,16.7,7.8,68.4,7.8,68.4L376.8,325.8z"/>
</g>
<g id="Layer_3" display="none">
</g>
<g id="svg_demo">
</g>
</svg>
