<?xml version="1.0" encoding="utf-8"?>
<!-- Generator: Adobe Illustrator 20.1.0, SVG Export Plug-In . SVG Version: 6.00 Build 0)  -->
<svg version="1.1" xmlns="http://www.w3.org/2000/svg" xmlns:xlink="http://www.w3.org/1999/xlink" x="0px" y="0px" width="192.6px"
	 height="351px" viewBox="0 0 192.6 351" enable-background="new 0 0 192.6 351" xml:space="preserve">
<g id="Layer_1">
	<path fill="#FFB900" stroke="#231F20" stroke-miterlimit="10" d="M183.3,41.4V311c0,4.3-3.5,7.9-7.9,7.9H158
		c-4.3,0-7.9-3.5-7.9-7.9V41.4c0-4.3,3.5-7.9,7.9-7.9h17.4C179.8,33.6,183.3,37.1,183.3,41.4z"/>
	<path fill="#00AEEF" stroke="#231F20" stroke-width="5" stroke-miterlimit="10" d="M162.5,25.1v302.3c0,10.4-8.4,18.8-18.8,18.8
		H95.4c-10.4,0-18.8-8.4-18.8-18.8V25.1c0-10.4,8.4-18.8,18.8-18.8h48.3C154.1,6.2,162.5,14.7,162.5,25.1z"/>
	<path fill="#FFB900" stroke="#231F20" stroke-width="4" stroke-miterlimit="10" d="M183.3,41.4V311c0,4.3-3.5,7.9-7.9,7.9H158
		c-4.3,0-7.9-3.5-7.9-7.9V41.4c0-4.3,3.5-7.9,7.9-7.9h17.4C179.8,33.6,183.3,37.1,183.3,41.4z"/>
	<path fill="#00AEEF" stroke="#231F20" stroke-width="5" stroke-miterlimit="10" d="M162.5,25.1v302.3c0,10.4-8.4,18.8-18.8,18.8
		H95.4c-10.4,0-18.8-8.4-18.8-18.8V25.1c0-10.4,8.4-18.8,18.8-18.8h48.3C154.1,6.2,162.5,14.7,162.5,25.1z"/>
	<g id="Gfe427_15_">
		<g>
			<path d="M126.3,249.1c-0.1,0.4-0.2,0.8-0.3,1.2c-1.2,4.6-5.2,7.8-9.9,7.8c-5.4,0-10.7,0-16.1,0c-0.4,0-0.8,0-1.3,0
				c0,1.2,0,2.2,0,3.3c-0.1,4.5-2.1,7.7-6.1,9.6c-0.6,0.3-0.8,0.6-0.8,1.3c0,1.6,0.1,3.2-0.2,4.7c-0.5,3.6-2.6,6.2-5.9,7.7
				c-0.7,0.3-0.9,0.7-0.9,1.4c0,1.6,0.1,3.3-0.2,4.8c-0.7,4.8-4.9,8.4-9.8,8.5c-9.5,0.1-19.1,0.1-28.6,0c-3.5,0-6.7-1.2-9.6-3.1
				c-4.9-3.2-9.9-6.5-14.7-9.8c-4-2.8-6.1-6.7-6.1-11.5c-0.1-11.3,0-22.6,0-33.9c0-6,4.2-10.3,10.2-10.7c1.2-0.1,2.4-0.6,3.4-1.2
				c11.6-7.7,23.2-15.4,34.9-23.2c2.8-1.9,5.9-2.9,9.2-3.2c7.4-0.6,12.8,5.7,11.2,13.1c-0.7,3.3-2.2,6.2-4.7,8.6
				c-1.9,1.9-3.8,3.8-5.7,5.9c0.5,0,1,0,1.4,0c13.1,0,26.1,0,39.2,0c6.4,0,9.9,2.7,11.4,8.9c0,0.1,0.1,0.1,0.1,0.2
				C126.3,242.8,126.3,245.9,126.3,249.1z M91.7,258.2c-0.6,0-1.1,0-1.5,0c-2.9,0-5.8,0-8.7,0c-2,0-3.5-1.5-3.5-3.4
				c0-1.9,1.5-3.4,3.6-3.4c0.3,0,0.6,0,1,0c11,0,21.9,0,32.9,0c2.7,0,4-1.3,4-4.1c0-1.9,0-3.7,0-5.6c0-2.9-1.3-4.2-4.1-4.2
				c-11.1,0-22.2,0-33.2,0c-7.1,0-14.2,0-21.3,0c-2,0-3.6-1.5-3.6-3.4c0-1.9,1.5-3.4,3.5-3.4c0.8,0,1.7,0.1,2.5,0
				c0.5-0.1,1.1-0.3,1.5-0.6c3.5-3.4,6.9-6.9,10.4-10.4c1.4-1.4,2.3-3.1,2.7-5c0.7-3.1-1.3-5.3-4.5-4.7c-2.1,0.3-4.1,1.1-5.9,2.3
				c-11.5,7.7-23.1,15.4-34.6,23.1c-1.9,1.3-4,2-6.3,2.1c-2.7,0.2-3.9,1.4-3.9,4.1c0,11.1,0,22.2,0,33.4c0,2.7,1.1,4.8,3.3,6.3
				c4.7,3.2,9.4,6.3,14.2,9.4c0.9,0.6,1.8,1.1,2.8,1.4c1.4,0.4,2.9,0.8,4.4,0.8c8.9,0.1,17.8,0,26.8,0c2,0,3.5-1.1,3.7-2.9
				c0.1-1.3,0-2.6,0-4c-0.5,0-0.9,0-1.2,0c-3,0-5.9,0-8.9,0c-1.1,0-2.1-0.4-2.9-1.2c-0.9-1.1-1.1-2.3-0.5-3.6c0.6-1.3,1.7-2,3.2-2
				c4.5,0,9,0,13.5,0c1.8,0,3.3-0.9,3.5-2.5c0.2-1.4,0-2.9,0-4.4c-3.4,0-6.7,0-10,0c-1.4,0-2.6-0.5-3.3-1.8c-1.3-2.4,0.4-5,3.2-5
				c4.5,0,9,0,13.5,0c1.9,0,3.5-1.3,3.6-3.1C91.8,260.7,91.7,259.5,91.7,258.2z"/>
			<path fill="#FFFFFF" d="M91.7,258.2c0,1.4,0.1,2.6,0,3.8c-0.1,1.8-1.7,3.1-3.6,3.1c-4.5,0-9,0-13.5,0c-2.7,0-4.4,2.7-3.2,5
				c0.7,1.3,1.8,1.8,3.3,1.8c3.3,0,6.6,0,10,0c0,1.5,0.2,3,0,4.4c-0.3,1.6-1.7,2.5-3.5,2.5c-4.5,0-9,0-13.5,0c-1.5,0-2.6,0.7-3.2,2
				c-0.6,1.3-0.4,2.5,0.5,3.6c0.7,0.9,1.7,1.3,2.9,1.2c3,0,5.9,0,8.9,0c0.4,0,0.8,0,1.2,0c0,1.4,0.1,2.7,0,4
				c-0.2,1.8-1.7,2.9-3.7,2.9c-8.9,0-17.8,0-26.8,0c-1.5,0-3-0.4-4.4-0.8c-1-0.3-1.9-0.8-2.8-1.4c-4.7-3.1-9.5-6.3-14.2-9.4
				c-2.2-1.5-3.3-3.6-3.3-6.3c0-11.1,0-22.2,0-33.4c0-2.7,1.2-3.9,3.9-4.1c2.3-0.2,4.4-0.9,6.3-2.1c11.5-7.7,23.1-15.4,34.6-23.1
				c1.8-1.2,3.7-2,5.9-2.3c3.2-0.5,5.2,1.6,4.5,4.7c-0.4,1.9-1.3,3.6-2.7,5c-3.5,3.4-6.9,6.9-10.4,10.4c-0.4,0.4-1,0.5-1.5,0.6
				c-0.8,0.1-1.7,0-2.5,0c-2,0-3.5,1.5-3.5,3.4c0,1.9,1.5,3.4,3.6,3.4c7.1,0,14.2,0,21.3,0c11.1,0,22.2,0,33.2,0
				c2.9,0,4.1,1.3,4.1,4.2c0,1.9,0,3.7,0,5.6c0,2.7-1.3,4.1-4,4.1c-11,0-21.9,0-32.9,0c-0.3,0-0.6,0-1,0c-2,0.1-3.5,1.5-3.6,3.4
				c0,1.9,1.5,3.4,3.5,3.4c2.9,0,5.8,0,8.7,0C90.6,258.2,91.1,258.2,91.7,258.2z"/>
		</g>
	</g>
	<g id="Gfe427_17_">
		<g>
			<path d="M126.3,121.1c0,0.1-0.1,0.1-0.1,0.2c-1.6,6.2-5.1,8.9-11.4,8.9c-13.1,0-26.1,0-39.2,0c-0.5,0-1,0-1.4,0
				c1.9,2.2,3.8,4.1,5.7,5.9c2.5,2.4,4,5.3,4.7,8.6c1.6,7.3-3.8,13.7-11.2,13.1c-3.3-0.3-6.4-1.3-9.2-3.2
				c-11.6-7.7-23.2-15.5-34.9-23.2c-1-0.6-2.2-1.1-3.4-1.2c-5.9-0.4-10.2-4.7-10.2-10.7c0-11.3,0-22.6,0-33.9
				c0-4.9,2.1-8.8,6.1-11.5c4.9-3.3,9.8-6.6,14.7-9.8c2.9-1.9,6.2-3.1,9.6-3.1c9.5-0.1,19.1-0.1,28.6,0c4.8,0,9,3.7,9.8,8.5
				c0.2,1.6,0.2,3.2,0.2,4.8c0,0.7,0.2,1.1,0.9,1.4c3.3,1.6,5.3,4.1,5.9,7.7c0.2,1.6,0.2,3.2,0.2,4.7c0,0.6,0.2,1,0.8,1.3
				c4,1.9,6.1,5.2,6.1,9.6c0,1.1,0,2.1,0,3.3c0.5,0,0.9,0,1.3,0c5.4,0,10.7,0,16.1,0c4.8,0,8.7,3.2,9.9,7.8c0.1,0.4,0.2,0.8,0.3,1.2
				C126.3,114.7,126.3,117.9,126.3,121.1z M91.7,98.7c-0.1-1.8-1.7-3.1-3.6-3.1c-4.5,0-9,0-13.5,0c-2.7,0-4.4-2.7-3.2-5
				c0.7-1.3,1.8-1.8,3.3-1.8c3.3,0,6.6,0,10,0c0-1.5,0.2-3,0-4.4c-0.3-1.6-1.7-2.5-3.5-2.5c-4.5,0-9,0-13.5,0c-1.5,0-2.6-0.7-3.2-2
				c-0.6-1.3-0.4-2.5,0.5-3.6c0.7-0.9,1.7-1.3,2.9-1.2c3,0,5.9,0,8.9,0c0.4,0,0.8,0,1.2,0c0-1.4,0.1-2.7,0-4
				c-0.2-1.8-1.7-2.9-3.7-2.9c-8.9,0-17.8,0-26.8,0c-1.5,0-3,0.4-4.4,0.8c-1,0.3-1.9,0.8-2.8,1.4c-4.7,3.1-9.5,6.3-14.2,9.4
				c-2.2,1.5-3.3,3.6-3.3,6.3c0,11.1,0,22.2,0,33.4c0,2.7,1.2,3.9,3.9,4.1c2.3,0.2,4.4,0.9,6.3,2.1c11.5,7.7,23.1,15.4,34.6,23.1
				c1.8,1.2,3.7,2,5.9,2.3c3.2,0.5,5.2-1.6,4.5-4.7c-0.4-1.9-1.3-3.6-2.7-5c-3.5-3.4-6.9-6.9-10.4-10.4c-0.4-0.4-1-0.5-1.5-0.6
				c-0.8-0.1-1.7,0-2.5,0c-2,0-3.5-1.5-3.5-3.4c0-1.9,1.5-3.4,3.6-3.4c7.1,0,14.2,0,21.3,0c11.1,0,22.2,0,33.2,0
				c2.9,0,4.1-1.3,4.1-4.2c0-1.9,0-3.7,0-5.6c0-2.7-1.3-4.1-4-4.1c-11,0-21.9,0-32.9,0c-0.3,0-0.6,0-1,0c-2-0.1-3.5-1.5-3.6-3.4
				c0-1.9,1.5-3.4,3.5-3.4c2.9,0,5.8,0,8.7,0c0.5,0,0.9,0,1.5,0C91.7,101.2,91.8,99.9,91.7,98.7z"/>
			<path fill="#FFFFFF" d="M91.7,102.5c0-1.4,0.1-2.6,0-3.8c-0.1-1.8-1.7-3.1-3.6-3.1c-4.5,0-9,0-13.5,0c-2.7,0-4.4-2.7-3.2-5
				c0.7-1.3,1.8-1.8,3.3-1.8c3.3,0,6.6,0,10,0c0-1.5,0.2-3,0-4.4c-0.3-1.6-1.7-2.5-3.5-2.5c-4.5,0-9,0-13.5,0c-1.5,0-2.6-0.7-3.2-2
				c-0.6-1.3-0.4-2.5,0.5-3.6c0.7-0.9,1.7-1.3,2.9-1.2c3,0,5.9,0,8.9,0c0.4,0,0.8,0,1.2,0c0-1.4,0.1-2.7,0-4
				c-0.2-1.8-1.7-2.9-3.7-2.9c-8.9,0-17.8,0-26.8,0c-1.5,0-3,0.4-4.4,0.8c-1,0.3-1.9,0.8-2.8,1.4c-4.7,3.1-9.5,6.3-14.2,9.4
				c-2.2,1.5-3.3,3.6-3.3,6.3c0,11.1,0,22.2,0,33.4c0,2.7,1.2,3.9,3.9,4.1c2.3,0.2,4.4,0.9,6.3,2.1c11.5,7.7,23.1,15.4,34.6,23.1
				c1.8,1.2,3.7,2,5.9,2.3c3.2,0.5,5.2-1.6,4.5-4.7c-0.4-1.9-1.3-3.6-2.7-5c-3.5-3.4-6.9-6.9-10.4-10.4c-0.4-0.4-1-0.5-1.5-0.6
				c-0.8-0.1-1.7,0-2.5,0c-2,0-3.5-1.5-3.5-3.4c0-1.9,1.5-3.4,3.6-3.4c7.1,0,14.2,0,21.3,0c11.1,0,22.2,0,33.2,0
				c2.9,0,4.1-1.3,4.1-4.2c0-1.9,0-3.7,0-5.6c0-2.7-1.3-4.1-4-4.1c-11,0-21.9,0-32.9,0c-0.3,0-0.6,0-1,0c-2-0.1-3.5-1.5-3.6-3.4
				c0-1.9,1.5-3.4,3.5-3.4c2.9,0,5.8,0,8.7,0C90.6,102.5,91.1,102.5,91.7,102.5z"/>
		</g>
	</g>
</g>
<g id="Layer_3" display="none">
</g>
<g id="svg_demo">
</g>
</svg>
