<?xml version="1.0" encoding="utf-8"?>
<!-- Generator: Adobe Illustrator 20.1.0, SVG Export Plug-In . SVG Version: 6.00 Build 0)  -->
<svg version="1.1" xmlns="http://www.w3.org/2000/svg" xmlns:xlink="http://www.w3.org/1999/xlink" x="0px" y="0px" width="392.1px"
	 height="376px" viewBox="0 0 392.1 376" enable-background="new 0 0 392.1 376" xml:space="preserve">
<g id="Layer_1">
	<g>
		<g>
			<path fill="#FFB900" stroke="#231F20" stroke-width="3" stroke-miterlimit="10" d="M42.4,304.6l-19.3,22.7
				c4.2,6.9,14.8,17.1,18,20.1l0,0c0,0,0.2,0.1,0.5,0.4c0.3,0.3,0.5,0.4,0.5,0.4l0,0c3.5,2.7,15.2,11.6,22.7,14.6l19.3-22.7l-4.6-5
				l-31.4-26.7L42.4,304.6z"/>
			<path fill="#00AEEF" stroke="#231F20" stroke-width="5" stroke-miterlimit="10" d="M68.6,207.5c0,0-21.6,25.3-33.6,39.4
				s16.9,57.2,16.9,57.2l-3.7,4.3l31.4,26.7l3.7-4.3c0,0,47.1,21.7,59.1,7.6s33.6-39.4,33.6-39.4s-5.6-14.8,0-21.3
				c5.5-6.5,16.8-19.7,16.8-19.7s11.4,7.9,25.8-8.9c14.4-16.9,121.8-142.8,121.8-142.8s-1.7-12.2-47.8-51.6l0,0
				c-0.2-0.1-0.3-0.3-0.5-0.4c-0.2-0.1-0.3-0.3-0.5-0.4l0,0c-46.2-39.3-58.5-39.1-58.5-39.1S125.5,140.7,111.1,157.5
				s-4.7,26.9-4.7,26.9s-11.3,13.2-16.8,19.7S68.6,207.5,68.6,207.5z"/>
		</g>
		<g>
			<g>
				<path fill="#FFB900" d="M243.1,161.9l8.4,6.7l-22.3,47.1l-7.8-6.1l14.9-29.3c0.9-1.7,2.3-3.9,2.3-3.9l-0.1-0.1
					c0,0-1.8,1.9-3.3,3.1l-25,21.4l-7.8-6.2L243.1,161.9z"/>
				<path fill="#FFB900" d="M228.7,150.5l-31.5,39.9L176,173.7l5.6-7.1l13.8,10.9l8-10.2l-11.6-9.2l5.6-7.1l11.6,9.2l6.6-8.3
					l-13.8-10.9l5.6-7.1L228.7,150.5z"/>
				<path fill="#FFB900" d="M158.5,126.7c9.1-11.5,19.5-17.1,29.1-9.5c11,8.7,6,21.2-2.2,31.6c-8.2,10.4-19.2,18.1-30.2,9.5
					c-6.5-5.1-7.4-11.6-5.4-18.2l9.6,1.1c-1.6,4.1-1.6,7.6,1.4,10c5.1,4,11.5-1,17.2-8.2c5.7-7.2,9-14.6,4-18.6
					c-4.4-3.5-9,0.3-11.8,4l4.7,3.7l-5.6,7.1l-12.6-9.9L158.5,126.7z"/>
			</g>
		</g>
	</g>
	<g id="Gfe427_14_">
		<g>
			<path d="M315.7,114.9c0.4,0.1,0.8,0.2,1.2,0.3c4.6,1.2,7.8,5.2,7.8,9.9c0,5.4,0,10.7,0,16.1c0,0.4,0,0.8,0,1.3c1.2,0,2.2,0,3.3,0
				c4.5,0.1,7.7,2.1,9.6,6.1c0.3,0.6,0.6,0.8,1.3,0.8c1.6,0,3.2-0.1,4.7,0.2c3.6,0.5,6.2,2.6,7.7,5.9c0.3,0.7,0.7,0.9,1.4,0.9
				c1.6,0,3.3-0.1,4.8,0.2c4.8,0.7,8.4,4.9,8.5,9.8c0.1,9.5,0.1,19.1,0,28.6c0,3.5-1.2,6.7-3.1,9.6c-3.2,4.9-6.5,9.9-9.8,14.7
				c-2.8,4-6.7,6.1-11.5,6.1c-11.3,0.1-22.6,0-33.9,0c-6,0-10.3-4.2-10.7-10.2c-0.1-1.2-0.6-2.4-1.2-3.4
				c-7.7-11.6-15.4-23.2-23.2-34.9c-1.9-2.8-2.9-5.9-3.2-9.2c-0.6-7.4,5.7-12.8,13.1-11.2c3.3,0.7,6.2,2.2,8.6,4.7
				c1.9,1.9,3.8,3.8,5.9,5.7c0-0.5,0-1,0-1.4c0-13.1,0-26.1,0-39.2c0-6.4,2.7-9.9,8.9-11.4c0.1,0,0.1-0.1,0.2-0.1
				C309.4,114.9,312.6,114.9,315.7,114.9z M324.8,149.5c0,0.6,0,1.1,0,1.5c0,2.9,0,5.8,0,8.7c0,2-1.5,3.5-3.4,3.5
				c-1.9,0-3.4-1.5-3.4-3.6c0-0.3,0-0.6,0-1c0-11,0-21.9,0-32.9c0-2.7-1.3-4-4.1-4c-1.9,0-3.7,0-5.6,0c-2.9,0-4.2,1.3-4.2,4.1
				c0,11.1,0,22.2,0,33.2c0,7.1,0,14.2,0,21.3c0,2-1.5,3.6-3.4,3.6c-1.9,0-3.4-1.5-3.4-3.5c0-0.8,0.1-1.7,0-2.5
				c-0.1-0.5-0.3-1.1-0.6-1.5c-3.4-3.5-6.9-6.9-10.4-10.4c-1.4-1.4-3.1-2.3-5-2.7c-3.1-0.7-5.3,1.3-4.7,4.5c0.3,2.1,1.1,4.1,2.3,5.9
				c7.7,11.5,15.4,23.1,23.1,34.6c1.3,1.9,2,4,2.1,6.3c0.2,2.7,1.4,3.9,4.1,3.9c11.1,0,22.2,0,33.4,0c2.7,0,4.8-1.1,6.3-3.3
				c3.2-4.7,6.3-9.4,9.4-14.2c0.6-0.9,1.1-1.8,1.4-2.8c0.4-1.4,0.8-2.9,0.8-4.4c0.1-8.9,0-17.8,0-26.8c0-2-1.1-3.5-2.9-3.7
				c-1.3-0.1-2.6,0-4,0c0,0.5,0,0.9,0,1.2c0,3,0,5.9,0,8.9c0,1.1-0.4,2.1-1.2,2.9c-1.1,0.9-2.3,1.1-3.6,0.5c-1.3-0.6-2-1.7-2-3.2
				c0-4.5,0-9,0-13.5c0-1.8-0.9-3.3-2.5-3.5c-1.4-0.2-2.9,0-4.4,0c0,3.4,0,6.7,0,10c0,1.4-0.5,2.6-1.8,3.3c-2.4,1.3-5-0.4-5-3.2
				c0-4.5,0-9,0-13.5c0-1.9-1.3-3.5-3.1-3.6C327.4,149.4,326.2,149.5,324.8,149.5z"/>
			<path fill="#FFFFFF" d="M324.8,149.5c1.4,0,2.6-0.1,3.8,0c1.8,0.1,3.1,1.7,3.1,3.6c0,4.5,0,9,0,13.5c0,2.7,2.7,4.4,5,3.2
				c1.3-0.7,1.8-1.8,1.8-3.3c0-3.3,0-6.6,0-10c1.5,0,3-0.2,4.4,0c1.6,0.3,2.5,1.7,2.5,3.5c0,4.5,0,9,0,13.5c0,1.5,0.7,2.6,2,3.2
				c1.3,0.6,2.5,0.4,3.6-0.5c0.9-0.7,1.3-1.7,1.2-2.9c0-3,0-5.9,0-8.9c0-0.4,0-0.8,0-1.2c1.4,0,2.7-0.1,4,0c1.8,0.2,2.9,1.7,2.9,3.7
				c0,8.9,0,17.8,0,26.8c0,1.5-0.4,3-0.8,4.4c-0.3,1-0.8,1.9-1.4,2.8c-3.1,4.7-6.3,9.5-9.4,14.2c-1.5,2.2-3.6,3.3-6.3,3.3
				c-11.1,0-22.2,0-33.4,0c-2.7,0-3.9-1.2-4.1-3.9c-0.2-2.3-0.9-4.4-2.1-6.3c-7.7-11.5-15.4-23.1-23.1-34.6c-1.2-1.8-2-3.7-2.3-5.9
				c-0.5-3.2,1.6-5.2,4.7-4.5c1.9,0.4,3.6,1.3,5,2.7c3.4,3.5,6.9,6.9,10.4,10.4c0.4,0.4,0.5,1,0.6,1.5c0.1,0.8,0,1.7,0,2.5
				c0,2,1.5,3.5,3.4,3.5c1.9,0,3.4-1.5,3.4-3.6c0-7.1,0-14.2,0-21.3c0-11.1,0-22.2,0-33.2c0-2.9,1.3-4.1,4.2-4.1c1.9,0,3.7,0,5.6,0
				c2.7,0,4.1,1.3,4.1,4c0,11,0,21.9,0,32.9c0,0.3,0,0.6,0,1c0.1,2,1.5,3.5,3.4,3.6c1.9,0,3.4-1.5,3.4-3.5c0-2.9,0-5.8,0-8.7
				C324.8,150.5,324.8,150.1,324.8,149.5z"/>
		</g>
	</g>
</g>
<g id="Layer_3" display="none">
</g>
<g id="svg_demo">
</g>
</svg>
