<?xml version="1.0" encoding="utf-8"?>
<!-- Generator: Adobe Illustrator 20.1.0, SVG Export Plug-In . SVG Version: 6.00 Build 0)  -->
<svg version="1.1" xmlns="http://www.w3.org/2000/svg" xmlns:xlink="http://www.w3.org/1999/xlink" x="0px" y="0px" width="350.4px"
	 height="214.7px" viewBox="0 0 350.4 214.7" enable-background="new 0 0 350.4 214.7" xml:space="preserve">
<g id="Layer_1">
	
		<rect x="21.2" y="78" transform="matrix(0.921 -0.3897 0.3897 0.921 -30.5668 77.2806)" fill="#00AEEF" stroke="#231F20" stroke-width="5" stroke-linecap="round" stroke-linejoin="round" stroke-miterlimit="10" width="308" height="72"/>
	<g>
		<path d="M101.4,161.9l-5,2.1l-4.3-9.7c-0.8-1.7-1.7-4.3-1.7-4.3l-0.1,0c0,0,0.2,2.9,0.2,4.8l-0.1,11.7l-5,2.1l-9.6-23.3l4.4-1.9
			l4.7,12.3c0.7,1.7,1.5,4.3,1.5,4.3l0.1,0c0,0-0.2-2.6-0.2-4.6l0.1-14.7l3.9-1.6l5.3,12.1c0.7,1.7,1.6,4.3,1.6,4.3l0.1,0
			c0,0-0.2-2.8-0.3-4.6l-0.4-14.4l4.6-2L101.4,161.9z"/>
		<path d="M117.6,155l-1.5-3.6l-5.4,2.3l0.1,4.3l-4.7,2l0.6-27.6l4.9-2.1l10.4,23L117.6,155z M112,141.5c-0.6-1.5-1.5-4-1.5-4
			l-0.1,0c0.1,0.5,0.3,2.6,0.3,4.3l0,6.9l3.7-1.6L112,141.5z"/>
		<path d="M124.9,151.9l-4.9-25.3l4.4-1.9l4.9,25.3L124.9,151.9z"/>
		<path d="M136.9,146.8l-4-20.8l-4,1.7l-0.9-4.5l12.5-5.3l0.9,4.5l-4,1.7l4,20.8L136.9,146.8z"/>
		<path d="M155.8,138.8L155.8,138.8l6-18.8c0.5-1.5,0.6-3.3,0.1-4.4c-0.4-1.1-1.3-1.7-2.7-1.1c-1.6,0.7-2.3,3-2.1,5.5l-4.8-1.3
			c0.4-3.6,1.7-6.9,5.5-8.4c4.1-1.8,7.1,0,8.4,3c1.1,2.6,0.9,5.6,0,8.4l-1.9,6.3c-0.4,1.2-0.9,2.4-1.1,2.8l0,0.1l5.8-2.4l0.9,4.5
			L155.8,138.8z"/>
		<path d="M193,123.1l-1.9-9.5l-5.8,2.5l1.9,9.5l-4.4,1.9l-4.9-25.3l4.4-1.9l2.2,11.3l5.8-2.5l-2.2-11.3l4.4-1.9l4.9,25.3L193,123.1
			z"/>
		<path d="M200.5,111.4c-2.7-6.3-4.5-17.4,3-20.6c4.5-1.9,7.9,0.7,9.6,4.8c2.7,6.3,4.4,17.3-3,20.5
			C205.7,118.1,202.3,115.6,200.5,111.4z M209,97.9c-0.9-2.2-2.2-3.5-4-2.7c-3.5,1.5-1.9,10.1-0.2,14.1c0.9,2.2,2.2,3.5,4,2.7
			C212.3,110.4,210.7,101.8,209,97.9z"/>
		<path d="M226.3,81.7l4.4-1.9l3.4,17.3c1.2,6.1-0.6,9.3-4.6,11c-3.5,1.5-7.5,0.7-9.2-3.4c-0.3-0.6-0.5-1.3-0.6-2.1l-3.3-16.8
			l4.4-1.9l3.3,17.1c0.1,0.5,0.2,1,0.4,1.4c0.6,1.5,1.8,2.1,3.4,1.4c2.1-0.9,2.1-2.6,1.6-5.1L226.3,81.7z"/>
		<path d="M250.8,98.6l-4.6-6.5l-2.5,1.1l1.5,7.8l-4.4,1.9l-4.9-25.3l5.8-2.5c4.3-1.8,8,0.5,9.4,3.9c1.4,3.2,1.2,7.4-1.4,10.5
			l5.3,7.3L250.8,98.6z M244.5,88c2.9-1.2,3.7-4,2.5-6.7c-0.7-1.8-2.2-2.6-4.2-1.8l-1.6,0.7l1.7,8.5L244.5,88z"/>
		<path d="M259,87.4c1.1,1.5,3.2,1.9,4.9,1.2c1.7-0.7,2.8-2.3,1.9-4.4c-1.3-3-9.3-1.1-11.6-6.6c-1.6-3.9,0.1-8.2,4.3-10
			c3.8-1.6,7-0.5,8.8,2.2l-3.1,3.9c-0.9-1.9-2.6-2.5-4.3-1.8c-1.3,0.6-2,2-1.4,3.4c1.3,3.1,9.3,1,11.6,6.4c2.1,5-0.5,9.3-4.9,11.1
			c-3.6,1.5-7.3,0.7-9-1.7L259,87.4z"/>
	</g>
</g>
<g id="Layer_3" display="none">
</g>
<g id="svg_demo">
</g>
</svg>
