<?xml version="1.0" encoding="utf-8"?>
<!-- Generator: Adobe Illustrator 20.1.0, SVG Export Plug-In . SVG Version: 6.00 Build 0)  -->
<svg version="1.1" xmlns="http://www.w3.org/2000/svg" xmlns:xlink="http://www.w3.org/1999/xlink" x="0px" y="0px" width="638.3px"
	 height="574.5px" viewBox="0 0 638.3 574.5" enable-background="new 0 0 638.3 574.5" xml:space="preserve">
<pattern  x="-5618" y="-3877.1" width="28.8" height="28.8" patternUnits="userSpaceOnUse" id="_x31_0_dpi_70_x25_" viewBox="5 -33.8 28.8 28.8" overflow="visible">
	<g>
		<rect x="5" y="-33.8" fill="none" width="28.8" height="28.8"/>
		<g>
			<circle fill="#F7941D" cx="33.8" cy="-5" r="5"/>
			<circle fill="#F7941D" cx="19.4" cy="-5" r="5"/>
			<circle fill="#F7941D" cx="33.8" cy="-19.4" r="5"/>
			<circle fill="#F7941D" cx="19.4" cy="-19.4" r="5"/>
			<circle fill="#F7941D" cx="12.2" cy="-12.2" r="5"/>
			<circle fill="#F7941D" cx="26.6" cy="-12.2" r="5"/>
			<circle fill="#F7941D" cx="12.2" cy="-26.6" r="5"/>
			<circle fill="#F7941D" cx="26.6" cy="-26.6" r="5"/>
		</g>
		<g>
			<circle fill="#F7941D" cx="5" cy="-5" r="5"/>
			<circle fill="#F7941D" cx="5" cy="-19.4" r="5"/>
		</g>
		<g>
			<circle fill="#F7941D" cx="33.8" cy="-33.8" r="5"/>
			<circle fill="#F7941D" cx="19.4" cy="-33.8" r="5"/>
		</g>
		<g>
			<circle fill="#F7941D" cx="5" cy="-33.8" r="5"/>
		</g>
	</g>
</pattern>
<g id="Layer_1">
	
		<rect x="316.5" y="43.1" opacity="0.5" fill="#F7941D" stroke="#231F20" stroke-width="5" stroke-miterlimit="10" width="224.1" height="224.1"/>
	<polygon opacity="0.5" fill="#00AEEF" stroke="#231F20" stroke-width="5" stroke-miterlimit="10" points="436.8,146.9 436.8,43.1 
		420.3,43.1 420.3,146.9 316.5,146.9 316.5,163.5 420.3,163.5 420.3,267.3 436.8,267.3 436.8,163.5 540.6,163.5 540.6,146.9 	"/>
	
		<rect x="316.5" y="43.1" opacity="0.5" fill="#F7941D" stroke="#231F20" stroke-width="5" stroke-miterlimit="10" width="224.1" height="5.4"/>
	
		<rect x="316.5" y="54.8" opacity="0.5" fill="#F7941D" stroke="#231F20" stroke-width="5" stroke-miterlimit="10" width="224.1" height="5.4"/>
	
		<rect x="316.5" y="66.5" opacity="0.5" fill="#F7941D" stroke="#231F20" stroke-width="5" stroke-miterlimit="10" width="224.1" height="5.4"/>
	
		<rect x="316.5" y="78.2" opacity="0.5" fill="#F7941D" stroke="#231F20" stroke-width="5" stroke-miterlimit="10" width="224.1" height="5.4"/>
	
		<rect x="316.5" y="89.9" opacity="0.5" fill="#F7941D" stroke="#231F20" stroke-width="5" stroke-miterlimit="10" width="224.1" height="5.4"/>
	
		<rect x="316.5" y="101.5" opacity="0.5" fill="#F7941D" stroke="#231F20" stroke-width="5" stroke-miterlimit="10" width="224.1" height="5.4"/>
	
		<rect x="316.5" y="113.2" opacity="0.5" fill="#F7941D" stroke="#231F20" stroke-width="5" stroke-miterlimit="10" width="224.1" height="5.4"/>
	
		<rect x="316.5" y="124.9" opacity="0.5" fill="#F7941D" stroke="#231F20" stroke-width="5" stroke-miterlimit="10" width="224.1" height="5.4"/>
	
		<rect x="316.5" y="136.6" opacity="0.5" fill="#F7941D" stroke="#231F20" stroke-width="5" stroke-miterlimit="10" width="224.1" height="5.4"/>
	
		<rect x="316.5" y="148.2" opacity="0.5" fill="#F7941D" stroke="#231F20" stroke-width="5" stroke-miterlimit="10" width="224.1" height="5.4"/>
	
		<rect x="316.5" y="155.2" opacity="0.5" fill="#F7941D" stroke="#231F20" stroke-width="5" stroke-miterlimit="10" width="224.1" height="5.4"/>
	
		<rect x="316.5" y="166.9" opacity="0.5" fill="#F7941D" stroke="#231F20" stroke-width="5" stroke-miterlimit="10" width="224.1" height="5.4"/>
	
		<rect x="316.5" y="178.6" opacity="0.5" fill="#F7941D" stroke="#231F20" stroke-width="5" stroke-miterlimit="10" width="224.1" height="5.4"/>
	
		<rect x="316.5" y="190.2" opacity="0.5" fill="#F7941D" stroke="#231F20" stroke-width="5" stroke-miterlimit="10" width="224.1" height="5.4"/>
	
		<rect x="316.5" y="201.9" opacity="0.5" fill="#F7941D" stroke="#231F20" stroke-width="5" stroke-miterlimit="10" width="224.1" height="5.4"/>
	
		<rect x="316.5" y="213.6" opacity="0.5" fill="#F7941D" stroke="#231F20" stroke-width="5" stroke-miterlimit="10" width="224.1" height="5.4"/>
	
		<rect x="316.5" y="225.3" opacity="0.5" fill="#F7941D" stroke="#231F20" stroke-width="5" stroke-miterlimit="10" width="224.1" height="5.4"/>
	
		<rect x="316.5" y="236.9" opacity="0.5" fill="#F7941D" stroke="#231F20" stroke-width="5" stroke-miterlimit="10" width="224.1" height="5.4"/>
	
		<rect x="316.5" y="248.6" opacity="0.5" fill="#F7941D" stroke="#231F20" stroke-width="5" stroke-miterlimit="10" width="224.1" height="5.4"/>
	
		<rect x="316.5" y="260.3" opacity="0.5" fill="#F7941D" stroke="#231F20" stroke-width="5" stroke-miterlimit="10" width="224.1" height="5.4"/>
	
		<rect x="16.8" y="43.1" opacity="0.5" fill="#F7941D" stroke="#231F20" stroke-width="5" stroke-miterlimit="10" width="210.8" height="402.8"/>
	
		<rect x="16.8" y="43.1" opacity="0.5" fill="#00AEEF" stroke="#231F20" stroke-width="5" stroke-miterlimit="10" width="210.8" height="402.8"/>
	
		<rect x="33" y="223.8" opacity="0.5" fill="#F7941D" stroke="#231F20" stroke-width="5" stroke-miterlimit="10" width="14.8" height="38.4"/>
	
		<polygon fill="#FFB900" stroke="#231F20" stroke-width="4" stroke-linecap="round" stroke-linejoin="round" stroke-miterlimit="10" points="
		502.5,354.8 595.1,408.3 465.7,483 373.1,429.6 	"/>
	<pattern  id="SVGID_1_" xlink:href="#_x31_0_dpi_70_x25_" patternTransform="matrix(0.8235 0 0 0.8235 91.506 -299.862)">
	</pattern>
	<polygon fill="url(#SVGID_1_)" points="502.4,373.6 567.9,411.4 465.7,470.4 400.9,432.2 	"/>
	
		<polygon fill="#00AEEF" stroke="#231F20" stroke-width="4" stroke-linecap="round" stroke-linejoin="round" stroke-miterlimit="10" points="
		373.1,451.5 373.1,429.6 465.7,483 465.7,504.9 	"/>
	
		<polygon fill="#00AEEF" stroke="#231F20" stroke-width="4" stroke-linecap="round" stroke-linejoin="round" stroke-miterlimit="10" points="
		595.8,429.8 595.1,408.3 465.7,483 465.7,504.9 	"/>
	<path fill="#00AEEF" stroke="#231F20" stroke-miterlimit="10" d="M291.5,302.7L291.5,302.7c3.6-3.6,9.6-3.6,13.2,0l0,0
		c3.6,3.6,3.6,9.6,0,13.2h0c-3.6,3.6-9.6,3.6-13.2,0l0,0C287.9,312.3,287.9,306.3,291.5,302.7z"/>
	
		<path fill="#00AEEF" stroke="#231F20" stroke-width="5" stroke-linecap="round" stroke-linejoin="round" stroke-miterlimit="10" d="
		M316.5,504.2c0,7.2-22.1,13.1-49.4,13.1s-49.4-5.9-49.4-13.1v-12.4h98.8V504.2z"/>
	<path fill="#00AEEF" stroke="#231F20" stroke-miterlimit="10" d="M293.6,313.9l9.1-9.1c4.7-4.7,12.3-4.7,17,0l18.7,18.7
		c4.7,4.7,4.7,12.3,0,17l-9.1,9.1c-4.7,4.7-12.3,4.7-17,0l-18.7-18.7C288.9,326.2,288.9,318.5,293.6,313.9z"/>
	
		<ellipse fill="#00AEEF" stroke="#231F20" stroke-width="5" stroke-linecap="round" stroke-linejoin="round" stroke-miterlimit="10" cx="267.1" cy="491.9" rx="49.4" ry="13.1"/>
	<path fill="#FFB900" stroke="#231F20" stroke-width="5" stroke-miterlimit="10" d="M388.6,399.8c16.7-16.7,13.2-47.4-7.8-68.4
		L320.2,392C341.3,413.1,371.9,416.6,388.6,399.8z"/>
	<path fill="#00AEEF" stroke="#231F20" stroke-miterlimit="10" d="M380.8,331.4c0,0-51.7-24.5-68.4-7.8
		c-16.7,16.7,7.8,68.4,7.8,68.4L380.8,331.4z"/>
	<path fill="#00AEEF" stroke="#231F20" stroke-width="5" stroke-miterlimit="10" d="M291.5,302.7L291.5,302.7
		c3.6-3.6,9.6-3.6,13.2,0l0,0c3.6,3.6,3.6,9.6,0,13.2h0c-3.6,3.6-9.6,3.6-13.2,0l0,0C287.9,312.3,287.9,306.3,291.5,302.7z"/>
	
		<path fill="#00AEEF" stroke="#231F20" stroke-width="5" stroke-linecap="round" stroke-linejoin="round" stroke-miterlimit="10" d="
		M307.9,354.8c0,0-48.2,44.1-48.2,136.3c0,0,2.7,2.2,7.4,2.2c5.2,0,8.2-2.2,8.2-2.2s-14.5-62.7,35.6-124S307.9,354.8,307.9,354.8z"
		/>
	<path fill="#00AEEF" stroke="#231F20" stroke-width="5" stroke-miterlimit="10" d="M293.6,313.9l9.1-9.1c4.7-4.7,12.3-4.7,17,0
		l18.7,18.7c4.7,4.7,4.7,12.3,0,17l-9.1,9.1c-4.7,4.7-12.3,4.7-17,0l-18.7-18.7C288.9,326.2,288.9,318.5,293.6,313.9z"/>
	
		<path fill="#FFB900" stroke="#231F20" stroke-width="5" stroke-linecap="round" stroke-linejoin="round" stroke-miterlimit="10" d="
		M388.6,399.8c16.7-16.7,13.2-47.4-7.8-68.4L320.2,392C341.3,413.1,371.9,416.6,388.6,399.8z"/>
	
		<path fill="#00AEEF" stroke="#231F20" stroke-width="5" stroke-linecap="round" stroke-linejoin="round" stroke-miterlimit="10" d="
		M380.8,331.4c0,0-51.7-24.5-68.4-7.8c-16.7,16.7,7.8,68.4,7.8,68.4L380.8,331.4z"/>
</g>
<g id="Layer_3" display="none">
</g>
<g id="svg_demo">
</g>
</svg>
