<?xml version="1.0" encoding="utf-8"?>
<!-- Generator: Adobe Illustrator 20.1.0, SVG Export Plug-In . SVG Version: 6.00 Build 0)  -->
<svg version="1.1" xmlns="http://www.w3.org/2000/svg" xmlns:xlink="http://www.w3.org/1999/xlink" x="0px" y="0px" width="183.9px"
	 height="227.8px" viewBox="0 0 183.9 227.8" enable-background="new 0 0 183.9 227.8" xml:space="preserve">
<g id="Layer_1">
	
		<rect x="-6.8" y="40.2" transform="matrix(6.376515e-14 1 -1 6.376515e-14 208.1528 21.0706)" fill="#FFB900" stroke="#231F20" stroke-miterlimit="10" width="200.6" height="148.8"/>
	<g>
		<path fill="#00AEEF" d="M61.1,127.5V92.5h6.5v35.1H61.1z"/>
		<path fill="#00AEEF" d="M91.3,127.5l-9-19.7c-0.4-1-0.9-2.4-0.9-2.4h-0.1c0,0,0,1.5,0,2.6v19.4h-5.8V92.5h6.2l8.8,19.2
			c0.4,0.9,0.9,2.4,0.9,2.4h0.1c0-0.2,0-1.7,0-2.6v-19h5.8v35.1H91.3z"/>
		<path fill="#00AEEF" d="M119.9,127.5l-5.7-14.6H114c0,0-0.9,1.7-2.1,3.6v11h-6.5V92.5h6.5v13.2h0.1c0,0,0.7-1.5,1.2-2.3l6.4-10.9
			h7.5l-8.9,14.1l8.8,21H119.9z"/>
	</g>
	
		<rect x="-6.8" y="40.2" transform="matrix(6.376515e-14 1 -1 6.376515e-14 208.1528 21.0706)" fill="#FFB900" stroke="#231F20" stroke-width="5" stroke-miterlimit="10" width="200.6" height="148.8"/>
	<g>
		<path fill="#00AEEF" d="M33.7,129.1V94h9.7c8,0,11.3,6.4,11.3,12.5c0,6.1-3.7,12.8-12.2,12.8h-2.3v9.8H33.7z M42.7,113
			c3.7,0,5.6-3,5.6-6.4c0-3.6-1.9-6.4-5.6-6.4h-2.4V113H42.7z"/>
		<path fill="#00AEEF" d="M75.6,129.1v-13.2h-9v13.2h-6.5V94h6.5v15.6h9V94h6.5v35.1H75.6z"/>
		<path fill="#00AEEF" d="M88.1,111.5c0-9.6,2.9-18,12.1-18c9.2,0,12.1,8.4,12.1,18s-2.9,18-12.1,18C91,129.6,88.1,121.1,88.1,111.5
			z M105.7,111.5c0-7.3-1.6-11.8-5.6-11.8c-4,0-5.6,4.5-5.6,11.8c0,7.3,1.6,11.8,5.6,11.8S105.7,118.8,105.7,111.5z"/>
		<path fill="#00AEEF" d="M121.2,129.1v-28.8H115V94h18.9v6.3h-6.2v28.8H121.2z"/>
		<path fill="#00AEEF" d="M136.4,111.5c0-9.6,2.9-18,12.1-18c9.2,0,12.1,8.4,12.1,18s-2.9,18-12.1,18
			C139.3,129.6,136.4,121.1,136.4,111.5z M154,111.5c0-7.3-1.6-11.8-5.6-11.8c-4,0-5.6,4.5-5.6,11.8c0,7.3,1.6,11.8,5.6,11.8
			S154,118.8,154,111.5z"/>
	</g>
</g>
<g id="Layer_3" display="none">
</g>
<g id="svg_demo">
</g>
</svg>
