<?xml version="1.0" encoding="utf-8"?>
<!-- Generator: Adobe Illustrator 20.1.0, SVG Export Plug-In . SVG Version: 6.00 Build 0)  -->
<svg version="1.1" xmlns="http://www.w3.org/2000/svg" xmlns:xlink="http://www.w3.org/1999/xlink" x="0px" y="0px" width="496px"
	 height="334.2px" viewBox="0 0 496 334.2" enable-background="new 0 0 496 334.2" xml:space="preserve">
<g id="Layer_1">
	<g>
		<path d="M323.7,165.9c10.6,0,19.9-5.5,25.2-13.8c-3.5,2.8-8,4.5-12.8,4.5c-11.4,0-20.7-9.3-20.7-20.7s9.3-20.7,20.7-20.7
			c4.8,0,9.3,1.7,12.8,4.5c-5.3-8.3-14.6-13.8-25.2-13.8c-16.6,0-30,13.4-30,30S307.2,165.9,323.7,165.9z"/>
		<path d="M407.7,165.9c10.6,0,19.9-5.5,25.2-13.8c-3.5,2.8-8,4.5-12.8,4.5c-11.4,0-20.7-9.3-20.7-20.7s9.3-20.7,20.7-20.7
			c4.8,0,9.3,1.7,12.8,4.5c-5.3-8.3-14.6-13.8-25.2-13.8c-16.6,0-30,13.4-30,30S391.1,165.9,407.7,165.9z"/>
		<path d="M384.3,181.4l-5-8.6l-5-8.6c-3.1-5.5-11-5.5-14.2,0l-5,8.6l-5,8.6c-3.1,5.5,0.8,12.3,7.1,12.3h10h10
			C383.5,193.7,387.4,186.9,384.3,181.4z"/>
		<path d="M340.7,203.1c0-1.9-1.6-3.5-3.5-3.5h-55.5c-1.9,0-3.5,1.6-3.5,3.5s1.6,3.5,3.5,3.5h55.5
			C339.1,206.6,340.7,205.1,340.7,203.1z"/>
		<path d="M350.1,214l-50.9,22.1c-1.8,0.8-2.6,2.8-1.8,4.6c0.8,1.8,2.8,2.6,4.6,1.8l50.9-22.1c1.8-0.8,2.6-2.8,1.8-4.6
			C354,214.1,351.9,213.3,350.1,214z"/>
		<path d="M452.8,199.6h-55.5c-1.9,0-3.5,1.6-3.5,3.5s1.6,3.5,3.5,3.5h55.5c1.9,0,3.5-1.6,3.5-3.5S454.7,199.6,452.8,199.6z"/>
		<path d="M435.3,236.2L384.4,214c-1.8-0.8-3.8,0-4.6,1.8c-0.8,1.8,0,3.8,1.8,4.6l50.9,22.1c1.8,0.8,3.8,0,4.6-1.8
			C437.8,239,437,236.9,435.3,236.2z"/>
	</g>
	<path d="M229.7,119.8c1.2-1.4,2.1-3.2,2.6-5.2l4.3-16.2l4.3-16.2c2.7-10.2-6.6-19.6-16.9-16.9L208,69.7l-16.2,4.3
		c-3.4,0.9-6,2.9-7.8,5.5c-12-5.2-25.1-8-39-8c-12.8,0-24.9,2.4-36.1,6.8c-1.7-2-4-3.5-6.9-4.3l-16.2-4.3l-16.2-4.3
		C59.4,62.6,50,72,52.8,82.3l4.3,16.2l4.3,16.2c0.2,0.7,0.5,1.4,0.8,2.1c-9.9,15.3-15.6,33.6-15.6,53.2c0,54.4,44.1,98.4,98.4,98.4
		s98.4-44.1,98.4-98.4C243.4,151.6,238.4,134.5,229.7,119.8z M180,112.9c9.2,0,17.2,4.7,21.8,11.9c-3.1-2.4-6.9-3.9-11.1-3.9
		c-9.9,0-17.9,8-17.9,17.9c0,9.9,8,17.9,17.9,17.9c4.2,0,8-1.5,11.1-3.9c-4.6,7.2-12.7,11.9-21.8,11.9c-14.3,0-26-11.6-26-26
		S165.7,112.9,180,112.9z M129.2,124.8c-3.1-2.4-6.9-3.9-11.1-3.9c-9.9,0-17.9,8-17.9,17.9c0,9.9,8,17.9,17.9,17.9
		c4.2,0,8-1.5,11.1-3.9c-4.6,7.2-12.7,11.9-21.8,11.9c-14.3,0-26-11.6-26-26s11.6-26,26-26C116.5,112.9,124.5,117.6,129.2,124.8z
		 M70.9,200.1c-1.7,0-3-1.4-3-3c0-1.7,1.4-3,3-3H119c1.7,0,3,1.4,3,3c0,1.7-1.4,3-3,3H70.9z M132.6,212.1l-44.1,19.2
		c-1.5,0.7-3.3,0-4-1.6c-0.7-1.5,0-3.3,1.6-4l44.1-19.2c1.5-0.7,3.3,0,4,1.6C134.8,209.7,134.1,211.4,132.6,212.1z M145,188.9h-8.6
		c-5.5,0-8.9-5.9-6.1-10.6l4.3-7.5l4.3-7.5c2.7-4.7,9.5-4.7,12.3,0l4.3,7.5l4.3,7.5c2.7,4.7-0.7,10.6-6.1,10.6H145z M205.5,229.7
		c-0.7,1.5-2.5,2.2-4,1.6l-44.1-19.2c-1.5-0.7-2.2-2.5-1.6-4c0.7-1.5,2.5-2.2,4-1.6l44.1,19.2C205.4,226.4,206.1,228.2,205.5,229.7z
		 M219.1,200.1H171c-1.7,0-3-1.4-3-3c0-1.7,1.4-3,3-3h48.1c1.7,0,3,1.4,3,3C222.1,198.8,220.8,200.1,219.1,200.1z"/>
</g>
<g id="Layer_3" display="none">
</g>
<g id="svg_demo">
</g>
</svg>
