<?xml version="1.0" encoding="utf-8"?>
<!-- Generator: Adobe Illustrator 20.1.0, SVG Export Plug-In . SVG Version: 6.00 Build 0)  -->
<svg version="1.1" xmlns="http://www.w3.org/2000/svg" xmlns:xlink="http://www.w3.org/1999/xlink" x="0px" y="0px" width="434px"
	 height="317.4px" viewBox="0 0 434 317.4" enable-background="new 0 0 434 317.4" xml:space="preserve">
<pattern  x="-3083" y="-3918.6" width="28.8" height="28.8" patternUnits="userSpaceOnUse" id="_x31_0_dpi_70_x25_" viewBox="5 -33.8 28.8 28.8" overflow="visible">
	<g>
		<rect x="5" y="-33.8" fill="none" width="28.8" height="28.8"/>
		<g>
			<circle fill="#F7941D" cx="33.8" cy="-5" r="5"/>
			<circle fill="#F7941D" cx="19.4" cy="-5" r="5"/>
			<circle fill="#F7941D" cx="33.8" cy="-19.4" r="5"/>
			<circle fill="#F7941D" cx="19.4" cy="-19.4" r="5"/>
			<circle fill="#F7941D" cx="12.2" cy="-12.2" r="5"/>
			<circle fill="#F7941D" cx="26.6" cy="-12.2" r="5"/>
			<circle fill="#F7941D" cx="12.2" cy="-26.6" r="5"/>
			<circle fill="#F7941D" cx="26.6" cy="-26.6" r="5"/>
		</g>
		<g>
			<circle fill="#F7941D" cx="5" cy="-5" r="5"/>
			<circle fill="#F7941D" cx="5" cy="-19.4" r="5"/>
		</g>
		<g>
			<circle fill="#F7941D" cx="33.8" cy="-33.8" r="5"/>
			<circle fill="#F7941D" cx="19.4" cy="-33.8" r="5"/>
		</g>
		<g>
			<circle fill="#F7941D" cx="5" cy="-33.8" r="5"/>
		</g>
	</g>
</pattern>
<g id="Layer_1">
	
		<rect x="35.7" y="27.5" transform="matrix(-1 -1.224647e-16 1.224647e-16 -1 434 323.9174)" fill="#00AEEF" stroke="#231F20" stroke-width="5" stroke-miterlimit="10" width="362.6" height="269"/>
	<pattern  id="SVGID_1_" xlink:href="#_x31_0_dpi_70_x25_" patternTransform="matrix(1 0 0 1 171.2291 221.9059)">
	</pattern>
	<polygon fill="url(#SVGID_1_)" points="69.5,55.9 364.5,55.9 364.5,268 69.5,268 	"/>
	
		<ellipse fill="#FFB900" stroke="#231F20" stroke-width="4" stroke-linecap="round" stroke-linejoin="round" stroke-miterlimit="10" cx="121" cy="162" rx="29.2" ry="83.5"/>
</g>
<g id="Layer_3" display="none">
</g>
<g id="svg_demo">
</g>
</svg>
