<svg xmlns="http://www.w3.org/2000/svg" xmlns:xlink="http://www.w3.org/1999/xlink" width="907.04" height="403.43" viewBox="0 0 907.04 403.43"><defs><pattern id="BLUE" data-name="BLUE" width="28.8" height="28.8" patternTransform="translate(6.7 -107.28)" patternUnits="userSpaceOnUse" viewBox="0 0 28.8 28.8"><rect width="28.8" height="28.8" fill="none"/><circle cx="28.8" cy="28.8" r="2.88" fill="#00aeef"/><circle cx="14.4" cy="28.8" r="2.88" fill="#00aeef"/><circle cx="28.8" cy="14.4" r="2.88" fill="#00aeef"/><circle cx="14.4" cy="14.4" r="2.88" fill="#00aeef"/><circle cx="7.2" cy="21.6" r="2.88" fill="#00aeef"/><circle cx="21.6" cy="21.6" r="2.88" fill="#00aeef"/><circle cx="7.2" cy="7.2" r="2.88" fill="#00aeef"/><circle cx="21.6" cy="7.2" r="2.88" fill="#00aeef"/><circle cy="28.8" r="2.88" fill="#00aeef"/><circle cy="14.4" r="2.88" fill="#00aeef"/><circle cx="28.8" r="2.88" fill="#00aeef"/><circle cx="14.4" r="2.88" fill="#00aeef"/><circle r="2.88" fill="#00aeef"/></pattern><pattern id="_10_dpi_50_" data-name="10 dpi 50%" width="28.8" height="28.8" patternTransform="translate(0.43 -112.43)" patternUnits="userSpaceOnUse" viewBox="0 0 28.8 28.8"><rect width="28.8" height="28.8" fill="none"/><circle cx="28.8" cy="28.8" r="3.6" fill="#231f20"/><circle cx="14.4" cy="28.8" r="3.6" fill="#231f20"/><circle cx="28.8" cy="14.4" r="3.6" fill="#231f20"/><circle cx="14.4" cy="14.4" r="3.6" fill="#231f20"/><circle cx="7.2" cy="21.6" r="3.6" fill="#231f20"/><circle cx="21.6" cy="21.6" r="3.6" fill="#231f20"/><circle cx="7.2" cy="7.2" r="3.6" fill="#231f20"/><circle cx="21.6" cy="7.2" r="3.6" fill="#231f20"/><circle cy="28.8" r="3.6" fill="#231f20"/><circle cy="14.4" r="3.6" fill="#231f20"/><circle cx="28.8" r="3.6" fill="#231f20"/><circle cx="14.4" r="3.6" fill="#231f20"/><circle r="3.6" fill="#231f20"/></pattern><pattern id="BLUE-3" data-name="BLUE" width="28.8" height="28.8" patternTransform="translate(64.33 -354.98)" patternUnits="userSpaceOnUse" viewBox="0 0 28.8 28.8"><rect width="28.8" height="28.8" fill="none"/><circle cx="28.8" cy="28.8" r="2.88" fill="#00aeef"/><circle cx="14.4" cy="28.8" r="2.88" fill="#00aeef"/><circle cx="28.8" cy="14.4" r="2.88" fill="#00aeef"/><circle cx="14.4" cy="14.4" r="2.88" fill="#00aeef"/><circle cx="7.2" cy="21.6" r="2.88" fill="#00aeef"/><circle cx="21.6" cy="21.6" r="2.88" fill="#00aeef"/><circle cx="7.2" cy="7.2" r="2.88" fill="#00aeef"/><circle cx="21.6" cy="7.2" r="2.88" fill="#00aeef"/><circle cy="28.8" r="2.88" fill="#00aeef"/><circle cy="14.4" r="2.88" fill="#00aeef"/><circle cx="28.8" r="2.88" fill="#00aeef"/><circle cx="14.4" r="2.88" fill="#00aeef"/><circle r="2.88" fill="#00aeef"/></pattern></defs><title>Oil</title><g id="Layer_2" data-name="Layer 2"><g id="Layer_1-2" data-name="Layer 1"><rect x="10.7" y="5.41" width="896.33" height="320.29" rx="12" ry="12" fill="url(#BLUE)"/><rect width="896.33" height="320.29" rx="12" ry="12" fill="url(#_10_dpi_50_)"/><path d="M868.84,15.17H40a12,12,0,0,0-12,12V163.83a12,12,0,0,0,12,12h419v82.5a12,12,0,0,0,12,12H504L103.72,402,814,270.33h54.82a12,12,0,0,0,12-12V27.17A12,12,0,0,0,868.84,15.17Z" fill="#fff" stroke="#000" stroke-miterlimit="10" stroke-width="3"/><rect x="36.22" y="22.65" width="411.94" height="60.63" rx="12" ry="12" fill="url(#BLUE-3)"/><path d="M682.94,64.16V50c-3.63-1.19-10.62-1.6-12.7-1.7v0h-.6v0c-2.08.1-9.07.51-12.7,1.7V64.16l3.22.37h19.56Z" fill="#ffb900" stroke="#231f20" stroke-miterlimit="10"/><path d="M703.41,107.27V82.69c0-8.8-23.69-15.45-23.69-15.45v-2.7H660.16v2.7s-23.69,6.65-23.69,15.45v24.58S643,110.91,643,115v12.29s-6.57.66-6.57,11.17v89s4.38,3.85,33.17,3.9h.6c28.79-.05,33.17-3.9,33.17-3.9v-89c0-10.52-6.58-11.17-6.58-11.17V115C696.84,110.91,703.41,107.27,703.41,107.27Z" fill="#00aeef" stroke="#231f20" stroke-miterlimit="10"/><text transform="translate(646.08 174)" font-size="31.47" fill="#ffb900" font-family="MissionGothic-Bold, Mission Gothic" font-weight="700">VEG</text><path d="M682.94,64.16V50c-3.63-1.19-10.62-1.6-12.7-1.7v0h-.6v0c-2.08.1-9.07.51-12.7,1.7V64.16l3.22.37h19.56Z" fill="#ffb900" stroke="#231f20" stroke-miterlimit="10" stroke-width="5"/><path d="M703.41,107.27V82.69c0-8.8-23.69-15.45-23.69-15.45v-2.7H660.16v2.7s-23.69,6.65-23.69,15.45v24.58S643,110.91,643,115v12.29s-6.57.66-6.57,11.17v89s4.38,3.85,33.17,3.9h.6c28.79-.05,33.17-3.9,33.17-3.9v-89c0-10.52-6.58-11.17-6.58-11.17V115C696.84,110.91,703.41,107.27,703.41,107.27Z" fill="#00aeef" stroke="#231f20" stroke-miterlimit="10" stroke-width="5"/><rect x="46.68" y="33.97" width="327.81" height="38" rx="12" ry="12" fill="#f9f9f9"/></g></g></svg>