<svg xmlns="http://www.w3.org/2000/svg" xmlns:xlink="http://www.w3.org/1999/xlink" width="907.04" height="403.43" viewBox="0 0 907.04 403.43"><defs><style>.cls-1{fill:none;}.cls-2{fill:#231f20;}.cls-11,.cls-3,.cls-9{fill:#00aeef;}.cls-4{fill:url(#BLUE);}.cls-5{fill:url(#_10_dpi_50_);}.cls-6{fill:#fff;stroke:#000;stroke-width:3px;}.cls-10,.cls-11,.cls-6,.cls-8,.cls-9{stroke-miterlimit:10;}.cls-7{fill:url(#BLUE-3);}.cls-10,.cls-12,.cls-8{fill:#ffb900;}.cls-10,.cls-11,.cls-8,.cls-9{stroke:#231f20;}.cls-10,.cls-11{stroke-width:5px;}.cls-13{fill:#f9f9f9;}</style><pattern id="BLUE" data-name="BLUE" width="28.8" height="28.8" patternTransform="translate(6.7 -107.28)" patternUnits="userSpaceOnUse" viewBox="0 0 28.8 28.8"><rect class="cls-1" width="28.8" height="28.8"/><circle class="cls-3" cx="28.8" cy="28.8" r="2.88"/><circle class="cls-3" cx="14.4" cy="28.8" r="2.88"/><circle class="cls-3" cx="28.8" cy="14.4" r="2.88"/><circle class="cls-3" cx="14.4" cy="14.4" r="2.88"/><circle class="cls-3" cx="7.2" cy="21.6" r="2.88"/><circle class="cls-3" cx="21.6" cy="21.6" r="2.88"/><circle class="cls-3" cx="7.2" cy="7.2" r="2.88"/><circle class="cls-3" cx="21.6" cy="7.2" r="2.88"/><circle class="cls-3" cy="28.8" r="2.88"/><circle class="cls-3" cy="14.4" r="2.88"/><circle class="cls-3" cx="28.8" r="2.88"/><circle class="cls-3" cx="14.4" r="2.88"/><circle class="cls-3" r="2.88"/></pattern><pattern id="_10_dpi_50_" data-name="10 dpi 50%" width="28.8" height="28.8" patternTransform="translate(0.43 -112.43)" patternUnits="userSpaceOnUse" viewBox="0 0 28.8 28.8"><rect class="cls-1" width="28.8" height="28.8"/><circle class="cls-2" cx="28.8" cy="28.8" r="3.6"/><circle class="cls-2" cx="14.4" cy="28.8" r="3.6"/><circle class="cls-2" cx="28.8" cy="14.4" r="3.6"/><circle class="cls-2" cx="14.4" cy="14.4" r="3.6"/><circle class="cls-2" cx="7.2" cy="21.6" r="3.6"/><circle class="cls-2" cx="21.6" cy="21.6" r="3.6"/><circle class="cls-2" cx="7.2" cy="7.2" r="3.6"/><circle class="cls-2" cx="21.6" cy="7.2" r="3.6"/><circle class="cls-2" cy="28.8" r="3.6"/><circle class="cls-2" cy="14.4" r="3.6"/><circle class="cls-2" cx="28.8" r="3.6"/><circle class="cls-2" cx="14.4" r="3.6"/><circle class="cls-2" r="3.6"/></pattern><pattern id="BLUE-3" data-name="BLUE" width="28.8" height="28.8" patternTransform="translate(64.33 -354.98)" patternUnits="userSpaceOnUse" viewBox="0 0 28.8 28.8"><rect class="cls-1" width="28.8" height="28.8"/><circle class="cls-3" cx="28.8" cy="28.8" r="2.88"/><circle class="cls-3" cx="14.4" cy="28.8" r="2.88"/><circle class="cls-3" cx="28.8" cy="14.4" r="2.88"/><circle class="cls-3" cx="14.4" cy="14.4" r="2.88"/><circle class="cls-3" cx="7.2" cy="21.6" r="2.88"/><circle class="cls-3" cx="21.6" cy="21.6" r="2.88"/><circle class="cls-3" cx="7.2" cy="7.2" r="2.88"/><circle class="cls-3" cx="21.6" cy="7.2" r="2.88"/><circle class="cls-3" cy="28.8" r="2.88"/><circle class="cls-3" cy="14.4" r="2.88"/><circle class="cls-3" cx="28.8" r="2.88"/><circle class="cls-3" cx="14.4" r="2.88"/><circle class="cls-3" r="2.88"/></pattern></defs><title>Oil2</title><g id="Layer_2" data-name="Layer 2"><g id="Layer_1-2" data-name="Layer 1"><rect class="cls-4" x="10.7" y="5.41" width="896.33" height="320.29" rx="12" ry="12"/><rect class="cls-5" width="896.33" height="320.29" rx="12" ry="12"/><path class="cls-6" d="M868.84,15.17H40a12,12,0,0,0-12,12V163.83a12,12,0,0,0,12,12h419v82.5a12,12,0,0,0,12,12H504L103.72,402,814,270.33h54.82a12,12,0,0,0,12-12V27.17A12,12,0,0,0,868.84,15.17Z"/><rect class="cls-7" x="36.22" y="22.65" width="411.94" height="60.63" rx="12" ry="12"/><path class="cls-8" d="M682.94,64.16V50c-3.63-1.19-10.62-1.6-12.7-1.7v0h-.6v0c-2.08.1-9.07.51-12.7,1.7V64.16l3.22.37h19.56Z"/><path class="cls-9" d="M703.41,107.27V82.69c0-8.8-23.69-15.45-23.69-15.45v-2.7H660.16v2.7s-23.69,6.65-23.69,15.45v24.58S643,110.91,643,115v12.29s-6.57.66-6.57,11.17v89s4.38,3.85,33.17,3.9h.6c28.79-.05,33.17-3.9,33.17-3.9v-89c0-10.52-6.58-11.17-6.58-11.17V115C696.84,110.91,703.41,107.27,703.41,107.27Z"/><path class="cls-10" d="M682.94,64.16V50c-3.63-1.19-10.62-1.6-12.7-1.7v0h-.6v0c-2.08.1-9.07.51-12.7,1.7V64.16l3.22.37h19.56Z"/><path class="cls-11" d="M703.41,107.27V82.69c0-8.8-23.69-15.45-23.69-15.45v-2.7H660.16v2.7s-23.69,6.65-23.69,15.45v24.58S643,110.91,643,115v12.29s-6.57.66-6.57,11.17v89s4.38,3.85,33.17,3.9h.6c28.79-.05,33.17-3.9,33.17-3.9v-89c0-10.52-6.58-11.17-6.58-11.17V115C696.84,110.91,703.41,107.27,703.41,107.27Z"/><path class="cls-12" d="M656.18,174h-4.66l-5.07-22h4.28l2.8,14c.16.82.28,2,.28,2h.06s.13-1.13.28-2l2.77-14h4.31Z"/><path class="cls-12" d="M664.14,174V152h11.71v3.93h-7.61v5.63h6.42v3.93h-6.42v4.59h7.61V174Z"/><path class="cls-12" d="M694.41,163.28c0,6.36-2,11-7.33,11-6.07,0-7.74-5.6-7.74-11.33s1.67-11.33,7.74-11.33a6.74,6.74,0,0,1,6.7,4.75l-3.56,2.2c-.53-1.83-1.48-3-3.15-3-2.8,0-3.65,3.43-3.65,7.39s.85,7.39,3.65,7.39c2.42,0,3-2.52,3-4.53h-2.58v-3.93h7Z"/><rect class="cls-13" x="46.68" y="33.97" width="327.81" height="38" rx="12" ry="12"/></g></g></svg>