<svg xmlns="http://www.w3.org/2000/svg" xmlns:xlink="http://www.w3.org/1999/xlink" width="907.04" height="405.79" viewBox="0 0 907.04 405.79"><defs><style>.cls-1{fill:none;}.cls-2{fill:#231f20;}.cls-3{fill:#00aeef;}.cls-4{fill:url(#BLUE);}.cls-5{fill:url(#_10_dpi_50_);}.cls-6{fill:#fff;stroke:#000;stroke-width:3px;}.cls-6,.cls-8,.cls-9{stroke-miterlimit:10;}.cls-7{fill:url(#BLUE-3);}.cls-8,.cls-9{fill:#ffb900;stroke:#231f20;}.cls-9{stroke-width:5px;}.cls-10{fill:#f9f9f9;}</style><pattern id="BLUE" data-name="BLUE" width="28.8" height="28.8" patternTransform="translate(37.32 -107.28)" patternUnits="userSpaceOnUse" viewBox="0 0 28.8 28.8"><rect class="cls-1" width="28.8" height="28.8"/><circle class="cls-3" cx="28.8" cy="28.8" r="2.88"/><circle class="cls-3" cx="14.4" cy="28.8" r="2.88"/><circle class="cls-3" cx="28.8" cy="14.4" r="2.88"/><circle class="cls-3" cx="14.4" cy="14.4" r="2.88"/><circle class="cls-3" cx="7.2" cy="21.6" r="2.88"/><circle class="cls-3" cx="21.6" cy="21.6" r="2.88"/><circle class="cls-3" cx="7.2" cy="7.2" r="2.88"/><circle class="cls-3" cx="21.6" cy="7.2" r="2.88"/><circle class="cls-3" cy="28.8" r="2.88"/><circle class="cls-3" cy="14.4" r="2.88"/><circle class="cls-3" cx="28.8" r="2.88"/><circle class="cls-3" cx="14.4" r="2.88"/><circle class="cls-3" r="2.88"/></pattern><pattern id="_10_dpi_50_" data-name="10 dpi 50%" width="28.8" height="28.8" patternTransform="translate(31.05 -112.43)" patternUnits="userSpaceOnUse" viewBox="0 0 28.8 28.8"><rect class="cls-1" width="28.8" height="28.8"/><circle class="cls-2" cx="28.8" cy="28.8" r="3.6"/><circle class="cls-2" cx="14.4" cy="28.8" r="3.6"/><circle class="cls-2" cx="28.8" cy="14.4" r="3.6"/><circle class="cls-2" cx="14.4" cy="14.4" r="3.6"/><circle class="cls-2" cx="7.2" cy="21.6" r="3.6"/><circle class="cls-2" cx="21.6" cy="21.6" r="3.6"/><circle class="cls-2" cx="7.2" cy="7.2" r="3.6"/><circle class="cls-2" cx="21.6" cy="7.2" r="3.6"/><circle class="cls-2" cy="28.8" r="3.6"/><circle class="cls-2" cy="14.4" r="3.6"/><circle class="cls-2" cx="28.8" r="3.6"/><circle class="cls-2" cx="14.4" r="3.6"/><circle class="cls-2" r="3.6"/></pattern><pattern id="BLUE-3" data-name="BLUE" width="28.8" height="28.8" patternTransform="translate(94.95 -354.98)" patternUnits="userSpaceOnUse" viewBox="0 0 28.8 28.8"><rect class="cls-1" width="28.8" height="28.8"/><circle class="cls-3" cx="28.8" cy="28.8" r="2.88"/><circle class="cls-3" cx="14.4" cy="28.8" r="2.88"/><circle class="cls-3" cx="28.8" cy="14.4" r="2.88"/><circle class="cls-3" cx="14.4" cy="14.4" r="2.88"/><circle class="cls-3" cx="7.2" cy="21.6" r="2.88"/><circle class="cls-3" cx="21.6" cy="21.6" r="2.88"/><circle class="cls-3" cx="7.2" cy="7.2" r="2.88"/><circle class="cls-3" cx="21.6" cy="7.2" r="2.88"/><circle class="cls-3" cy="28.8" r="2.88"/><circle class="cls-3" cy="14.4" r="2.88"/><circle class="cls-3" cx="28.8" r="2.88"/><circle class="cls-3" cx="14.4" r="2.88"/><circle class="cls-3" r="2.88"/></pattern></defs><title>Photo2</title><g id="Layer_2" data-name="Layer 2"><g id="Layer_1-2" data-name="Layer 1"><rect class="cls-4" x="10.7" y="5.41" width="896.33" height="320.29" rx="12" ry="12"/><rect class="cls-5" width="896.33" height="320.29" rx="12" ry="12"/><path class="cls-6" d="M868.84,15.17H40a12,12,0,0,0-12,12V163.83a12,12,0,0,0,12,12h419v82.5a12,12,0,0,0,12,12H504L289.83,402,814,270.33h54.82a12,12,0,0,0,12-12V27.17A12,12,0,0,0,868.84,15.17Z"/><rect class="cls-7" x="36.22" y="22.65" width="411.94" height="60.63" rx="12" ry="12"/><rect class="cls-8" x="568.15" y="80.38" width="186.73" height="138.52" transform="translate(811.15 -511.87) rotate(90)"/><rect class="cls-9" x="568.15" y="80.38" width="186.73" height="138.52" transform="translate(811.15 -511.87) rotate(90)"/><path class="cls-3" d="M617.08,160.14V134.87h7c5.74,0,8.12,4.62,8.12,9s-2.67,9.21-8.81,9.21h-1.62v7Zm6.46-11.55c2.67,0,4-2.17,4-4.62s-1.37-4.62-4-4.62h-1.73v9.24Z"/><path class="cls-3" d="M647.26,160.14v-9.5h-6.5v9.5h-4.69V134.87h4.69v11.26h6.5V134.87H652v25.27Z"/><path class="cls-3" d="M656.28,147.51c0-6.93,2.09-13,8.7-13s8.7,6.07,8.7,13-2.09,13-8.7,13S656.28,154.44,656.28,147.51Zm12.71,0c0-5.27-1.12-8.48-4-8.48s-4,3.21-4,8.48,1.16,8.48,4,8.48S669,152.78,669,147.51Z"/><path class="cls-3" d="M680.11,160.14V139.38h-4.44v-4.51h13.61v4.51h-4.44v20.76Z"/><path class="cls-3" d="M691.08,147.51c0-6.93,2.09-13,8.7-13s8.7,6.07,8.7,13-2.09,13-8.7,13S691.08,154.44,691.08,147.51Zm12.71,0c0-5.27-1.12-8.48-4-8.48s-4,3.21-4,8.48,1.16,8.48,4,8.48S703.79,152.78,703.79,147.51Z"/><rect class="cls-10" x="46.68" y="33.97" width="327.81" height="38" rx="12" ry="12"/></g></g></svg>