<?xml version="1.0" encoding="utf-8"?>
<!-- Generator: Adobe Illustrator 20.1.0, SVG Export Plug-In . SVG Version: 6.00 Build 0)  -->
<svg version="1.1" xmlns="http://www.w3.org/2000/svg" xmlns:xlink="http://www.w3.org/1999/xlink" x="0px" y="0px"
	 viewBox="0 0 109.1 127.8" enable-background="new 0 0 109.1 127.8" xml:space="preserve">
<g id="Layer_1">
	
		<rect x="-0.4" y="21.5" transform="matrix(-1.836970e-16 1 -1 -1.836970e-16 119.0412 7.3891)" fill="#FFB900" stroke="#231F20" stroke-miterlimit="10" width="112.5" height="83.4"/>
	<g>
		<path fill="#00AEEF" d="M37.7,70.5V50.8h3.6v19.6H37.7z"/>
		<path fill="#00AEEF" d="M54.6,70.5l-5-11c-0.2-0.5-0.5-1.3-0.5-1.3h-0.1c0,0,0,0.8,0,1.5v10.9h-3.3V50.8h3.5l4.9,10.7
			c0.2,0.5,0.5,1.3,0.5,1.3h0.1c0-0.1,0-1,0-1.4V50.8H58v19.6H54.6z"/>
		<path fill="#00AEEF" d="M70.7,70.5l-3.2-8.2h-0.1c0,0-0.5,1-1.2,2v6.2h-3.6V50.8h3.6v7.4h0.1c0,0,0.4-0.8,0.6-1.3l3.6-6.1h4.2
			l-5,7.9l4.9,11.8H70.7z"/>
	</g>
	
		<rect x="-0.4" y="21.5" transform="matrix(-1.836970e-16 1 -1 -1.836970e-16 119.0412 7.3891)" fill="#FFB900" stroke="#231F20" stroke-width="5" stroke-miterlimit="10" width="112.5" height="83.4"/>
	<g>
		<path fill="#00AEEF" d="M37.7,70.5V50.8h3.6v19.6H37.7z"/>
		<path fill="#00AEEF" d="M54.6,70.5l-5-11c-0.2-0.5-0.5-1.3-0.5-1.3h-0.1c0,0,0,0.8,0,1.5v10.9h-3.3V50.8h3.5l4.9,10.7
			c0.2,0.5,0.5,1.3,0.5,1.3h0.1c0-0.1,0-1,0-1.4V50.8H58v19.6H54.6z"/>
		<path fill="#00AEEF" d="M70.7,70.5l-3.2-8.2h-0.1c0,0-0.5,1-1.2,2l0,6.2h-3.6V50.8h3.6v7.4h0.1c0,0,0.4-0.8,0.6-1.3l3.6-6.1h4.2
			l-5,7.9l4.9,11.8H70.7z"/>
	</g>
</g>
<g id="Layer_3">
</g>
<g id="svg_demo">
</g>
</svg>
