<?xml version="1.0" encoding="utf-8"?>
<!-- Generator: Adobe Illustrator 20.1.0, SVG Export Plug-In . SVG Version: 6.00 Build 0)  -->
<svg version="1.1" xmlns="http://www.w3.org/2000/svg" xmlns:xlink="http://www.w3.org/1999/xlink" x="0px" y="0px"
	 viewBox="0 0 124 125.4" enable-background="new 0 0 124 125.4" xml:space="preserve">
<g id="Layer_1">
	<path fill="#00AEEF" d="M107,39.4c0.6-0.8,1.1-1.7,1.4-2.8l2.3-8.6l2.3-8.6c1.5-5.4-3.5-10.4-9-9l-8.6,2.3l-8.6,2.3
		c-1.8,0.5-3.2,1.6-4.1,2.9c-6.4-2.7-13.4-4.3-20.7-4.3c-6.8,0-13.2,1.3-19.2,3.6c-0.9-1.1-2.1-1.9-3.7-2.3l-8.6-2.3l-8.6-2.3
		c-5.4-1.5-10.4,3.5-9,9l2.3,8.6l2.3,8.6c0.1,0.4,0.2,0.8,0.4,1.1C12.7,45.9,9.7,55.6,9.7,66c0,28.9,23.4,52.3,52.3,52.3
		s52.3-23.4,52.3-52.3C114.3,56.3,111.6,47.2,107,39.4z M80.6,35.7c4.9,0,9.1,2.5,11.6,6.3c-1.6-1.3-3.7-2.1-5.9-2.1
		c-5.3,0-9.5,4.3-9.5,9.5c0,5.3,4.3,9.5,9.5,9.5c2.2,0,4.3-0.8,5.9-2.1c-2.5,3.8-6.7,6.3-11.6,6.3c-7.6,0-13.8-6.2-13.8-13.8
		S73,35.7,80.6,35.7z M53.6,42C52,40.7,49.9,40,47.7,40c-5.3,0-9.5,4.3-9.5,9.5c0,5.3,4.3,9.5,9.5,9.5c2.2,0,4.3-0.8,5.9-2.1
		c-2.5,3.8-6.7,6.3-11.6,6.3c-7.6,0-13.8-6.2-13.8-13.8S34.4,35.7,42,35.7C46.8,35.7,51.1,38.2,53.6,42z M22.6,82.1
		c-0.9,0-1.6-0.7-1.6-1.6c0-0.9,0.7-1.6,1.6-1.6h25.5c0.9,0,1.6,0.7,1.6,1.6c0,0.9-0.7,1.6-1.6,1.6H22.6z M55.4,88.4L32,98.6
		c-0.8,0.4-1.8,0-2.1-0.8c-0.4-0.8,0-1.8,0.8-2.1l23.4-10.2c0.8-0.4,1.8,0,2.1,0.8C56.6,87.1,56.2,88.1,55.4,88.4z M62,76.1h-4.6
		c-2.9,0-4.7-3.1-3.3-5.6l2.3-4l2.3-4c1.4-2.5,5.1-2.5,6.5,0l2.3,4l2.3,4c1.4,2.5-0.4,5.6-3.3,5.6H62z M94.1,97.8
		c-0.4,0.8-1.3,1.2-2.1,0.8L68.6,88.4c-0.8-0.4-1.2-1.3-0.8-2.1c0.4-0.8,1.3-1.2,2.1-0.8l23.4,10.2C94.1,96,94.5,97,94.1,97.8z
		 M101.4,82.1H75.8c-0.9,0-1.6-0.7-1.6-1.6c0-0.9,0.7-1.6,1.6-1.6h25.5c0.9,0,1.6,0.7,1.6,1.6C103,81.3,102.3,82.1,101.4,82.1z"/>
</g>
<g id="Layer_3">
</g>
<g id="svg_demo">
</g>
</svg>
