<?xml version="1.0" encoding="utf-8"?>
<!-- Generator: Adobe Illustrator 20.1.0, SVG Export Plug-In . SVG Version: 6.00 Build 0)  -->
<svg version="1.1" xmlns="http://www.w3.org/2000/svg" xmlns:xlink="http://www.w3.org/1999/xlink" x="0px" y="0px"
	 viewBox="0 0 294 108.2" enable-background="new 0 0 294 108.2" xml:space="preserve">
<g id="Layer_1">
	<path fill="#FFB900" stroke="#231F20" stroke-miterlimit="10" d="M252.7,94.1l-208,0c-4.3,0-7.9-3.5-7.9-7.9V76
		c0-4.3,3.5-7.9,7.9-7.9h208c4.3,0,7.9,3.5,7.9,7.9v10.2C260.6,90.6,257.1,94.1,252.7,94.1z"/>
	<path fill="#00AEEF" stroke="#231F20" stroke-width="5" stroke-miterlimit="10" d="M263.2,77.8h-229c-10.4,0-18.8-8.4-18.8-18.8
		V29.2c0-10.4,8.4-18.8,18.8-18.8h229c10.4,0,18.8,8.4,18.8,18.8V59C282.1,69.4,273.6,77.8,263.2,77.8z"/>
	<path fill="#FFB900" stroke="#231F20" stroke-width="4" stroke-miterlimit="10" d="M252.7,94.1l-208,0c-4.3,0-7.9-3.5-7.9-7.9V76
		c0-4.3,3.5-7.9,7.9-7.9h208c4.3,0,7.9,3.5,7.9,7.9v10.2C260.6,90.6,257.1,94.1,252.7,94.1z"/>
	<path fill="#00AEEF" stroke="#231F20" stroke-width="5" stroke-miterlimit="10" d="M263.2,77.8h-229c-10.4,0-18.8-8.4-18.8-18.8
		V29.2c0-10.4,8.4-18.8,18.8-18.8h229c10.4,0,18.8,8.4,18.8,18.8V59C282.1,69.4,273.6,77.8,263.2,77.8z"/>
</g>
<g id="Layer_3">
</g>
<g id="svg_demo">
</g>
</svg>
