<?xml version="1.0" encoding="utf-8"?>
<!-- Generator: Adobe Illustrator 20.1.0, SVG Export Plug-In . SVG Version: 6.00 Build 0)  -->
<svg version="1.1" xmlns="http://www.w3.org/2000/svg" xmlns:xlink="http://www.w3.org/1999/xlink" x="0px" y="0px"
	 viewBox="0 0 348 466.5" enable-background="new 0 0 348 466.5" xml:space="preserve">
<pattern  x="-7993" y="-1371.7" width="28.8" height="28.8" patternUnits="userSpaceOnUse" id="_x31_0_dpi_70_x25_" viewBox="5 -33.8 28.8 28.8" overflow="visible">
	<g>
		<rect x="5" y="-33.8" fill="none" width="28.8" height="28.8"/>
		<g>
			<circle fill="#F7941D" cx="33.8" cy="-5" r="5"/>
			<circle fill="#F7941D" cx="19.4" cy="-5" r="5"/>
			<circle fill="#F7941D" cx="33.8" cy="-19.4" r="5"/>
			<circle fill="#F7941D" cx="19.4" cy="-19.4" r="5"/>
			<circle fill="#F7941D" cx="12.2" cy="-12.2" r="5"/>
			<circle fill="#F7941D" cx="26.6" cy="-12.2" r="5"/>
			<circle fill="#F7941D" cx="12.2" cy="-26.6" r="5"/>
			<circle fill="#F7941D" cx="26.6" cy="-26.6" r="5"/>
		</g>
		<g>
			<circle fill="#F7941D" cx="5" cy="-5" r="5"/>
			<circle fill="#F7941D" cx="5" cy="-19.4" r="5"/>
		</g>
		<g>
			<circle fill="#F7941D" cx="33.8" cy="-33.8" r="5"/>
			<circle fill="#F7941D" cx="19.4" cy="-33.8" r="5"/>
		</g>
		<g>
			<circle fill="#F7941D" cx="5" cy="-33.8" r="5"/>
		</g>
	</g>
</pattern>
<g id="Layer_1">
	
		<rect x="-43" y="76.5" transform="matrix(6.123234e-17 -1 1 6.123234e-17 -64.2772 405.8238)" fill="#00AEEF" stroke="#231F20" stroke-width="5" stroke-miterlimit="10" width="427.6" height="317.2"/>
	
		<rect x="-3.1" y="110" transform="matrix(6.123234e-17 -1 1 6.123234e-17 -64.2772 405.8238)" fill="#FFB900" stroke="#231F20" stroke-miterlimit="10" width="347.8" height="250.2"/>
	
		<rect x="-43" y="76.5" transform="matrix(6.123234e-17 -1 1 6.123234e-17 -64.2772 405.8238)" fill="#FFB900" stroke="#231F20" stroke-width="4" stroke-linecap="round" stroke-linejoin="round" stroke-miterlimit="10" width="427.6" height="317.2"/>
	
		<rect x="-3.1" y="110" transform="matrix(6.123234e-17 -1 1 6.123234e-17 -64.2772 405.8238)" fill="#FFB900" stroke="#231F20" stroke-miterlimit="10" width="347.8" height="250.2"/>
	<pattern  id="SVGID_1_" xlink:href="#_x31_0_dpi_70_x25_" patternTransform="matrix(2.083 0 0 2.083 -1650.163 6363.498)">
	</pattern>
	<polygon fill="url(#SVGID_1_)" points="295.9,61.1 295.9,409 45.7,409 45.7,61.1 	"/>
	<path fill="#FFFFFF" d="M215.8,182.2c0.6-0.8,1.1-1.7,1.4-2.8l2.3-8.6l2.3-8.6c1.5-5.4-3.5-10.4-9-9l-8.6,2.3l-8.6,2.3
		c-1.8,0.5-3.2,1.6-4.1,2.9c-6.4-2.7-13.4-4.3-20.7-4.3c-6.8,0-13.2,1.3-19.2,3.6c-0.9-1.1-2.1-1.9-3.7-2.3l-8.6-2.3l-8.6-2.3
		c-5.4-1.5-10.4,3.5-9,9l2.3,8.6l2.3,8.6c0.1,0.4,0.2,0.8,0.4,1.1c-5.2,8.2-8.3,17.9-8.3,28.3c0,28.9,23.4,52.3,52.3,52.3
		s52.3-23.4,52.3-52.3C223.1,199.1,220.4,190,215.8,182.2z M189.4,178.5c4.9,0,9.1,2.5,11.6,6.3c-1.6-1.3-3.7-2.1-5.9-2.1
		c-5.3,0-9.5,4.3-9.5,9.5c0,5.3,4.3,9.5,9.5,9.5c2.2,0,4.3-0.8,5.9-2.1c-2.5,3.8-6.7,6.3-11.6,6.3c-7.6,0-13.8-6.2-13.8-13.8
		S181.7,178.5,189.4,178.5z M162.4,184.8c-1.6-1.3-3.7-2.1-5.9-2.1c-5.3,0-9.5,4.3-9.5,9.5c0,5.3,4.3,9.5,9.5,9.5
		c2.2,0,4.3-0.8,5.9-2.1c-2.5,3.8-6.7,6.3-11.6,6.3c-7.6,0-13.8-6.2-13.8-13.8s6.2-13.8,13.8-13.8
		C155.6,178.5,159.9,181,162.4,184.8z M131.4,224.8c-0.9,0-1.6-0.7-1.6-1.6c0-0.9,0.7-1.6,1.6-1.6h25.5c0.9,0,1.6,0.7,1.6,1.6
		c0,0.9-0.7,1.6-1.6,1.6H131.4z M164.2,231.2l-23.4,10.2c-0.8,0.4-1.8,0-2.1-0.8c-0.4-0.8,0-1.8,0.8-2.1l23.4-10.2
		c0.8-0.4,1.8,0,2.1,0.8C165.4,229.9,165,230.9,164.2,231.2z M170.8,218.9h-4.6c-2.9,0-4.7-3.1-3.3-5.6l2.3-4l2.3-4
		c1.4-2.5,5.1-2.5,6.5,0l2.3,4l2.3,4c1.4,2.5-0.4,5.6-3.3,5.6H170.8z M202.9,240.6c-0.4,0.8-1.3,1.2-2.1,0.8l-23.4-10.2
		c-0.8-0.4-1.2-1.3-0.8-2.1c0.4-0.8,1.3-1.2,2.1-0.8l23.4,10.2C202.9,238.8,203.3,239.7,202.9,240.6z M210.1,224.8h-25.5
		c-0.9,0-1.6-0.7-1.6-1.6c0-0.9,0.7-1.6,1.6-1.6h25.5c0.9,0,1.6,0.7,1.6,1.6C211.7,224.1,211,224.8,210.1,224.8z"/>
	<g>
		<path fill="#FFFFFF" d="M150.8,323.8c4.9,0,9.1-2.5,11.6-6.3c-1.6,1.3-3.7,2.1-5.9,2.1c-5.3,0-9.5-4.3-9.5-9.5
			c0-5.3,4.3-9.5,9.5-9.5c2.2,0,4.3,0.8,5.9,2.1c-2.5-3.8-6.7-6.3-11.6-6.3c-7.6,0-13.8,6.2-13.8,13.8S143.1,323.8,150.8,323.8z"/>
		<path fill="#FFFFFF" d="M189.4,323.8c4.9,0,9.1-2.5,11.6-6.3c-1.6,1.3-3.7,2.1-5.9,2.1c-5.3,0-9.5-4.3-9.5-9.5
			c0-5.3,4.3-9.5,9.5-9.5c2.2,0,4.3,0.8,5.9,2.1c-2.5-3.8-6.7-6.3-11.6-6.3c-7.6,0-13.8,6.2-13.8,13.8S181.7,323.8,189.4,323.8z"/>
		<path fill="#FFFFFF" d="M178.6,331l-2.3-4l-2.3-4c-1.4-2.5-5.1-2.5-6.5,0l-2.3,4l-2.3,4c-1.4,2.5,0.4,5.6,3.3,5.6h4.6h4.6
			C178.3,336.6,180.1,333.5,178.6,331z"/>
		<path fill="#FFFFFF" d="M158.6,341c0-0.9-0.7-1.6-1.6-1.6h-25.5c-0.9,0-1.6,0.7-1.6,1.6s0.7,1.6,1.6,1.6h25.5
			C157.8,342.6,158.6,341.9,158.6,341z"/>
		<path fill="#FFFFFF" d="M162.9,346l-23.4,10.2c-0.8,0.4-1.2,1.3-0.8,2.1c0.4,0.8,1.3,1.2,2.1,0.8l23.4-10.2
			c0.8-0.4,1.2-1.3,0.8-2.1C164.7,346,163.7,345.6,162.9,346z"/>
		<path fill="#FFFFFF" d="M210.1,339.4h-25.5c-0.9,0-1.6,0.7-1.6,1.6s0.7,1.6,1.6,1.6h25.5c0.9,0,1.6-0.7,1.6-1.6
			S211,339.4,210.1,339.4z"/>
		<path fill="#FFFFFF" d="M202.1,356.2L178.7,346c-0.8-0.4-1.8,0-2.1,0.8c-0.4,0.8,0,1.8,0.8,2.1l23.4,10.2c0.8,0.4,1.8,0,2.1-0.8
			C203.3,357.5,202.9,356.5,202.1,356.2z"/>
	</g>
</g>
<g id="Layer_3">
</g>
<g id="svg_demo">
</g>
</svg>
