<svg xmlns="http://www.w3.org/2000/svg" xmlns:xlink="http://www.w3.org/1999/xlink" viewBox="0 0 907.41 403.44"><defs><style>.cls-1{fill:none;}.cls-2{fill:#231f20;}.cls-3{fill:#f7941d;}.cls-4,.cls-8{fill:#00aeef;}.cls-5{fill:url(#BLUE);}.cls-6{fill:url(#_10_dpi_50_);}.cls-7{fill:#fff;stroke:#000;stroke-miterlimit:10;stroke-width:3px;}.cls-10,.cls-8{stroke:#231f20;stroke-linecap:round;stroke-linejoin:round;stroke-width:5px;}.cls-9{fill:url(#_10_dpi_70_);}.cls-10{fill:#ffb900;}.cls-11{fill:url(#BLUE-3);}.cls-12{fill:#f9f9f9;}</style><pattern id="BLUE" data-name="BLUE" width="28.8" height="28.8" patternTransform="translate(3.77 -114.86)" patternUnits="userSpaceOnUse" viewBox="0 0 28.8 28.8"><rect class="cls-1" width="28.8" height="28.8"/><circle class="cls-4" cx="28.8" cy="28.8" r="2.88"/><circle class="cls-4" cx="14.4" cy="28.8" r="2.88"/><circle class="cls-4" cx="28.8" cy="14.4" r="2.88"/><circle class="cls-4" cx="14.4" cy="14.4" r="2.88"/><circle class="cls-4" cx="7.2" cy="21.6" r="2.88"/><circle class="cls-4" cx="21.6" cy="21.6" r="2.88"/><circle class="cls-4" cx="7.2" cy="7.2" r="2.88"/><circle class="cls-4" cx="21.6" cy="7.2" r="2.88"/><circle class="cls-4" cy="28.8" r="2.88"/><circle class="cls-4" cy="14.4" r="2.88"/><circle class="cls-4" cx="28.8" r="2.88"/><circle class="cls-4" cx="14.4" r="2.88"/><circle class="cls-4" r="2.88"/></pattern><pattern id="_10_dpi_50_" data-name="10 dpi 50%" width="28.8" height="28.8" patternTransform="translate(-2.5 -120.02)" patternUnits="userSpaceOnUse" viewBox="0 0 28.8 28.8"><rect class="cls-1" width="28.8" height="28.8"/><circle class="cls-2" cx="28.8" cy="28.8" r="3.6"/><circle class="cls-2" cx="14.4" cy="28.8" r="3.6"/><circle class="cls-2" cx="28.8" cy="14.4" r="3.6"/><circle class="cls-2" cx="14.4" cy="14.4" r="3.6"/><circle class="cls-2" cx="7.2" cy="21.6" r="3.6"/><circle class="cls-2" cx="21.6" cy="21.6" r="3.6"/><circle class="cls-2" cx="7.2" cy="7.2" r="3.6"/><circle class="cls-2" cx="21.6" cy="7.2" r="3.6"/><circle class="cls-2" cy="28.8" r="3.6"/><circle class="cls-2" cy="14.4" r="3.6"/><circle class="cls-2" cx="28.8" r="3.6"/><circle class="cls-2" cx="14.4" r="3.6"/><circle class="cls-2" r="3.6"/></pattern><pattern id="_10_dpi_70_" data-name="10 dpi 70%" width="28.8" height="28.8" patternTransform="translate(173.99 175.73)" patternUnits="userSpaceOnUse" viewBox="0 0 28.8 28.8"><rect class="cls-1" width="28.8" height="28.8"/><circle class="cls-3" cx="28.8" cy="28.8" r="5.04"/><circle class="cls-3" cx="14.4" cy="28.8" r="5.04"/><circle class="cls-3" cx="28.8" cy="14.4" r="5.04"/><circle class="cls-3" cx="14.4" cy="14.4" r="5.04"/><circle class="cls-3" cx="7.2" cy="21.6" r="5.04"/><circle class="cls-3" cx="21.6" cy="21.6" r="5.04"/><circle class="cls-3" cx="7.2" cy="7.2" r="5.04"/><circle class="cls-3" cx="21.6" cy="7.2" r="5.04"/><circle class="cls-3" cy="28.8" r="5.04"/><circle class="cls-3" cy="14.4" r="5.04"/><circle class="cls-3" cx="28.8" r="5.04"/><circle class="cls-3" cx="14.4" r="5.04"/><circle class="cls-3" r="5.04"/></pattern><pattern id="BLUE-3" data-name="BLUE" width="28.8" height="28.8" patternTransform="translate(61.41 -362.56)" patternUnits="userSpaceOnUse" viewBox="0 0 28.8 28.8"><rect class="cls-1" width="28.8" height="28.8"/><circle class="cls-4" cx="28.8" cy="28.8" r="2.88"/><circle class="cls-4" cx="14.4" cy="28.8" r="2.88"/><circle class="cls-4" cx="28.8" cy="14.4" r="2.88"/><circle class="cls-4" cx="14.4" cy="14.4" r="2.88"/><circle class="cls-4" cx="7.2" cy="21.6" r="2.88"/><circle class="cls-4" cx="21.6" cy="21.6" r="2.88"/><circle class="cls-4" cx="7.2" cy="7.2" r="2.88"/><circle class="cls-4" cx="21.6" cy="7.2" r="2.88"/><circle class="cls-4" cy="28.8" r="2.88"/><circle class="cls-4" cy="14.4" r="2.88"/><circle class="cls-4" cx="28.8" r="2.88"/><circle class="cls-4" cx="14.4" r="2.88"/><circle class="cls-4" r="2.88"/></pattern></defs><title>Screen</title><g id="Layer_2" data-name="Layer 2"><g id="Layer_1-2" data-name="Layer 1"><rect class="cls-5" x="11.08" y="5.41" width="896.33" height="320.29" rx="12" ry="12"/><rect class="cls-6" x="0.38" width="896.33" height="320.29" rx="12" ry="12"/><path class="cls-7" d="M869.21,15.17H40.42a12,12,0,0,0-12,12V163.83a12,12,0,0,0,12,12h419v82.5a12,12,0,0,0,12,12h32.93L.38,402l814-131.63h54.82a12,12,0,0,0,12-12V27.17A12,12,0,0,0,869.21,15.17Z"/><polygon class="cls-8" points="688.28 61.29 800.7 126.19 643.57 216.9 531.16 152 688.28 61.29"/><polygon class="cls-9" points="688.1 84 767.7 129.96 643.57 201.62 564.84 155.17 688.1 84"/><polygon class="cls-10" points="531.16 178.65 531.16 152 643.57 216.9 643.57 243.55 531.16 178.65"/><polygon class="cls-10" points="801.55 152.35 800.7 126.19 643.57 216.9 643.57 243.55 801.55 152.35"/><rect class="cls-11" x="36.6" y="22.65" width="411.94" height="60.63" rx="12" ry="12"/><rect class="cls-12" x="47.06" y="33.97" width="327.81" height="38" rx="12" ry="12"/></g></g></svg>