<?xml version="1.0" encoding="utf-8"?>
<!-- Generator: Adobe Illustrator 20.1.0, SVG Export Plug-In . SVG Version: 6.00 Build 0)  -->
<svg version="1.1" xmlns="http://www.w3.org/2000/svg" xmlns:xlink="http://www.w3.org/1999/xlink" x="0px" y="0px" width="241.5px"
	 height="199.2px" viewBox="0 0 241.5 199.2" enable-background="new 0 0 241.5 199.2" xml:space="preserve">
<g id="Layer_1">
	<g>
		<path fill="#00AEEF" d="M226,181.2c-16.2,12.8-21.9-3.6-42.5-3.6c-20.6,0-20.6,4-41.3,4c-20.6,0-20.6-4-41.3-4
			c-20.7,0-20.7,4-41.3,4s-23.8,9.2-40.1-3.6c-12.8-10.1-3.2-14.7-3.2-31c0-16.3,4-16.3,4-32.5c0-16.3-4-16.3-4-32.5
			c0-16.3,4-16.3,4-32.5s-16-24-3.2-34.1C33.2,2.6,38.9,19,59.5,19c20.6,0,20.6-4,41.3-4c20.6,0,20.6,4,41.3,4c20.7,0,20.7-4,41.3-4
			s23.8-9.2,40.1,3.6c12.8,10.1,3.2,14.7,3.2,31c0,16.3-4,16.3-4,32.5c0,16.3,4,16.3,4,32.5c0,16.3-7.9,17.2-3.9,33
			C227.2,165.5,238.7,171.2,226,181.2z"/>
		<path fill="none" stroke="#231F20" stroke-width="5" stroke-miterlimit="10" d="M226,181.2c-16.2,12.8-21.9-3.6-42.5-3.6
			c-20.6,0-20.6,4-41.3,4c-20.6,0-20.6-4-41.3-4c-20.7,0-20.7,4-41.3,4s-23.8,9.2-40.1-3.6c-12.8-10.1-3.2-14.7-3.2-31
			c0-16.3,4-16.3,4-32.5c0-16.3-4-16.3-4-32.5c0-16.3,4-16.3,4-32.5s-16-24-3.2-34.1C33.2,2.6,38.9,19,59.5,19c20.6,0,20.6-4,41.3-4
			c20.6,0,20.6,4,41.3,4c20.7,0,20.7-4,41.3-4s23.8-9.2,40.1,3.6c12.8,10.1,3.2,14.7,3.2,31c0,16.3-4,16.3-4,32.5
			c0,16.3,4,16.3,4,32.5c0,16.3-7.9,17.2-3.9,33C227.2,165.5,238.7,171.2,226,181.2z"/>
	</g>
	<g>
		<path d="M66.4,101.4c0.5,1.8,2.2,3,4,3c1.8,0,3.5-1,3.5-3.3c0-3.3-8.1-4.7-8.1-10.7c0-4.2,3.3-7.5,7.8-7.5c4.1,0,6.7,2.3,7.2,5.4
			l-4.4,2.4c-0.1-2.1-1.4-3.3-3.3-3.3c-1.4,0-2.6,1.1-2.6,2.6c0,3.4,8.1,4.6,8.1,10.4c0,5.4-4.1,8.4-8.8,8.4c-3.9,0-7-2.2-7.6-5.1
			L66.4,101.4z"/>
		<path d="M81.2,108.6l5.3-25.2h6.3c4.6,0,7.2,3.5,7.2,7.3c0,4.9-2.9,10.9-10.3,10.9h-2.3l-1.5,7H81.2z M90.2,97.1
			c3.1,0,5.1-3,5.1-5.9c0-1.9-1-3.3-3.2-3.3h-1.7l-1.9,9.2H90.2z"/>
		<path d="M101.1,100.8c0-6.8,2.6-17.7,10.8-17.7c4.9,0,7,3.7,7,8.2c0,6.9-2.7,17.7-10.8,17.7C103.2,108.9,101.1,105.3,101.1,100.8z
			 M114.2,91.6c0-2.4-0.7-4.1-2.7-4.1c-3.8,0-5.7,8.6-5.7,12.9c0,2.4,0.7,4.1,2.7,4.1C112.3,104.4,114.2,95.9,114.2,91.6z"/>
		<path d="M132.5,108.6L129,96.7c-0.4-1.5-0.8-3.4-0.8-3.4h-0.1c0,0-0.3,1.9-0.6,3.5l-2.5,11.8h-4.7l5.3-25.2h4l3.4,11.6
			c0.5,1.6,0.8,3.2,0.8,3.2h0.1c0,0,0.2-1.9,0.5-3.2l2.5-11.6h4.7l-5.3,25.2L132.5,108.6z"/>
		<path d="M152,99.3l0.9-4.5l7.5,0c-0.8,6.5-3.5,14.1-10.3,14.1c-4.9,0-7-3.7-7-8.2c0-6.8,2.6-17.7,10.8-17.7c4,0,6.1,2.5,6.8,5.9
			l-4.5,2.4c0-2.3-0.9-3.8-2.8-3.8c-3.8,0-5.6,8.6-5.6,12.9c0,2.4,0.7,4.1,2.7,4.1c2.3,0,3.6-2.3,4.5-5.2H152z"/>
		<path d="M162.4,108.6l5.3-25.2l13.4,0l-0.9,4.5l-8.6,0l-1.4,6.4l7.2,0l-1,4.5l-7.2,0l-1.1,5.3l8.6,0l-0.9,4.5L162.4,108.6z"/>
	</g>
</g>
<g id="Layer_3" display="none">
</g>
<g id="svg_demo">
</g>
</svg>
