<svg xmlns="http://www.w3.org/2000/svg" xmlns:xlink="http://www.w3.org/1999/xlink" viewBox="0 0 907.04 403.94"><defs><style>.cls-1{fill:none;}.cls-2{fill:#231f20;}.cls-3,.cls-9{fill:#00aeef;}.cls-4{fill:url(#BLUE);}.cls-5{fill:url(#_10_dpi_50_);}.cls-6{fill:#fff;stroke:#000;}.cls-6,.cls-8,.cls-9{stroke-miterlimit:10;}.cls-6,.cls-8{stroke-width:3px;}.cls-7{fill:url(#BLUE-3);}.cls-8{fill:#ffb900;}.cls-8,.cls-9{stroke:#231f20;}.cls-9{stroke-width:5px;}.cls-10{fill:#f9f9f9;}</style><pattern id="BLUE" data-name="BLUE" width="28.8" height="28.8" patternTransform="translate(12.28 -92.11)" patternUnits="userSpaceOnUse" viewBox="0 0 28.8 28.8"><rect class="cls-1" width="28.8" height="28.8"/><circle class="cls-3" cx="28.8" cy="28.8" r="2.88"/><circle class="cls-3" cx="14.4" cy="28.8" r="2.88"/><circle class="cls-3" cx="28.8" cy="14.4" r="2.88"/><circle class="cls-3" cx="14.4" cy="14.4" r="2.88"/><circle class="cls-3" cx="7.2" cy="21.6" r="2.88"/><circle class="cls-3" cx="21.6" cy="21.6" r="2.88"/><circle class="cls-3" cx="7.2" cy="7.2" r="2.88"/><circle class="cls-3" cx="21.6" cy="7.2" r="2.88"/><circle class="cls-3" cy="28.8" r="2.88"/><circle class="cls-3" cy="14.4" r="2.88"/><circle class="cls-3" cx="28.8" r="2.88"/><circle class="cls-3" cx="14.4" r="2.88"/><circle class="cls-3" r="2.88"/></pattern><pattern id="_10_dpi_50_" data-name="10 dpi 50%" width="28.8" height="28.8" patternTransform="translate(6.01 -97.27)" patternUnits="userSpaceOnUse" viewBox="0 0 28.8 28.8"><rect class="cls-1" width="28.8" height="28.8"/><circle class="cls-2" cx="28.8" cy="28.8" r="3.6"/><circle class="cls-2" cx="14.4" cy="28.8" r="3.6"/><circle class="cls-2" cx="28.8" cy="14.4" r="3.6"/><circle class="cls-2" cx="14.4" cy="14.4" r="3.6"/><circle class="cls-2" cx="7.2" cy="21.6" r="3.6"/><circle class="cls-2" cx="21.6" cy="21.6" r="3.6"/><circle class="cls-2" cx="7.2" cy="7.2" r="3.6"/><circle class="cls-2" cx="21.6" cy="7.2" r="3.6"/><circle class="cls-2" cy="28.8" r="3.6"/><circle class="cls-2" cy="14.4" r="3.6"/><circle class="cls-2" cx="28.8" r="3.6"/><circle class="cls-2" cx="14.4" r="3.6"/><circle class="cls-2" r="3.6"/></pattern><pattern id="BLUE-3" data-name="BLUE" width="28.8" height="28.8" patternTransform="translate(69.91 -339.81)" patternUnits="userSpaceOnUse" viewBox="0 0 28.8 28.8"><rect class="cls-1" width="28.8" height="28.8"/><circle class="cls-3" cx="28.8" cy="28.8" r="2.88"/><circle class="cls-3" cx="14.4" cy="28.8" r="2.88"/><circle class="cls-3" cx="28.8" cy="14.4" r="2.88"/><circle class="cls-3" cx="14.4" cy="14.4" r="2.88"/><circle class="cls-3" cx="7.2" cy="21.6" r="2.88"/><circle class="cls-3" cx="21.6" cy="21.6" r="2.88"/><circle class="cls-3" cx="7.2" cy="7.2" r="2.88"/><circle class="cls-3" cx="21.6" cy="7.2" r="2.88"/><circle class="cls-3" cy="28.8" r="2.88"/><circle class="cls-3" cy="14.4" r="2.88"/><circle class="cls-3" cx="28.8" r="2.88"/><circle class="cls-3" cx="14.4" r="2.88"/><circle class="cls-3" r="2.88"/></pattern></defs><title>Squeegee</title><g id="Layer_2" data-name="Layer 2"><g id="Layer_1-2" data-name="Layer 1"><rect class="cls-4" x="10.7" y="5.41" width="896.33" height="320.29" rx="12" ry="12"/><rect class="cls-5" width="896.33" height="320.29" rx="12" ry="12"/><path class="cls-6" d="M868.84,15.17H40a12,12,0,0,0-12,12V163.83a12,12,0,0,0,12,12h419v82.5a12,12,0,0,0,12,12H504L620,402,814,270.33h54.82a12,12,0,0,0,12-12V27.17A12,12,0,0,0,868.84,15.17Z"/><rect class="cls-7" x="36.22" y="22.65" width="411.94" height="60.63" rx="12" ry="12"/><rect class="cls-8" x="569.87" y="158.92" width="228.37" height="26.53" rx="7.87" ry="7.87"/><rect class="cls-9" x="547.99" y="100.02" width="272.15" height="68.82" rx="18.82" ry="18.82"/><rect class="cls-10" x="46.68" y="33.97" width="327.81" height="38" rx="12" ry="12"/></g></g></svg>