<svg xmlns="http://www.w3.org/2000/svg" width="229.11" height="229.11" viewBox="0 0 229.11 229.11"><title>window</title><g id="Layer_2" data-name="Layer 2"><g id="Layer_1-2" data-name="Layer 1"><rect x="2.5" y="2.5" width="224.11" height="224.11" fill="#f7941d" stroke="#231f20" stroke-miterlimit="10" stroke-width="5" opacity="0.5"/><polygon points="122.84 106.27 122.84 2.5 106.27 2.5 106.27 106.27 2.5 106.27 2.5 122.84 106.27 122.84 106.27 226.61 122.84 226.61 122.84 122.84 226.61 122.84 226.61 106.27 122.84 106.27" fill="#00aeef" stroke="#231f20" stroke-miterlimit="10" stroke-width="5" opacity="0.5"/><rect x="2.5" y="2.5" width="224.11" height="5.37" fill="#f7941d" stroke="#231f20" stroke-miterlimit="10" stroke-width="5" opacity="0.5"/><rect x="2.5" y="14.18" width="224.11" height="5.37" fill="#f7941d" stroke="#231f20" stroke-miterlimit="10" stroke-width="5" opacity="0.5"/><rect x="2.5" y="25.85" width="224.11" height="5.37" fill="#f7941d" stroke="#231f20" stroke-miterlimit="10" stroke-width="5" opacity="0.5"/><rect x="2.5" y="37.53" width="224.11" height="5.37" fill="#f7941d" stroke="#231f20" stroke-miterlimit="10" stroke-width="5" opacity="0.5"/><rect x="2.5" y="49.21" width="224.11" height="5.37" fill="#f7941d" stroke="#231f20" stroke-miterlimit="10" stroke-width="5" opacity="0.5"/><rect x="2.5" y="60.88" width="224.11" height="5.37" fill="#f7941d" stroke="#231f20" stroke-miterlimit="10" stroke-width="5" opacity="0.5"/><rect x="2.5" y="72.56" width="224.11" height="5.37" fill="#f7941d" stroke="#231f20" stroke-miterlimit="10" stroke-width="5" opacity="0.5"/><rect x="2.5" y="84.24" width="224.11" height="5.37" fill="#f7941d" stroke="#231f20" stroke-miterlimit="10" stroke-width="5" opacity="0.5"/><rect x="2.5" y="95.91" width="224.11" height="5.37" fill="#f7941d" stroke="#231f20" stroke-miterlimit="10" stroke-width="5" opacity="0.5"/><rect x="2.5" y="107.59" width="224.11" height="5.37" fill="#f7941d" stroke="#231f20" stroke-miterlimit="10" stroke-width="5" opacity="0.5"/><rect x="2.5" y="114.55" width="224.11" height="5.37" fill="#f7941d" stroke="#231f20" stroke-miterlimit="10" stroke-width="5" opacity="0.5"/><rect x="2.5" y="126.23" width="224.11" height="5.37" fill="#f7941d" stroke="#231f20" stroke-miterlimit="10" stroke-width="5" opacity="0.5"/><rect x="2.5" y="137.91" width="224.11" height="5.37" fill="#f7941d" stroke="#231f20" stroke-miterlimit="10" stroke-width="5" opacity="0.5"/><rect x="2.5" y="149.58" width="224.11" height="5.37" fill="#f7941d" stroke="#231f20" stroke-miterlimit="10" stroke-width="5" opacity="0.5"/><rect x="2.5" y="161.26" width="224.11" height="5.37" fill="#f7941d" stroke="#231f20" stroke-miterlimit="10" stroke-width="5" opacity="0.5"/><rect x="2.5" y="172.94" width="224.11" height="5.37" fill="#f7941d" stroke="#231f20" stroke-miterlimit="10" stroke-width="5" opacity="0.5"/><rect x="2.5" y="184.61" width="224.11" height="5.37" fill="#f7941d" stroke="#231f20" stroke-miterlimit="10" stroke-width="5" opacity="0.5"/><rect x="2.5" y="196.29" width="224.11" height="5.37" fill="#f7941d" stroke="#231f20" stroke-miterlimit="10" stroke-width="5" opacity="0.5"/><rect x="2.5" y="207.96" width="224.11" height="5.37" fill="#f7941d" stroke="#231f20" stroke-miterlimit="10" stroke-width="5" opacity="0.5"/><rect x="2.5" y="219.64" width="224.11" height="5.37" fill="#f7941d" stroke="#231f20" stroke-miterlimit="10" stroke-width="5" opacity="0.5"/></g></g></svg>